M48
; DRILL file {KiCad 8.0.6} date 2025-01-03T23:12:36-0800
; FORMAT={-:-/ absolute / inch / decimal}
; #@! TF.CreationDate,2025-01-03T23:12:36-08:00
; #@! TF.GenerationSoftware,Kicad,Pcbnew,8.0.6
; #@! TF.FileFunction,Plated,1,2,PTH
FMAT,2
INCH
; #@! TA.AperFunction,Plated,PTH,ComponentDrill
T1C0.0197
; #@! TA.AperFunction,Plated,PTH,ComponentDrill
T2C0.0315
; #@! TA.AperFunction,Plated,PTH,ComponentDrill
T3C0.0394
; #@! TA.AperFunction,Plated,PTH,ComponentDrill
T4C0.0433
; #@! TA.AperFunction,Plated,PTH,ComponentDrill
T5C0.1260
%
G90
G05
T1
X2.6614Y-3.7008
X2.6614Y-5.0984
X2.6891Y-3.634
X2.6891Y-3.7676
X2.6891Y-5.0316
X2.6891Y-5.1652
X2.7559Y-3.6063
X2.7559Y-3.7953
X2.7559Y-5.0039
X2.7559Y-5.1929
X2.8227Y-3.634
X2.8227Y-3.7676
X2.8227Y-5.0316
X2.8227Y-5.1652
X2.8504Y-3.7008
X2.8504Y-5.0984
X7.6811Y-3.7008
X7.6811Y-5.0984
X7.7088Y-3.634
X7.7088Y-3.7676
X7.7088Y-5.0316
X7.7088Y-5.1652
X7.7756Y-3.6063
X7.7756Y-3.7953
X7.7756Y-5.0039
X7.7756Y-5.1929
X7.8424Y-3.634
X7.8424Y-3.7676
X7.8424Y-5.0316
X7.8424Y-5.1652
X7.8701Y-3.7008
X7.8701Y-5.0984
T3
X4.589Y-4.9626
X4.589Y-5.0626
X4.689Y-4.9626
X4.689Y-5.0626
X4.789Y-4.9626
X4.789Y-5.0626
X4.889Y-4.9626
X4.889Y-5.0626
X4.989Y-4.9626
X4.989Y-5.0626
X5.089Y-4.9626
X5.089Y-5.0626
X5.189Y-4.9626
X5.189Y-5.0626
X5.289Y-4.9626
X5.289Y-5.0626
X5.389Y-4.9626
X5.389Y-5.0626
X5.489Y-4.9626
X5.489Y-5.0626
T4
X2.9039Y-4.4094
X3.0039Y-4.4094
X3.1039Y-4.4094
X3.2039Y-4.4094
X3.3039Y-4.4094
X3.465Y-4.4094
X3.565Y-4.4094
X3.665Y-4.4094
X3.765Y-4.4094
X3.865Y-4.4094
X4.0276Y-4.4094
X4.1276Y-4.4094
X4.2276Y-4.4094
X4.3933Y-4.4094
X4.4933Y-4.4094
X4.5933Y-4.4094
X4.7591Y-4.4094
X4.8591Y-4.4094
X4.9591Y-4.4094
X5.1217Y-4.4094
X5.2217Y-4.4094
X5.3217Y-4.4094
X5.4858Y-4.4094
X5.5858Y-4.4094
X5.6858Y-4.4094
X5.85Y-4.4094
X5.95Y-4.4094
X6.05Y-4.4094
X6.2142Y-4.4094
X6.3142Y-4.4094
X6.4732Y-4.4094
X6.5732Y-4.4094
X6.6732Y-4.4094
X6.8374Y-4.4094
X6.9374Y-4.4094
X7.0374Y-4.4094
X7.2016Y-4.4094
X7.3016Y-4.4094
X7.4016Y-4.4094
X7.5657Y-4.4094
X7.6657Y-4.4094
T5
X2.7559Y-3.7008
X2.7559Y-5.0984
X7.7756Y-3.7008
X7.7756Y-5.0984
T2
G00X6.0087Y-4.6965
M15
G01X6.111Y-4.6965
M16
G05
G00X6.0165Y-4.9248
M15
G01X6.1031Y-4.9248
M16
G05
G00X6.2488Y-4.8579
M15
G01X6.2488Y-4.7713
M16
G05
M30
