%TF.GenerationSoftware,KiCad,Pcbnew,8.0.6*%
%TF.CreationDate,2025-01-03T23:12:35-08:00*%
%TF.ProjectId,MEP-MAXI-85V-1-REV-2-Sensor-Test-Jig,4d45502d-4d41-4584-992d-3835562d312d,X1*%
%TF.SameCoordinates,Original*%
%TF.FileFunction,Copper,L1,Top*%
%TF.FilePolarity,Positive*%
%FSLAX46Y46*%
G04 Gerber Fmt 4.6, Leading zero omitted, Abs format (unit mm)*
G04 Created by KiCad (PCBNEW 8.0.6) date 2025-01-03 23:12:35*
%MOMM*%
%LPD*%
G01*
G04 APERTURE LIST*
G04 Aperture macros list*
%AMRoundRect*
0 Rectangle with rounded corners*
0 $1 Rounding radius*
0 $2 $3 $4 $5 $6 $7 $8 $9 X,Y pos of 4 corners*
0 Add a 4 corners polygon primitive as box body*
4,1,4,$2,$3,$4,$5,$6,$7,$8,$9,$2,$3,0*
0 Add four circle primitives for the rounded corners*
1,1,$1+$1,$2,$3*
1,1,$1+$1,$4,$5*
1,1,$1+$1,$6,$7*
1,1,$1+$1,$8,$9*
0 Add four rect primitives between the rounded corners*
20,1,$1+$1,$2,$3,$4,$5,0*
20,1,$1+$1,$4,$5,$6,$7,0*
20,1,$1+$1,$6,$7,$8,$9,0*
20,1,$1+$1,$8,$9,$2,$3,0*%
G04 Aperture macros list end*
%TA.AperFunction,ComponentPad*%
%ADD10R,2.100000X2.100000*%
%TD*%
%TA.AperFunction,ComponentPad*%
%ADD11C,2.100000*%
%TD*%
%TA.AperFunction,ComponentPad*%
%ADD12C,0.800000*%
%TD*%
%TA.AperFunction,ComponentPad*%
%ADD13C,6.400000*%
%TD*%
%TA.AperFunction,ComponentPad*%
%ADD14R,4.400000X1.800000*%
%TD*%
%TA.AperFunction,ComponentPad*%
%ADD15O,4.000000X1.800000*%
%TD*%
%TA.AperFunction,ComponentPad*%
%ADD16O,1.800000X4.000000*%
%TD*%
%TA.AperFunction,ComponentPad*%
%ADD17RoundRect,0.250000X0.600000X-0.600000X0.600000X0.600000X-0.600000X0.600000X-0.600000X-0.600000X0*%
%TD*%
%TA.AperFunction,ComponentPad*%
%ADD18C,1.700000*%
%TD*%
%TA.AperFunction,Conductor*%
%ADD19C,1.600000*%
%TD*%
G04 APERTURE END LIST*
D10*
%TO.P,J105,1,Pin_1*%
%TO.N,24VRAW*%
X111590000Y-112000000D03*
D11*
%TO.P,J105,2,Pin_2*%
%TO.N,/PROXIMITY_HEAD_IN*%
X114130000Y-112000000D03*
%TO.P,J105,3,Pin_3*%
%TO.N,GND*%
X116670000Y-112000000D03*
%TD*%
D10*
%TO.P,J107,1,Pin_1*%
%TO.N,24VRAW*%
X130090000Y-112000000D03*
D11*
%TO.P,J107,2,Pin_2*%
%TO.N,/PROXIMITY_SHEAR_CUT*%
X132630000Y-112000000D03*
%TO.P,J107,3,Pin_3*%
%TO.N,GND*%
X135170000Y-112000000D03*
%TD*%
D10*
%TO.P,J114,1,Pin_1*%
%TO.N,/AUTO_BUTTON*%
X192170000Y-112000000D03*
D11*
%TO.P,J114,2,Pin_2*%
%TO.N,GND*%
X194710000Y-112000000D03*
%TD*%
D12*
%TO.P,H101,1,1*%
%TO.N,GND*%
X67600000Y-94000000D03*
X68302944Y-92302944D03*
X68302944Y-95697056D03*
X70000000Y-91600000D03*
D13*
X70000000Y-94000000D03*
D12*
X70000000Y-96400000D03*
X71697056Y-92302944D03*
X71697056Y-95697056D03*
X72400000Y-94000000D03*
%TD*%
%TO.P,H103,1,1*%
%TO.N,GND*%
X195100000Y-129500000D03*
X195802944Y-127802944D03*
X195802944Y-131197056D03*
X197500000Y-127100000D03*
D13*
X197500000Y-129500000D03*
D12*
X197500000Y-131900000D03*
X199197056Y-127802944D03*
X199197056Y-131197056D03*
X199900000Y-129500000D03*
%TD*%
%TO.P,H104,1,1*%
%TO.N,GND*%
X67600000Y-129500000D03*
X68302944Y-127802944D03*
X68302944Y-131197056D03*
X70000000Y-127100000D03*
D13*
X70000000Y-129500000D03*
D12*
X70000000Y-131900000D03*
X71697056Y-127802944D03*
X71697056Y-131197056D03*
X72400000Y-129500000D03*
%TD*%
D10*
%TO.P,J111,1,Pin_1*%
%TO.N,24VRAW*%
X164420000Y-112000000D03*
D11*
%TO.P,J111,2,Pin_2*%
%TO.N,/PROXIMITY_HEAD_LIM*%
X166960000Y-112000000D03*
%TO.P,J111,3,Pin_3*%
%TO.N,GND*%
X169500000Y-112000000D03*
%TD*%
D10*
%TO.P,J110,1,Pin_1*%
%TO.N,/SHEAR_BUTTON*%
X157840000Y-112000000D03*
D11*
%TO.P,J110,2,Pin_2*%
%TO.N,GND*%
X160380000Y-112000000D03*
%TD*%
D10*
%TO.P,J109,1,Pin_1*%
%TO.N,24VRAW*%
X148590000Y-112000000D03*
D11*
%TO.P,J109,2,Pin_2*%
%TO.N,/PROXIMITY_TOOL_OUT*%
X151130000Y-112000000D03*
%TO.P,J109,3,Pin_3*%
%TO.N,GND*%
X153670000Y-112000000D03*
%TD*%
D10*
%TO.P,J103,1,Pin_1*%
%TO.N,24VRAW*%
X88010000Y-112000000D03*
D11*
%TO.P,J103,2,Pin_2*%
%TO.N,/ENCODER_BEND_SET*%
X90550000Y-112000000D03*
%TO.P,J103,3,Pin_3*%
%TO.N,/ENCODER_BEND_RESET*%
X93090000Y-112000000D03*
%TO.P,J103,4,Pin_4*%
%TO.N,GND*%
X95630000Y-112000000D03*
%TO.P,J103,5,Pin_5*%
%TO.N,unconnected-(J103-Pin_5-Pad5)*%
X98170000Y-112000000D03*
%TD*%
D10*
%TO.P,J112,1,Pin_1*%
%TO.N,24VRAW*%
X173670000Y-112000000D03*
D11*
%TO.P,J112,2,Pin_2*%
%TO.N,/PROXIMITY_HEAD_CW*%
X176210000Y-112000000D03*
%TO.P,J112,3,Pin_3*%
%TO.N,GND*%
X178750000Y-112000000D03*
%TD*%
D14*
%TO.P,J115,1*%
%TO.N,24VRAW*%
X153920000Y-119290000D03*
D15*
%TO.P,J115,2*%
%TO.N,GND*%
X153920000Y-125090000D03*
D16*
%TO.P,J115,3,MountPin*%
X158720000Y-122290000D03*
%TD*%
D17*
%TO.P,J101,1,Pin_1*%
%TO.N,/ENCODER_FEED_SET*%
X116560000Y-128590000D03*
D18*
%TO.P,J101,2,Pin_2*%
%TO.N,/ENCODER_FEED_RESET*%
X116560000Y-126050000D03*
%TO.P,J101,3,Pin_3*%
%TO.N,/ENCODER_BEND_SET*%
X119100000Y-128590000D03*
%TO.P,J101,4,Pin_4*%
%TO.N,/ENCODER_BEND_RESET*%
X119100000Y-126050000D03*
%TO.P,J101,5,Pin_5*%
%TO.N,GND*%
X121640000Y-128590000D03*
%TO.P,J101,6,Pin_6*%
%TO.N,24VRAW*%
X121640000Y-126050000D03*
%TO.P,J101,7,Pin_7*%
%TO.N,/PROXIMITY_HEAD_OUT*%
X124180000Y-128590000D03*
%TO.P,J101,8,Pin_8*%
%TO.N,/PROXIMITY_HEAD_IN*%
X124180000Y-126050000D03*
%TO.P,J101,9,Pin_9*%
%TO.N,/PROXIMITY_SHEAR_HOME*%
X126720000Y-128590000D03*
%TO.P,J101,10,Pin_10*%
%TO.N,/PROXIMITY_SHEAR_CUT*%
X126720000Y-126050000D03*
%TO.P,J101,11,Pin_11*%
%TO.N,/PROXIMITY_TOOL_IN*%
X129260000Y-128590000D03*
%TO.P,J101,12,Pin_12*%
%TO.N,/PROXIMITY_TOOL_OUT*%
X129260000Y-126050000D03*
%TO.P,J101,13,Pin_13*%
%TO.N,/SHEAR_BUTTON*%
X131800000Y-128590000D03*
%TO.P,J101,14,Pin_14*%
%TO.N,/PROXIMITY_HEAD_LIM*%
X131800000Y-126050000D03*
%TO.P,J101,15,Pin_15*%
%TO.N,/PROXIMITY_HEAD_CW*%
X134340000Y-128590000D03*
%TO.P,J101,16,Pin_16*%
%TO.N,/PROXIMITY_HEAD_CCW*%
X134340000Y-126050000D03*
%TO.P,J101,17,Pin_17*%
%TO.N,/AUTO_BUTTON*%
X136880000Y-128590000D03*
%TO.P,J101,18,Pin_18*%
%TO.N,unconnected-(J101-Pin_18-Pad18)*%
X136880000Y-126050000D03*
%TO.P,J101,19,Pin_19*%
%TO.N,unconnected-(J101-Pin_19-Pad19)*%
X139420000Y-128590000D03*
%TO.P,J101,20,Pin_20*%
%TO.N,unconnected-(J101-Pin_20-Pad20)*%
X139420000Y-126050000D03*
%TD*%
D10*
%TO.P,J108,1,Pin_1*%
%TO.N,24VRAW*%
X139340000Y-112000000D03*
D11*
%TO.P,J108,2,Pin_2*%
%TO.N,/PROXIMITY_TOOL_IN*%
X141880000Y-112000000D03*
%TO.P,J108,3,Pin_3*%
%TO.N,GND*%
X144420000Y-112000000D03*
%TD*%
D10*
%TO.P,J102,1,Pin_1*%
%TO.N,24VRAW*%
X73760000Y-112000000D03*
D11*
%TO.P,J102,2,Pin_2*%
%TO.N,/ENCODER_FEED_SET*%
X76300000Y-112000000D03*
%TO.P,J102,3,Pin_3*%
%TO.N,/ENCODER_FEED_RESET*%
X78840000Y-112000000D03*
%TO.P,J102,4,Pin_4*%
%TO.N,GND*%
X81380000Y-112000000D03*
%TO.P,J102,5,Pin_5*%
%TO.N,unconnected-(J102-Pin_5-Pad5)*%
X83920000Y-112000000D03*
%TD*%
D10*
%TO.P,J104,1,Pin_1*%
%TO.N,24VRAW*%
X102300000Y-112000000D03*
D11*
%TO.P,J104,2,Pin_2*%
%TO.N,/PROXIMITY_HEAD_OUT*%
X104840000Y-112000000D03*
%TO.P,J104,3,Pin_3*%
%TO.N,GND*%
X107380000Y-112000000D03*
%TD*%
D10*
%TO.P,J113,1,Pin_1*%
%TO.N,24VRAW*%
X182920000Y-112000000D03*
D11*
%TO.P,J113,2,Pin_2*%
%TO.N,/PROXIMITY_HEAD_CCW*%
X185460000Y-112000000D03*
%TO.P,J113,3,Pin_3*%
%TO.N,GND*%
X188000000Y-112000000D03*
%TD*%
D12*
%TO.P,H102,1,1*%
%TO.N,GND*%
X195100000Y-94000000D03*
X195802944Y-92302944D03*
X195802944Y-95697056D03*
X197500000Y-91600000D03*
D13*
X197500000Y-94000000D03*
D12*
X197500000Y-96400000D03*
X199197056Y-92302944D03*
X199197056Y-95697056D03*
X199900000Y-94000000D03*
%TD*%
D10*
%TO.P,J106,1,Pin_1*%
%TO.N,24VRAW*%
X120880000Y-112000000D03*
D11*
%TO.P,J106,2,Pin_2*%
%TO.N,/PROXIMITY_SHEAR_HOME*%
X123420000Y-112000000D03*
%TO.P,J106,3,Pin_3*%
%TO.N,GND*%
X125960000Y-112000000D03*
%TD*%
D19*
%TO.N,/PROXIMITY_HEAD_LIM*%
X131800000Y-125968120D02*
X138768120Y-119000000D01*
X138768120Y-119000000D02*
X149110000Y-119000000D01*
X131800000Y-126050000D02*
X131800000Y-125968120D01*
X149110000Y-119000000D02*
X151610000Y-116500000D01*
X151610000Y-116500000D02*
X164500000Y-116500000D01*
X166960000Y-114040000D02*
X166960000Y-112000000D01*
X164500000Y-116500000D02*
X166960000Y-114040000D01*
%TO.N,/PROXIMITY_SHEAR_CUT*%
X126720000Y-126050000D02*
X126720000Y-120780000D01*
X132630000Y-114870000D02*
X132630000Y-112000000D01*
X126720000Y-120780000D02*
X132630000Y-114870000D01*
%TO.N,/PROXIMITY_HEAD_IN*%
X124180000Y-124847919D02*
X114130000Y-114797919D01*
X114130000Y-114797919D02*
X114130000Y-112000000D01*
X124180000Y-126050000D02*
X124180000Y-124847919D01*
%TO.N,/PROXIMITY_HEAD_OUT*%
X124180000Y-129792081D02*
X121732081Y-132240000D01*
X71000000Y-108000000D02*
X102400000Y-108000000D01*
X79500000Y-125500000D02*
X69000000Y-115000000D01*
X69000000Y-115000000D02*
X69000000Y-110000000D01*
X124180000Y-128590000D02*
X124180000Y-129792081D01*
X106500000Y-125500000D02*
X79500000Y-125500000D01*
X113240000Y-132240000D02*
X106500000Y-125500000D01*
X104840000Y-110440000D02*
X104840000Y-112000000D01*
X121732081Y-132240000D02*
X113240000Y-132240000D01*
X69000000Y-110000000D02*
X71000000Y-108000000D01*
X102400000Y-108000000D02*
X104840000Y-110440000D01*
%TO.N,/AUTO_BUTTON*%
X192170000Y-115330000D02*
X192170000Y-112000000D01*
X137527919Y-130440000D02*
X177060000Y-130440000D01*
X136880000Y-129792081D02*
X137527919Y-130440000D01*
X136880000Y-128590000D02*
X136880000Y-129792081D01*
X177060000Y-130440000D02*
X192170000Y-115330000D01*
%TO.N,/PROXIMITY_HEAD_CCW*%
X150990000Y-126990000D02*
X157807006Y-126990000D01*
X182520000Y-116500000D02*
X185460000Y-113560000D01*
X168000000Y-116797006D02*
X168297006Y-116500000D01*
X146000000Y-122000000D02*
X150990000Y-126990000D01*
X134340000Y-126050000D02*
X134340000Y-125973704D01*
X134340000Y-125973704D02*
X138313704Y-122000000D01*
X157807006Y-126990000D02*
X168000000Y-116797006D01*
X185460000Y-113560000D02*
X185460000Y-112000000D01*
X168297006Y-116500000D02*
X182520000Y-116500000D01*
X138313704Y-122000000D02*
X146000000Y-122000000D01*
%TO.N,/ENCODER_FEED_SET*%
X115590000Y-128590000D02*
X107500000Y-120500000D01*
X116560000Y-128590000D02*
X115590000Y-128590000D01*
X80500000Y-120500000D02*
X76300000Y-116300000D01*
X107500000Y-120500000D02*
X80500000Y-120500000D01*
X76300000Y-116300000D02*
X76300000Y-112000000D01*
%TO.N,/ENCODER_FEED_RESET*%
X81000000Y-118000000D02*
X78840000Y-115840000D01*
X78840000Y-115840000D02*
X78840000Y-112000000D01*
X108510000Y-118000000D02*
X81000000Y-118000000D01*
X116560000Y-126050000D02*
X108510000Y-118000000D01*
%TO.N,/ENCODER_BEND_SET*%
X118452081Y-130440000D02*
X114440000Y-130440000D01*
X107500000Y-123500000D02*
X80500000Y-123500000D01*
X119100000Y-128590000D02*
X119100000Y-129792081D01*
X114440000Y-130440000D02*
X107500000Y-123500000D01*
X71000000Y-114000000D02*
X71000000Y-111000000D01*
X80500000Y-123500000D02*
X71000000Y-114000000D01*
X90060000Y-109950000D02*
X90550000Y-110440000D01*
X119100000Y-129792081D02*
X118452081Y-130440000D01*
X71000000Y-111000000D02*
X72050000Y-109950000D01*
X90550000Y-110440000D02*
X90550000Y-112000000D01*
X72050000Y-109950000D02*
X90060000Y-109950000D01*
%TO.N,/ENCODER_BEND_RESET*%
X93090000Y-113484924D02*
X93090000Y-112000000D01*
X95605076Y-116000000D02*
X93090000Y-113484924D01*
X119100000Y-126050000D02*
X119100000Y-125145584D01*
X119100000Y-125145584D02*
X109954416Y-116000000D01*
X109954416Y-116000000D02*
X95605076Y-116000000D01*
%TO.N,/PROXIMITY_TOOL_OUT*%
X129260000Y-124847919D02*
X138107919Y-116000000D01*
X148500000Y-116000000D02*
X151130000Y-113370000D01*
X138107919Y-116000000D02*
X148500000Y-116000000D01*
X151130000Y-113370000D02*
X151130000Y-112000000D01*
X129260000Y-126050000D02*
X129260000Y-124847919D01*
%TO.N,24VRAW*%
X111590000Y-115090000D02*
X111590000Y-112000000D01*
X121640000Y-125140000D02*
X111590000Y-115090000D01*
X121640000Y-126050000D02*
X121640000Y-125140000D01*
%TD*%
%TA.AperFunction,Conductor*%
%TO.N,GND*%
G36*
X200749500Y-133089500D02*
G01*
X122261567Y-133089500D01*
X122369863Y-133017139D01*
X122509220Y-132877782D01*
X122509221Y-132877779D01*
X124957139Y-130429863D01*
X124957140Y-130429862D01*
X125066632Y-130265995D01*
X125142051Y-130083916D01*
X125180500Y-129890622D01*
X125180500Y-128910655D01*
X125215300Y-128795934D01*
X125235583Y-128590000D01*
X125664417Y-128590000D01*
X125684700Y-128795934D01*
X125744768Y-128993954D01*
X125842315Y-129176450D01*
X125973590Y-129336410D01*
X126133550Y-129467685D01*
X126316046Y-129565232D01*
X126514066Y-129625300D01*
X126720000Y-129645583D01*
X126925934Y-129625300D01*
X127123954Y-129565232D01*
X127306450Y-129467685D01*
X127466410Y-129336410D01*
X127597685Y-129176450D01*
X127695232Y-128993954D01*
X127755300Y-128795934D01*
X127775583Y-128590000D01*
X128204417Y-128590000D01*
X128224700Y-128795934D01*
X128284768Y-128993954D01*
X128382315Y-129176450D01*
X128513590Y-129336410D01*
X128673550Y-129467685D01*
X128856046Y-129565232D01*
X129054066Y-129625300D01*
X129260000Y-129645583D01*
X129465934Y-129625300D01*
X129663954Y-129565232D01*
X129846450Y-129467685D01*
X130006410Y-129336410D01*
X130137685Y-129176450D01*
X130235232Y-128993954D01*
X130295300Y-128795934D01*
X130315583Y-128590000D01*
X130744417Y-128590000D01*
X130764700Y-128795934D01*
X130824768Y-128993954D01*
X130922315Y-129176450D01*
X131053590Y-129336410D01*
X131213550Y-129467685D01*
X131396046Y-129565232D01*
X131594066Y-129625300D01*
X131800000Y-129645583D01*
X132005934Y-129625300D01*
X132203954Y-129565232D01*
X132386450Y-129467685D01*
X132546410Y-129336410D01*
X132677685Y-129176450D01*
X132775232Y-128993954D01*
X132835300Y-128795934D01*
X132855583Y-128590000D01*
X133284417Y-128590000D01*
X133304700Y-128795934D01*
X133364768Y-128993954D01*
X133462315Y-129176450D01*
X133593590Y-129336410D01*
X133753550Y-129467685D01*
X133936046Y-129565232D01*
X134134066Y-129625300D01*
X134340000Y-129645583D01*
X134545934Y-129625300D01*
X134743954Y-129565232D01*
X134926450Y-129467685D01*
X135086410Y-129336410D01*
X135217685Y-129176450D01*
X135315232Y-128993954D01*
X135375300Y-128795934D01*
X135395583Y-128590000D01*
X135824417Y-128590000D01*
X135844700Y-128795934D01*
X135879500Y-128910655D01*
X135879500Y-129890622D01*
X135917949Y-130083916D01*
X135993368Y-130265995D01*
X136102861Y-130429863D01*
X136242218Y-130569220D01*
X136242221Y-130569222D01*
X136750777Y-131077778D01*
X136750780Y-131077782D01*
X136890137Y-131217139D01*
X137054005Y-131326632D01*
X137182753Y-131379961D01*
X137236083Y-131402051D01*
X137332731Y-131421275D01*
X137429378Y-131440500D01*
X137429379Y-131440500D01*
X137626459Y-131440500D01*
X176961460Y-131440500D01*
X177158540Y-131440500D01*
X177158541Y-131440500D01*
X177255188Y-131421275D01*
X177351836Y-131402051D01*
X177405165Y-131379961D01*
X177533914Y-131326632D01*
X177697782Y-131217139D01*
X177837139Y-131077782D01*
X177837141Y-131077778D01*
X192807778Y-116107141D01*
X192807782Y-116107139D01*
X192947139Y-115967782D01*
X193056632Y-115803914D01*
X193132051Y-115621835D01*
X193170500Y-115428541D01*
X193170500Y-113250500D01*
X193239748Y-113250500D01*
X193298231Y-113238867D01*
X193364552Y-113194552D01*
X193408867Y-113128231D01*
X193420500Y-113069748D01*
X193420500Y-110930252D01*
X193408867Y-110871769D01*
X193364552Y-110805448D01*
X193298231Y-110761133D01*
X193239748Y-110749500D01*
X191100252Y-110749500D01*
X191041769Y-110761133D01*
X190975448Y-110805448D01*
X190931133Y-110871769D01*
X190919500Y-110930252D01*
X190919500Y-113069748D01*
X190931133Y-113128231D01*
X190975448Y-113194552D01*
X191041769Y-113238867D01*
X191100252Y-113250500D01*
X191169500Y-113250500D01*
X191169500Y-114915580D01*
X176645580Y-129439500D01*
X140040794Y-129439500D01*
X140166410Y-129336410D01*
X140297685Y-129176450D01*
X140395232Y-128993954D01*
X140455300Y-128795934D01*
X140475583Y-128590000D01*
X140455300Y-128384066D01*
X140395232Y-128186046D01*
X140297685Y-128003550D01*
X140166410Y-127843590D01*
X140006450Y-127712315D01*
X139823954Y-127614768D01*
X139625934Y-127554700D01*
X139420000Y-127534417D01*
X139214066Y-127554700D01*
X139016046Y-127614768D01*
X138833550Y-127712315D01*
X138673590Y-127843590D01*
X138542315Y-128003550D01*
X138444768Y-128186046D01*
X138384700Y-128384066D01*
X138364417Y-128590000D01*
X138384700Y-128795934D01*
X138444768Y-128993954D01*
X138542315Y-129176450D01*
X138673590Y-129336410D01*
X138799206Y-129439500D01*
X137942339Y-129439500D01*
X137880500Y-129377661D01*
X137880500Y-128910655D01*
X137915300Y-128795934D01*
X137935583Y-128590000D01*
X137915300Y-128384066D01*
X137855232Y-128186046D01*
X137757685Y-128003550D01*
X137626410Y-127843590D01*
X137466450Y-127712315D01*
X137283954Y-127614768D01*
X137085934Y-127554700D01*
X136880000Y-127534417D01*
X136674066Y-127554700D01*
X136476046Y-127614768D01*
X136293550Y-127712315D01*
X136133590Y-127843590D01*
X136002315Y-128003550D01*
X135904768Y-128186046D01*
X135844700Y-128384066D01*
X135824417Y-128590000D01*
X135395583Y-128590000D01*
X135375300Y-128384066D01*
X135315232Y-128186046D01*
X135217685Y-128003550D01*
X135086410Y-127843590D01*
X134926450Y-127712315D01*
X134743954Y-127614768D01*
X134545934Y-127554700D01*
X134340000Y-127534417D01*
X134134066Y-127554700D01*
X133936046Y-127614768D01*
X133753550Y-127712315D01*
X133593590Y-127843590D01*
X133462315Y-128003550D01*
X133364768Y-128186046D01*
X133304700Y-128384066D01*
X133284417Y-128590000D01*
X132855583Y-128590000D01*
X132835300Y-128384066D01*
X132775232Y-128186046D01*
X132677685Y-128003550D01*
X132546410Y-127843590D01*
X132386450Y-127712315D01*
X132203954Y-127614768D01*
X132005934Y-127554700D01*
X131800000Y-127534417D01*
X131594066Y-127554700D01*
X131396046Y-127614768D01*
X131213550Y-127712315D01*
X131053590Y-127843590D01*
X130922315Y-128003550D01*
X130824768Y-128186046D01*
X130764700Y-128384066D01*
X130744417Y-128590000D01*
X130315583Y-128590000D01*
X130295300Y-128384066D01*
X130235232Y-128186046D01*
X130137685Y-128003550D01*
X130006410Y-127843590D01*
X129846450Y-127712315D01*
X129663954Y-127614768D01*
X129465934Y-127554700D01*
X129260000Y-127534417D01*
X129054066Y-127554700D01*
X128856046Y-127614768D01*
X128673550Y-127712315D01*
X128513590Y-127843590D01*
X128382315Y-128003550D01*
X128284768Y-128186046D01*
X128224700Y-128384066D01*
X128204417Y-128590000D01*
X127775583Y-128590000D01*
X127755300Y-128384066D01*
X127695232Y-128186046D01*
X127597685Y-128003550D01*
X127466410Y-127843590D01*
X127306450Y-127712315D01*
X127123954Y-127614768D01*
X126925934Y-127554700D01*
X126720000Y-127534417D01*
X126514066Y-127554700D01*
X126316046Y-127614768D01*
X126133550Y-127712315D01*
X125973590Y-127843590D01*
X125842315Y-128003550D01*
X125744768Y-128186046D01*
X125684700Y-128384066D01*
X125664417Y-128590000D01*
X125235583Y-128590000D01*
X125215300Y-128384066D01*
X125155232Y-128186046D01*
X125057685Y-128003550D01*
X124926410Y-127843590D01*
X124766450Y-127712315D01*
X124583954Y-127614768D01*
X124385934Y-127554700D01*
X124180000Y-127534417D01*
X123974066Y-127554700D01*
X123776046Y-127614768D01*
X123593550Y-127712315D01*
X123433590Y-127843590D01*
X123302315Y-128003550D01*
X123204768Y-128186046D01*
X123144700Y-128384066D01*
X123124417Y-128590000D01*
X123144700Y-128795934D01*
X123179500Y-128910655D01*
X123179500Y-129377660D01*
X121317661Y-131239500D01*
X119056397Y-131239500D01*
X119089863Y-131217139D01*
X119229220Y-131077782D01*
X119229222Y-131077778D01*
X119737778Y-130569222D01*
X119737782Y-130569220D01*
X119877139Y-130429863D01*
X119986632Y-130265995D01*
X120062051Y-130083916D01*
X120100500Y-129890622D01*
X120100500Y-128910655D01*
X120135300Y-128795934D01*
X120155583Y-128590000D01*
X120135300Y-128384066D01*
X120075232Y-128186046D01*
X119977685Y-128003550D01*
X119846410Y-127843590D01*
X119686450Y-127712315D01*
X119503954Y-127614768D01*
X119305934Y-127554700D01*
X119100000Y-127534417D01*
X118894066Y-127554700D01*
X118696046Y-127614768D01*
X118513550Y-127712315D01*
X118353590Y-127843590D01*
X118222315Y-128003550D01*
X118124768Y-128186046D01*
X118064700Y-128384066D01*
X118044417Y-128590000D01*
X118064700Y-128795934D01*
X118099500Y-128910655D01*
X118099500Y-129377661D01*
X118037661Y-129439500D01*
X117535768Y-129439500D01*
X117562793Y-129402882D01*
X117607646Y-129274699D01*
X117610500Y-129244266D01*
X117610500Y-127935734D01*
X117607646Y-127905301D01*
X117562793Y-127777118D01*
X117482150Y-127667850D01*
X117372882Y-127587207D01*
X117244699Y-127542354D01*
X117214266Y-127539500D01*
X115954421Y-127539500D01*
X108277140Y-119862220D01*
X108277139Y-119862218D01*
X108137782Y-119722861D01*
X107973914Y-119613368D01*
X107845165Y-119560038D01*
X107791836Y-119537949D01*
X107695188Y-119518724D01*
X107598541Y-119499500D01*
X80914420Y-119499500D01*
X77300500Y-115885580D01*
X77300500Y-112751319D01*
X77387102Y-112627639D01*
X77479575Y-112429330D01*
X77536207Y-112217977D01*
X77555277Y-112000000D01*
X77536207Y-111782023D01*
X77479575Y-111570670D01*
X77387102Y-111372362D01*
X77261598Y-111193123D01*
X77106877Y-111038402D01*
X76981340Y-110950500D01*
X78158661Y-110950500D01*
X78033123Y-111038402D01*
X77878402Y-111193123D01*
X77752898Y-111372362D01*
X77660425Y-111570670D01*
X77603793Y-111782023D01*
X77584723Y-112000000D01*
X77603793Y-112217977D01*
X77660425Y-112429330D01*
X77752898Y-112627639D01*
X77839500Y-112751319D01*
X77839500Y-115938541D01*
X77847077Y-115976632D01*
X77873036Y-116107139D01*
X77877949Y-116131835D01*
X77953368Y-116313914D01*
X78062861Y-116477782D01*
X78202218Y-116617139D01*
X78202220Y-116617140D01*
X80222860Y-118637781D01*
X80222861Y-118637782D01*
X80362218Y-118777139D01*
X80526086Y-118886632D01*
X80654834Y-118939961D01*
X80708164Y-118962051D01*
X80804812Y-118981275D01*
X80901459Y-119000500D01*
X80901460Y-119000500D01*
X81098540Y-119000500D01*
X108095580Y-119000500D01*
X115625801Y-126530721D01*
X115682315Y-126636450D01*
X115813590Y-126796410D01*
X115973550Y-126927685D01*
X116156046Y-127025232D01*
X116354066Y-127085300D01*
X116560000Y-127105583D01*
X116765934Y-127085300D01*
X116963954Y-127025232D01*
X117146450Y-126927685D01*
X117306410Y-126796410D01*
X117437685Y-126636450D01*
X117535232Y-126453954D01*
X117595300Y-126255934D01*
X117615583Y-126050000D01*
X117595300Y-125844066D01*
X117535232Y-125646046D01*
X117437685Y-125463550D01*
X117306410Y-125303590D01*
X117146450Y-125172315D01*
X117040721Y-125115801D01*
X109287141Y-117362221D01*
X109287139Y-117362218D01*
X109147782Y-117222861D01*
X108983914Y-117113368D01*
X108855165Y-117060038D01*
X108801836Y-117037949D01*
X108705188Y-117018724D01*
X108613568Y-117000500D01*
X109539996Y-117000500D01*
X118099500Y-125560004D01*
X118099500Y-125729344D01*
X118064700Y-125844066D01*
X118044417Y-126050000D01*
X118064700Y-126255934D01*
X118124768Y-126453954D01*
X118222315Y-126636450D01*
X118353590Y-126796410D01*
X118513550Y-126927685D01*
X118696046Y-127025232D01*
X118894066Y-127085300D01*
X119100000Y-127105583D01*
X119305934Y-127085300D01*
X119503954Y-127025232D01*
X119686450Y-126927685D01*
X119846410Y-126796410D01*
X119977685Y-126636450D01*
X120075232Y-126453954D01*
X120135300Y-126255934D01*
X120155583Y-126050000D01*
X120135300Y-125844066D01*
X120100500Y-125729344D01*
X120100500Y-125047043D01*
X120092648Y-125007568D01*
X120639500Y-125554420D01*
X120639500Y-125729344D01*
X120604700Y-125844066D01*
X120584417Y-126050000D01*
X120604700Y-126255934D01*
X120664768Y-126453954D01*
X120762315Y-126636450D01*
X120893590Y-126796410D01*
X121053550Y-126927685D01*
X121236046Y-127025232D01*
X121434066Y-127085300D01*
X121640000Y-127105583D01*
X121845934Y-127085300D01*
X122043954Y-127025232D01*
X122226450Y-126927685D01*
X122386410Y-126796410D01*
X122517685Y-126636450D01*
X122615232Y-126453954D01*
X122675300Y-126255934D01*
X122695583Y-126050000D01*
X122675300Y-125844066D01*
X122640500Y-125729344D01*
X122640500Y-125041459D01*
X122604847Y-124862219D01*
X122602051Y-124848164D01*
X122579961Y-124794834D01*
X122526632Y-124666086D01*
X122417139Y-124502218D01*
X122277782Y-124362861D01*
X122277781Y-124362860D01*
X112590500Y-114675579D01*
X112590500Y-113250500D01*
X112659748Y-113250500D01*
X112718231Y-113238867D01*
X112784552Y-113194552D01*
X112828867Y-113128231D01*
X112840500Y-113069748D01*
X112840500Y-112000000D01*
X112874723Y-112000000D01*
X112893793Y-112217977D01*
X112950425Y-112429330D01*
X113042898Y-112627639D01*
X113129500Y-112751319D01*
X113129500Y-114699379D01*
X113129500Y-114896459D01*
X113167949Y-115089755D01*
X113190038Y-115143084D01*
X113243368Y-115271833D01*
X113352861Y-115435701D01*
X113492218Y-115575058D01*
X113492220Y-115575059D01*
X123179500Y-125262339D01*
X123179500Y-125729344D01*
X123144700Y-125844066D01*
X123124417Y-126050000D01*
X123144700Y-126255934D01*
X123204768Y-126453954D01*
X123302315Y-126636450D01*
X123433590Y-126796410D01*
X123593550Y-126927685D01*
X123776046Y-127025232D01*
X123974066Y-127085300D01*
X124180000Y-127105583D01*
X124385934Y-127085300D01*
X124583954Y-127025232D01*
X124766450Y-126927685D01*
X124926410Y-126796410D01*
X125057685Y-126636450D01*
X125155232Y-126453954D01*
X125215300Y-126255934D01*
X125235583Y-126050000D01*
X125664417Y-126050000D01*
X125684700Y-126255934D01*
X125744768Y-126453954D01*
X125842315Y-126636450D01*
X125973590Y-126796410D01*
X126133550Y-126927685D01*
X126316046Y-127025232D01*
X126514066Y-127085300D01*
X126720000Y-127105583D01*
X126925934Y-127085300D01*
X127123954Y-127025232D01*
X127306450Y-126927685D01*
X127466410Y-126796410D01*
X127597685Y-126636450D01*
X127695232Y-126453954D01*
X127755300Y-126255934D01*
X127775583Y-126050000D01*
X128204417Y-126050000D01*
X128224700Y-126255934D01*
X128284768Y-126453954D01*
X128382315Y-126636450D01*
X128513590Y-126796410D01*
X128673550Y-126927685D01*
X128856046Y-127025232D01*
X129054066Y-127085300D01*
X129260000Y-127105583D01*
X129465934Y-127085300D01*
X129663954Y-127025232D01*
X129846450Y-126927685D01*
X130006410Y-126796410D01*
X130137685Y-126636450D01*
X130235232Y-126453954D01*
X130295300Y-126255934D01*
X130315583Y-126050000D01*
X130744417Y-126050000D01*
X130764700Y-126255934D01*
X130824768Y-126453954D01*
X130922315Y-126636450D01*
X131053590Y-126796410D01*
X131213550Y-126927685D01*
X131396046Y-127025232D01*
X131594066Y-127085300D01*
X131800000Y-127105583D01*
X132005934Y-127085300D01*
X132203954Y-127025232D01*
X132386450Y-126927685D01*
X132546410Y-126796410D01*
X132677685Y-126636450D01*
X132775232Y-126453954D01*
X132795325Y-126387714D01*
X133300955Y-125882084D01*
X133284417Y-126050000D01*
X133304700Y-126255934D01*
X133364768Y-126453954D01*
X133462315Y-126636450D01*
X133593590Y-126796410D01*
X133753550Y-126927685D01*
X133936046Y-127025232D01*
X134134066Y-127085300D01*
X134340000Y-127105583D01*
X134545934Y-127085300D01*
X134743954Y-127025232D01*
X134926450Y-126927685D01*
X135086410Y-126796410D01*
X135217685Y-126636450D01*
X135315232Y-126453954D01*
X135332893Y-126395730D01*
X135840345Y-125888278D01*
X135824417Y-126050000D01*
X135844700Y-126255934D01*
X135904768Y-126453954D01*
X136002315Y-126636450D01*
X136133590Y-126796410D01*
X136293550Y-126927685D01*
X136476046Y-127025232D01*
X136674066Y-127085300D01*
X136880000Y-127105583D01*
X137085934Y-127085300D01*
X137283954Y-127025232D01*
X137466450Y-126927685D01*
X137626410Y-126796410D01*
X137757685Y-126636450D01*
X137855232Y-126453954D01*
X137915300Y-126255934D01*
X137935583Y-126050000D01*
X138364417Y-126050000D01*
X138384700Y-126255934D01*
X138444768Y-126453954D01*
X138542315Y-126636450D01*
X138673590Y-126796410D01*
X138833550Y-126927685D01*
X139016046Y-127025232D01*
X139214066Y-127085300D01*
X139420000Y-127105583D01*
X139625934Y-127085300D01*
X139823954Y-127025232D01*
X140006450Y-126927685D01*
X140166410Y-126796410D01*
X140297685Y-126636450D01*
X140395232Y-126453954D01*
X140455300Y-126255934D01*
X140475583Y-126050000D01*
X140455300Y-125844066D01*
X140395232Y-125646046D01*
X140297685Y-125463550D01*
X140166410Y-125303590D01*
X140006450Y-125172315D01*
X139823954Y-125074768D01*
X139625934Y-125014700D01*
X139420000Y-124994417D01*
X139214066Y-125014700D01*
X139016046Y-125074768D01*
X138833550Y-125172315D01*
X138673590Y-125303590D01*
X138542315Y-125463550D01*
X138444768Y-125646046D01*
X138384700Y-125844066D01*
X138364417Y-126050000D01*
X137935583Y-126050000D01*
X137915300Y-125844066D01*
X137855232Y-125646046D01*
X137757685Y-125463550D01*
X137626410Y-125303590D01*
X137466450Y-125172315D01*
X137283954Y-125074768D01*
X137085934Y-125014700D01*
X136880000Y-124994417D01*
X136718278Y-125010345D01*
X138728124Y-123000500D01*
X145585580Y-123000500D01*
X150352219Y-127767140D01*
X150516086Y-127876632D01*
X150698165Y-127952052D01*
X150859389Y-127984121D01*
X150891459Y-127990500D01*
X150891460Y-127990500D01*
X151088541Y-127990500D01*
X157708466Y-127990500D01*
X157905546Y-127990500D01*
X157905547Y-127990500D01*
X158002194Y-127971275D01*
X158098842Y-127952051D01*
X158164351Y-127924916D01*
X158280920Y-127876632D01*
X158444788Y-127767139D01*
X158584145Y-127627782D01*
X158584146Y-127627779D01*
X168711427Y-117500500D01*
X182421460Y-117500500D01*
X182618540Y-117500500D01*
X182618541Y-117500500D01*
X182715188Y-117481275D01*
X182811836Y-117462051D01*
X182877654Y-117434788D01*
X182993914Y-117386632D01*
X183157782Y-117277139D01*
X183297139Y-117137782D01*
X183297141Y-117137778D01*
X186097778Y-114337141D01*
X186097782Y-114337139D01*
X186237139Y-114197782D01*
X186346632Y-114033914D01*
X186422051Y-113851835D01*
X186460500Y-113658541D01*
X186460500Y-112751319D01*
X186547102Y-112627639D01*
X186639575Y-112429330D01*
X186696207Y-112217977D01*
X186715277Y-112000000D01*
X186696207Y-111782023D01*
X186639575Y-111570670D01*
X186547102Y-111372362D01*
X186421598Y-111193123D01*
X186266877Y-111038402D01*
X186087639Y-110912898D01*
X185889330Y-110820425D01*
X185677977Y-110763793D01*
X185460000Y-110744723D01*
X185242023Y-110763793D01*
X185030670Y-110820425D01*
X184832362Y-110912898D01*
X184653123Y-111038402D01*
X184498402Y-111193123D01*
X184372898Y-111372362D01*
X184280425Y-111570670D01*
X184223793Y-111782023D01*
X184204723Y-112000000D01*
X184223793Y-112217977D01*
X184280425Y-112429330D01*
X184372898Y-112627639D01*
X184459500Y-112751319D01*
X184459500Y-113145580D01*
X182105580Y-115499500D01*
X168198465Y-115499500D01*
X168101818Y-115518724D01*
X168005170Y-115537949D01*
X167951840Y-115560038D01*
X167823092Y-115613368D01*
X167659224Y-115722861D01*
X167519867Y-115862218D01*
X167519864Y-115862221D01*
X167362221Y-116019864D01*
X167362218Y-116019867D01*
X157392586Y-125989500D01*
X151404421Y-125989500D01*
X146777140Y-121362220D01*
X146777139Y-121362218D01*
X146637782Y-121222861D01*
X146473914Y-121113368D01*
X146345165Y-121060038D01*
X146291836Y-121037949D01*
X146195188Y-121018724D01*
X146098541Y-120999500D01*
X138215163Y-120999500D01*
X138175687Y-121007352D01*
X139182540Y-120000500D01*
X149011460Y-120000500D01*
X149208540Y-120000500D01*
X149208541Y-120000500D01*
X149305188Y-119981275D01*
X149401836Y-119962051D01*
X149455165Y-119939961D01*
X149583914Y-119886632D01*
X149747782Y-119777139D01*
X149887139Y-119637782D01*
X149887141Y-119637778D01*
X151154668Y-118370252D01*
X151519500Y-118370252D01*
X151519500Y-120209748D01*
X151531133Y-120268231D01*
X151575448Y-120334552D01*
X151641769Y-120378867D01*
X151700252Y-120390500D01*
X156139748Y-120390500D01*
X156198231Y-120378867D01*
X156264552Y-120334552D01*
X156308867Y-120268231D01*
X156320500Y-120209748D01*
X156320500Y-118370252D01*
X156308867Y-118311769D01*
X156264552Y-118245448D01*
X156198231Y-118201133D01*
X156139748Y-118189500D01*
X151700252Y-118189500D01*
X151641769Y-118201133D01*
X151575448Y-118245448D01*
X151531133Y-118311769D01*
X151519500Y-118370252D01*
X151154668Y-118370252D01*
X152024420Y-117500500D01*
X164401460Y-117500500D01*
X164598540Y-117500500D01*
X164598541Y-117500500D01*
X164695188Y-117481275D01*
X164791836Y-117462051D01*
X164857654Y-117434788D01*
X164973914Y-117386632D01*
X165137782Y-117277139D01*
X165277139Y-117137782D01*
X165277140Y-117137779D01*
X167737139Y-114677782D01*
X167778363Y-114616086D01*
X167846632Y-114513914D01*
X167922051Y-114331835D01*
X167922516Y-114329500D01*
X167960500Y-114138541D01*
X167960500Y-113941460D01*
X167960500Y-112751319D01*
X168047102Y-112627639D01*
X168139575Y-112429330D01*
X168196207Y-112217977D01*
X168215277Y-112000000D01*
X168196207Y-111782023D01*
X168139575Y-111570670D01*
X168047102Y-111372362D01*
X167921598Y-111193123D01*
X167766877Y-111038402D01*
X167612423Y-110930252D01*
X172419500Y-110930252D01*
X172419500Y-113069748D01*
X172431133Y-113128231D01*
X172475448Y-113194552D01*
X172541769Y-113238867D01*
X172600252Y-113250500D01*
X174739748Y-113250500D01*
X174798231Y-113238867D01*
X174864552Y-113194552D01*
X174908867Y-113128231D01*
X174920500Y-113069748D01*
X174920500Y-112000000D01*
X174954723Y-112000000D01*
X174973793Y-112217977D01*
X175030425Y-112429330D01*
X175122898Y-112627639D01*
X175248402Y-112806877D01*
X175403123Y-112961598D01*
X175582361Y-113087102D01*
X175780670Y-113179575D01*
X175992023Y-113236207D01*
X176210000Y-113255277D01*
X176427977Y-113236207D01*
X176639330Y-113179575D01*
X176837639Y-113087102D01*
X177016877Y-112961598D01*
X177171598Y-112806877D01*
X177297102Y-112627639D01*
X177389575Y-112429330D01*
X177446207Y-112217977D01*
X177465277Y-112000000D01*
X177446207Y-111782023D01*
X177389575Y-111570670D01*
X177297102Y-111372362D01*
X177171598Y-111193123D01*
X177016877Y-111038402D01*
X176862423Y-110930252D01*
X181669500Y-110930252D01*
X181669500Y-113069748D01*
X181681133Y-113128231D01*
X181725448Y-113194552D01*
X181791769Y-113238867D01*
X181850252Y-113250500D01*
X183989748Y-113250500D01*
X184048231Y-113238867D01*
X184114552Y-113194552D01*
X184158867Y-113128231D01*
X184170500Y-113069748D01*
X184170500Y-110930252D01*
X184158867Y-110871769D01*
X184114552Y-110805448D01*
X184048231Y-110761133D01*
X183989748Y-110749500D01*
X181850252Y-110749500D01*
X181791769Y-110761133D01*
X181725448Y-110805448D01*
X181681133Y-110871769D01*
X181669500Y-110930252D01*
X176862423Y-110930252D01*
X176837639Y-110912898D01*
X176639330Y-110820425D01*
X176427977Y-110763793D01*
X176210000Y-110744723D01*
X175992023Y-110763793D01*
X175780670Y-110820425D01*
X175582362Y-110912898D01*
X175403123Y-111038402D01*
X175248402Y-111193123D01*
X175122898Y-111372362D01*
X175030425Y-111570670D01*
X174973793Y-111782023D01*
X174954723Y-112000000D01*
X174920500Y-112000000D01*
X174920500Y-110930252D01*
X174908867Y-110871769D01*
X174864552Y-110805448D01*
X174798231Y-110761133D01*
X174739748Y-110749500D01*
X172600252Y-110749500D01*
X172541769Y-110761133D01*
X172475448Y-110805448D01*
X172431133Y-110871769D01*
X172419500Y-110930252D01*
X167612423Y-110930252D01*
X167587639Y-110912898D01*
X167389330Y-110820425D01*
X167177977Y-110763793D01*
X166960000Y-110744723D01*
X166742023Y-110763793D01*
X166530670Y-110820425D01*
X166332362Y-110912898D01*
X166153123Y-111038402D01*
X165998402Y-111193123D01*
X165872898Y-111372362D01*
X165780425Y-111570670D01*
X165723793Y-111782023D01*
X165704723Y-112000000D01*
X165723793Y-112217977D01*
X165780425Y-112429330D01*
X165872898Y-112627639D01*
X165959500Y-112751319D01*
X165959500Y-113625579D01*
X164085580Y-115499500D01*
X151511459Y-115499500D01*
X151414812Y-115518724D01*
X151318164Y-115537949D01*
X151264834Y-115560038D01*
X151136086Y-115613368D01*
X150972218Y-115722861D01*
X150832861Y-115862218D01*
X150832858Y-115862221D01*
X148695580Y-117999500D01*
X138669579Y-117999500D01*
X138572932Y-118018724D01*
X138476284Y-118037949D01*
X138422954Y-118060038D01*
X138294206Y-118113368D01*
X138130338Y-118222861D01*
X137990981Y-118362218D01*
X137990978Y-118362221D01*
X131162221Y-125190978D01*
X131162218Y-125190981D01*
X131022861Y-125330338D01*
X130984400Y-125387897D01*
X130922315Y-125463550D01*
X130824768Y-125646046D01*
X130764700Y-125844066D01*
X130744417Y-126050000D01*
X130315583Y-126050000D01*
X130295300Y-125844066D01*
X130260500Y-125729344D01*
X130260500Y-125262339D01*
X138522339Y-117000500D01*
X148401460Y-117000500D01*
X148598540Y-117000500D01*
X148598541Y-117000500D01*
X148695188Y-116981275D01*
X148791836Y-116962051D01*
X148850428Y-116937781D01*
X148973914Y-116886632D01*
X149137782Y-116777139D01*
X149277139Y-116637782D01*
X149277140Y-116637779D01*
X151907140Y-114007781D01*
X152016632Y-113843914D01*
X152092052Y-113661835D01*
X152130500Y-113468540D01*
X152130500Y-113271459D01*
X152130500Y-112751319D01*
X152217102Y-112627639D01*
X152309575Y-112429330D01*
X152366207Y-112217977D01*
X152385277Y-112000000D01*
X152366207Y-111782023D01*
X152309575Y-111570670D01*
X152217102Y-111372362D01*
X152091598Y-111193123D01*
X151936877Y-111038402D01*
X151782423Y-110930252D01*
X156589500Y-110930252D01*
X156589500Y-113069748D01*
X156601133Y-113128231D01*
X156645448Y-113194552D01*
X156711769Y-113238867D01*
X156770252Y-113250500D01*
X158909748Y-113250500D01*
X158968231Y-113238867D01*
X159034552Y-113194552D01*
X159078867Y-113128231D01*
X159090500Y-113069748D01*
X159090500Y-110930252D01*
X163169500Y-110930252D01*
X163169500Y-113069748D01*
X163181133Y-113128231D01*
X163225448Y-113194552D01*
X163291769Y-113238867D01*
X163350252Y-113250500D01*
X165489748Y-113250500D01*
X165548231Y-113238867D01*
X165614552Y-113194552D01*
X165658867Y-113128231D01*
X165670500Y-113069748D01*
X165670500Y-110930252D01*
X165658867Y-110871769D01*
X165614552Y-110805448D01*
X165548231Y-110761133D01*
X165489748Y-110749500D01*
X163350252Y-110749500D01*
X163291769Y-110761133D01*
X163225448Y-110805448D01*
X163181133Y-110871769D01*
X163169500Y-110930252D01*
X159090500Y-110930252D01*
X159078867Y-110871769D01*
X159034552Y-110805448D01*
X158968231Y-110761133D01*
X158909748Y-110749500D01*
X156770252Y-110749500D01*
X156711769Y-110761133D01*
X156645448Y-110805448D01*
X156601133Y-110871769D01*
X156589500Y-110930252D01*
X151782423Y-110930252D01*
X151757639Y-110912898D01*
X151559330Y-110820425D01*
X151347977Y-110763793D01*
X151130000Y-110744723D01*
X150912023Y-110763793D01*
X150700670Y-110820425D01*
X150502362Y-110912898D01*
X150323123Y-111038402D01*
X150168402Y-111193123D01*
X150042898Y-111372362D01*
X149950425Y-111570670D01*
X149893793Y-111782023D01*
X149874723Y-112000000D01*
X149893793Y-112217977D01*
X149950425Y-112429330D01*
X150042898Y-112627639D01*
X150129500Y-112751319D01*
X150129500Y-112955579D01*
X148085580Y-114999500D01*
X138009378Y-114999500D01*
X137912731Y-115018724D01*
X137816083Y-115037949D01*
X137762753Y-115060038D01*
X137634005Y-115113368D01*
X137470137Y-115222861D01*
X137330780Y-115362218D01*
X137330777Y-115362221D01*
X128622221Y-124070777D01*
X128622218Y-124070780D01*
X128482861Y-124210137D01*
X128373368Y-124374005D01*
X128321387Y-124499500D01*
X128305461Y-124537949D01*
X128297949Y-124556084D01*
X128259500Y-124749378D01*
X128259500Y-125729344D01*
X128224700Y-125844066D01*
X128204417Y-126050000D01*
X127775583Y-126050000D01*
X127755300Y-125844066D01*
X127720500Y-125729344D01*
X127720500Y-121194420D01*
X133267778Y-115647141D01*
X133267782Y-115647139D01*
X133407139Y-115507782D01*
X133516632Y-115343914D01*
X133592051Y-115161835D01*
X133630500Y-114968541D01*
X133630500Y-112751319D01*
X133717102Y-112627639D01*
X133809575Y-112429330D01*
X133866207Y-112217977D01*
X133885277Y-112000000D01*
X133866207Y-111782023D01*
X133809575Y-111570670D01*
X133717102Y-111372362D01*
X133591598Y-111193123D01*
X133436877Y-111038402D01*
X133282423Y-110930252D01*
X138089500Y-110930252D01*
X138089500Y-113069748D01*
X138101133Y-113128231D01*
X138145448Y-113194552D01*
X138211769Y-113238867D01*
X138270252Y-113250500D01*
X140409748Y-113250500D01*
X140468231Y-113238867D01*
X140534552Y-113194552D01*
X140578867Y-113128231D01*
X140590500Y-113069748D01*
X140590500Y-112000000D01*
X140624723Y-112000000D01*
X140643793Y-112217977D01*
X140700425Y-112429330D01*
X140792898Y-112627639D01*
X140918402Y-112806877D01*
X141073123Y-112961598D01*
X141252361Y-113087102D01*
X141450670Y-113179575D01*
X141662023Y-113236207D01*
X141880000Y-113255277D01*
X142097977Y-113236207D01*
X142309330Y-113179575D01*
X142507639Y-113087102D01*
X142686877Y-112961598D01*
X142841598Y-112806877D01*
X142967102Y-112627639D01*
X143059575Y-112429330D01*
X143116207Y-112217977D01*
X143135277Y-112000000D01*
X143116207Y-111782023D01*
X143059575Y-111570670D01*
X142967102Y-111372362D01*
X142841598Y-111193123D01*
X142686877Y-111038402D01*
X142532423Y-110930252D01*
X147339500Y-110930252D01*
X147339500Y-113069748D01*
X147351133Y-113128231D01*
X147395448Y-113194552D01*
X147461769Y-113238867D01*
X147520252Y-113250500D01*
X149659748Y-113250500D01*
X149718231Y-113238867D01*
X149784552Y-113194552D01*
X149828867Y-113128231D01*
X149840500Y-113069748D01*
X149840500Y-110930252D01*
X149828867Y-110871769D01*
X149784552Y-110805448D01*
X149718231Y-110761133D01*
X149659748Y-110749500D01*
X147520252Y-110749500D01*
X147461769Y-110761133D01*
X147395448Y-110805448D01*
X147351133Y-110871769D01*
X147339500Y-110930252D01*
X142532423Y-110930252D01*
X142507639Y-110912898D01*
X142309330Y-110820425D01*
X142097977Y-110763793D01*
X141880000Y-110744723D01*
X141662023Y-110763793D01*
X141450670Y-110820425D01*
X141252362Y-110912898D01*
X141073123Y-111038402D01*
X140918402Y-111193123D01*
X140792898Y-111372362D01*
X140700425Y-111570670D01*
X140643793Y-111782023D01*
X140624723Y-112000000D01*
X140590500Y-112000000D01*
X140590500Y-110930252D01*
X140578867Y-110871769D01*
X140534552Y-110805448D01*
X140468231Y-110761133D01*
X140409748Y-110749500D01*
X138270252Y-110749500D01*
X138211769Y-110761133D01*
X138145448Y-110805448D01*
X138101133Y-110871769D01*
X138089500Y-110930252D01*
X133282423Y-110930252D01*
X133257639Y-110912898D01*
X133059330Y-110820425D01*
X132847977Y-110763793D01*
X132630000Y-110744723D01*
X132412023Y-110763793D01*
X132200670Y-110820425D01*
X132002362Y-110912898D01*
X131823123Y-111038402D01*
X131668402Y-111193123D01*
X131542898Y-111372362D01*
X131450425Y-111570670D01*
X131393793Y-111782023D01*
X131374723Y-112000000D01*
X131393793Y-112217977D01*
X131450425Y-112429330D01*
X131542898Y-112627639D01*
X131629500Y-112751319D01*
X131629500Y-114455580D01*
X126082221Y-120002858D01*
X126082218Y-120002861D01*
X125942861Y-120142218D01*
X125833368Y-120306086D01*
X125757949Y-120488165D01*
X125719500Y-120681459D01*
X125719500Y-125729344D01*
X125684700Y-125844066D01*
X125664417Y-126050000D01*
X125235583Y-126050000D01*
X125215300Y-125844066D01*
X125180500Y-125729344D01*
X125180500Y-124749378D01*
X125142051Y-124556084D01*
X125134539Y-124537949D01*
X125118613Y-124499500D01*
X125066632Y-124374005D01*
X124957139Y-124210137D01*
X124817782Y-124070780D01*
X124817781Y-124070779D01*
X115130500Y-114383498D01*
X115130500Y-112751319D01*
X115217102Y-112627639D01*
X115309575Y-112429330D01*
X115366207Y-112217977D01*
X115385277Y-112000000D01*
X115366207Y-111782023D01*
X115309575Y-111570670D01*
X115217102Y-111372362D01*
X115091598Y-111193123D01*
X114936877Y-111038402D01*
X114782423Y-110930252D01*
X119629500Y-110930252D01*
X119629500Y-113069748D01*
X119641133Y-113128231D01*
X119685448Y-113194552D01*
X119751769Y-113238867D01*
X119810252Y-113250500D01*
X121949748Y-113250500D01*
X122008231Y-113238867D01*
X122074552Y-113194552D01*
X122118867Y-113128231D01*
X122130500Y-113069748D01*
X122130500Y-112000000D01*
X122164723Y-112000000D01*
X122183793Y-112217977D01*
X122240425Y-112429330D01*
X122332898Y-112627639D01*
X122458402Y-112806877D01*
X122613123Y-112961598D01*
X122792361Y-113087102D01*
X122990670Y-113179575D01*
X123202023Y-113236207D01*
X123420000Y-113255277D01*
X123637977Y-113236207D01*
X123849330Y-113179575D01*
X124047639Y-113087102D01*
X124226877Y-112961598D01*
X124381598Y-112806877D01*
X124507102Y-112627639D01*
X124599575Y-112429330D01*
X124656207Y-112217977D01*
X124675277Y-112000000D01*
X124656207Y-111782023D01*
X124599575Y-111570670D01*
X124507102Y-111372362D01*
X124381598Y-111193123D01*
X124226877Y-111038402D01*
X124072423Y-110930252D01*
X128839500Y-110930252D01*
X128839500Y-113069748D01*
X128851133Y-113128231D01*
X128895448Y-113194552D01*
X128961769Y-113238867D01*
X129020252Y-113250500D01*
X131159748Y-113250500D01*
X131218231Y-113238867D01*
X131284552Y-113194552D01*
X131328867Y-113128231D01*
X131340500Y-113069748D01*
X131340500Y-110930252D01*
X131328867Y-110871769D01*
X131284552Y-110805448D01*
X131218231Y-110761133D01*
X131159748Y-110749500D01*
X129020252Y-110749500D01*
X128961769Y-110761133D01*
X128895448Y-110805448D01*
X128851133Y-110871769D01*
X128839500Y-110930252D01*
X124072423Y-110930252D01*
X124047639Y-110912898D01*
X123849330Y-110820425D01*
X123637977Y-110763793D01*
X123420000Y-110744723D01*
X123202023Y-110763793D01*
X122990670Y-110820425D01*
X122792362Y-110912898D01*
X122613123Y-111038402D01*
X122458402Y-111193123D01*
X122332898Y-111372362D01*
X122240425Y-111570670D01*
X122183793Y-111782023D01*
X122164723Y-112000000D01*
X122130500Y-112000000D01*
X122130500Y-110930252D01*
X122118867Y-110871769D01*
X122074552Y-110805448D01*
X122008231Y-110761133D01*
X121949748Y-110749500D01*
X119810252Y-110749500D01*
X119751769Y-110761133D01*
X119685448Y-110805448D01*
X119641133Y-110871769D01*
X119629500Y-110930252D01*
X114782423Y-110930252D01*
X114757639Y-110912898D01*
X114559330Y-110820425D01*
X114347977Y-110763793D01*
X114130000Y-110744723D01*
X113912023Y-110763793D01*
X113700670Y-110820425D01*
X113502362Y-110912898D01*
X113323123Y-111038402D01*
X113168402Y-111193123D01*
X113042898Y-111372362D01*
X112950425Y-111570670D01*
X112893793Y-111782023D01*
X112874723Y-112000000D01*
X112840500Y-112000000D01*
X112840500Y-110930252D01*
X112828867Y-110871769D01*
X112784552Y-110805448D01*
X112718231Y-110761133D01*
X112659748Y-110749500D01*
X110520252Y-110749500D01*
X110461769Y-110761133D01*
X110395448Y-110805448D01*
X110351133Y-110871769D01*
X110339500Y-110930252D01*
X110339500Y-113069748D01*
X110351133Y-113128231D01*
X110395448Y-113194552D01*
X110461769Y-113238867D01*
X110520252Y-113250500D01*
X110589500Y-113250500D01*
X110589500Y-115188541D01*
X110597351Y-115228014D01*
X110592198Y-115222861D01*
X110428330Y-115113368D01*
X110299581Y-115060038D01*
X110246252Y-115037949D01*
X110149604Y-115018724D01*
X110052957Y-114999500D01*
X96019497Y-114999500D01*
X94090500Y-113070503D01*
X94090500Y-112751319D01*
X94177102Y-112627639D01*
X94269575Y-112429330D01*
X94326207Y-112217977D01*
X94345277Y-112000000D01*
X96914723Y-112000000D01*
X96933793Y-112217977D01*
X96990425Y-112429330D01*
X97082898Y-112627639D01*
X97208402Y-112806877D01*
X97363123Y-112961598D01*
X97542361Y-113087102D01*
X97740670Y-113179575D01*
X97952023Y-113236207D01*
X98170000Y-113255277D01*
X98387977Y-113236207D01*
X98599330Y-113179575D01*
X98797639Y-113087102D01*
X98976877Y-112961598D01*
X99131598Y-112806877D01*
X99257102Y-112627639D01*
X99349575Y-112429330D01*
X99406207Y-112217977D01*
X99425277Y-112000000D01*
X99406207Y-111782023D01*
X99349575Y-111570670D01*
X99257102Y-111372362D01*
X99131598Y-111193123D01*
X98976877Y-111038402D01*
X98822423Y-110930252D01*
X101049500Y-110930252D01*
X101049500Y-113069748D01*
X101061133Y-113128231D01*
X101105448Y-113194552D01*
X101171769Y-113238867D01*
X101230252Y-113250500D01*
X103369748Y-113250500D01*
X103428231Y-113238867D01*
X103494552Y-113194552D01*
X103538867Y-113128231D01*
X103550500Y-113069748D01*
X103550500Y-110930252D01*
X103538867Y-110871769D01*
X103494552Y-110805448D01*
X103428231Y-110761133D01*
X103369748Y-110749500D01*
X101230252Y-110749500D01*
X101171769Y-110761133D01*
X101105448Y-110805448D01*
X101061133Y-110871769D01*
X101049500Y-110930252D01*
X98822423Y-110930252D01*
X98797639Y-110912898D01*
X98599330Y-110820425D01*
X98387977Y-110763793D01*
X98170000Y-110744723D01*
X97952023Y-110763793D01*
X97740670Y-110820425D01*
X97542362Y-110912898D01*
X97363123Y-111038402D01*
X97208402Y-111193123D01*
X97082898Y-111372362D01*
X96990425Y-111570670D01*
X96933793Y-111782023D01*
X96914723Y-112000000D01*
X94345277Y-112000000D01*
X94326207Y-111782023D01*
X94269575Y-111570670D01*
X94177102Y-111372362D01*
X94051598Y-111193123D01*
X93896877Y-111038402D01*
X93717639Y-110912898D01*
X93519330Y-110820425D01*
X93307977Y-110763793D01*
X93090000Y-110744723D01*
X92872023Y-110763793D01*
X92660670Y-110820425D01*
X92462362Y-110912898D01*
X92283123Y-111038402D01*
X92128402Y-111193123D01*
X92002898Y-111372362D01*
X91910425Y-111570670D01*
X91853793Y-111782023D01*
X91834723Y-112000000D01*
X91853793Y-112217977D01*
X91910425Y-112429330D01*
X92002898Y-112627639D01*
X92089500Y-112751319D01*
X92089500Y-113386384D01*
X92089500Y-113583464D01*
X92127949Y-113776760D01*
X92150038Y-113830089D01*
X92203368Y-113958838D01*
X92312861Y-114122706D01*
X92452218Y-114262063D01*
X92452220Y-114262064D01*
X94967295Y-116777140D01*
X95131162Y-116886632D01*
X95313241Y-116962052D01*
X95501504Y-116999500D01*
X81414421Y-116999500D01*
X79840500Y-115425579D01*
X79840500Y-112751319D01*
X79927102Y-112627639D01*
X80019575Y-112429330D01*
X80076207Y-112217977D01*
X80095277Y-112000000D01*
X80076207Y-111782023D01*
X80019575Y-111570670D01*
X79927102Y-111372362D01*
X79801598Y-111193123D01*
X79646877Y-111038402D01*
X79521340Y-110950500D01*
X83238661Y-110950500D01*
X83113123Y-111038402D01*
X82958402Y-111193123D01*
X82832898Y-111372362D01*
X82740425Y-111570670D01*
X82683793Y-111782023D01*
X82664723Y-112000000D01*
X82683793Y-112217977D01*
X82740425Y-112429330D01*
X82832898Y-112627639D01*
X82958402Y-112806877D01*
X83113123Y-112961598D01*
X83292361Y-113087102D01*
X83490670Y-113179575D01*
X83702023Y-113236207D01*
X83920000Y-113255277D01*
X84137977Y-113236207D01*
X84349330Y-113179575D01*
X84547639Y-113087102D01*
X84726877Y-112961598D01*
X84881598Y-112806877D01*
X85007102Y-112627639D01*
X85099575Y-112429330D01*
X85156207Y-112217977D01*
X85175277Y-112000000D01*
X85156207Y-111782023D01*
X85099575Y-111570670D01*
X85007102Y-111372362D01*
X84881598Y-111193123D01*
X84726877Y-111038402D01*
X84601340Y-110950500D01*
X86759500Y-110950500D01*
X86759500Y-113069748D01*
X86771133Y-113128231D01*
X86815448Y-113194552D01*
X86881769Y-113238867D01*
X86940252Y-113250500D01*
X89079748Y-113250500D01*
X89138231Y-113238867D01*
X89204552Y-113194552D01*
X89248867Y-113128231D01*
X89260500Y-113069748D01*
X89260500Y-110950500D01*
X89549500Y-110950500D01*
X89549500Y-111248681D01*
X89462898Y-111372362D01*
X89370425Y-111570670D01*
X89313793Y-111782023D01*
X89294723Y-112000000D01*
X89313793Y-112217977D01*
X89370425Y-112429330D01*
X89462898Y-112627639D01*
X89588402Y-112806877D01*
X89743123Y-112961598D01*
X89922361Y-113087102D01*
X90120670Y-113179575D01*
X90332023Y-113236207D01*
X90550000Y-113255277D01*
X90767977Y-113236207D01*
X90979330Y-113179575D01*
X91177639Y-113087102D01*
X91356877Y-112961598D01*
X91511598Y-112806877D01*
X91637102Y-112627639D01*
X91729575Y-112429330D01*
X91786207Y-112217977D01*
X91805277Y-112000000D01*
X91786207Y-111782023D01*
X91729575Y-111570670D01*
X91637102Y-111372362D01*
X91550500Y-111248681D01*
X91550500Y-110341459D01*
X91530684Y-110241836D01*
X91512052Y-110148165D01*
X91436632Y-109966086D01*
X91327140Y-109802219D01*
X90837140Y-109312220D01*
X90837139Y-109312218D01*
X90697782Y-109172861D01*
X90533914Y-109063368D01*
X90382136Y-109000500D01*
X101985580Y-109000500D01*
X103839500Y-110854420D01*
X103839500Y-111248681D01*
X103752898Y-111372362D01*
X103660425Y-111570670D01*
X103603793Y-111782023D01*
X103584723Y-112000000D01*
X103603793Y-112217977D01*
X103660425Y-112429330D01*
X103752898Y-112627639D01*
X103878402Y-112806877D01*
X104033123Y-112961598D01*
X104212361Y-113087102D01*
X104410670Y-113179575D01*
X104622023Y-113236207D01*
X104840000Y-113255277D01*
X105057977Y-113236207D01*
X105269330Y-113179575D01*
X105467639Y-113087102D01*
X105646877Y-112961598D01*
X105801598Y-112806877D01*
X105927102Y-112627639D01*
X106019575Y-112429330D01*
X106076207Y-112217977D01*
X106095277Y-112000000D01*
X106076207Y-111782023D01*
X106019575Y-111570670D01*
X105927102Y-111372362D01*
X105840500Y-111248681D01*
X105840500Y-110341459D01*
X105802051Y-110148165D01*
X105726632Y-109966086D01*
X105617139Y-109802218D01*
X105477782Y-109662861D01*
X105477778Y-109662858D01*
X103177141Y-107362221D01*
X103177139Y-107362218D01*
X103037782Y-107222861D01*
X102873914Y-107113368D01*
X102745165Y-107060038D01*
X102691836Y-107037949D01*
X102595188Y-107018724D01*
X102498541Y-106999500D01*
X70901459Y-106999500D01*
X70804812Y-107018724D01*
X70708164Y-107037949D01*
X70654834Y-107060038D01*
X70526086Y-107113368D01*
X70362218Y-107222861D01*
X70222861Y-107362218D01*
X70222858Y-107362221D01*
X68362221Y-109222858D01*
X68362218Y-109222861D01*
X68222861Y-109362218D01*
X68113368Y-109526086D01*
X68102068Y-109553368D01*
X68058660Y-109658165D01*
X68037949Y-109708165D01*
X67999500Y-109901459D01*
X67999500Y-114901460D01*
X67999500Y-115098540D01*
X68025939Y-115231460D01*
X68037949Y-115291835D01*
X68113368Y-115473914D01*
X68222861Y-115637782D01*
X68362218Y-115777139D01*
X68362220Y-115777140D01*
X78722860Y-126137781D01*
X78722861Y-126137782D01*
X78862218Y-126277139D01*
X79026086Y-126386632D01*
X79071626Y-126405495D01*
X79208164Y-126462051D01*
X79401459Y-126500500D01*
X106085580Y-126500500D01*
X112462860Y-132877781D01*
X112462861Y-132877782D01*
X112602218Y-133017139D01*
X112710514Y-133089500D01*
X66750500Y-133089500D01*
X66750500Y-90590500D01*
X200749500Y-90590500D01*
X200749500Y-133089500D01*
G37*
%TD.AperFunction*%
%TD*%
M02*
