M48
; DRILL file {KiCad 8.0.6} date 2025-01-04T02:04:51-0800
; FORMAT={-:-/ absolute / inch / decimal}
; #@! TF.CreationDate,2025-01-04T02:04:51-08:00
; #@! TF.GenerationSoftware,Kicad,Pcbnew,8.0.6
; #@! TF.FileFunction,Plated,1,4,PTH
FMAT,2
INCH
; #@! TA.AperFunction,Plated,PTH,ViaDrill
T1C0.0157
; #@! TA.AperFunction,Plated,PTH,ComponentDrill
T2C0.0236
; #@! TA.AperFunction,Plated,PTH,ComponentDrill
T3C0.0315
; #@! TA.AperFunction,Plated,PTH,ComponentDrill
T4C0.0374
; #@! TA.AperFunction,Plated,PTH,ComponentDrill
T5C0.0394
; #@! TA.AperFunction,Plated,PTH,ComponentDrill
T6C0.0400
; #@! TA.AperFunction,Plated,PTH,ComponentDrill
T7C0.0402
; #@! TA.AperFunction,Plated,PTH,ComponentDrill
T8C0.0598
; #@! TA.AperFunction,Plated,PTH,ComponentDrill
T9C0.0630
; #@! TA.AperFunction,Plated,PTH,ComponentDrill
T10C0.1969
%
G90
G05
T1
X2.4693Y-3.7374
X2.4693Y-3.7669
X2.4693Y-3.7965
X2.4693Y-3.826
X2.4693Y-3.8555
X2.4693Y-3.885
X2.4693Y-3.9146
X2.4693Y-3.9441
X2.4693Y-3.9736
X2.4693Y-4.0031
X2.4693Y-4.0327
X2.4693Y-4.0622
X2.4988Y-3.7965
X2.5185Y-2.9008
X2.5185Y-2.9303
X2.5185Y-2.9598
X2.5185Y-2.9894
X2.5185Y-3.0189
X2.5185Y-3.0484
X2.5185Y-3.078
X2.5283Y-4.3575
X2.5283Y-4.389
X2.5283Y-4.4165
X2.5283Y-4.4461
X2.5283Y-4.4756
X2.5283Y-4.5051
X2.5283Y-4.5346
X2.548Y-2.9008
X2.548Y-2.9303
X2.548Y-2.9598
X2.548Y-2.9894
X2.548Y-3.0189
X2.548Y-3.0484
X2.548Y-3.078
X2.548Y-3.9539
X2.548Y-3.9835
X2.548Y-4.013
X2.548Y-4.0425
X2.548Y-4.072
X2.5578Y-4.3575
X2.5578Y-4.387
X2.5578Y-4.4165
X2.5578Y-4.4461
X2.5578Y-4.4756
X2.5578Y-4.5051
X2.5578Y-4.5346
X2.5775Y-2.9008
X2.5775Y-2.9303
X2.5775Y-2.9598
X2.5775Y-2.9894
X2.5775Y-3.0189
X2.5775Y-3.0484
X2.5775Y-3.078
X2.5775Y-3.9539
X2.5775Y-3.9835
X2.5775Y-4.013
X2.5775Y-4.0425
X2.5775Y-4.072
X2.5874Y-4.3575
X2.5874Y-4.387
X2.5874Y-4.4165
X2.5874Y-4.4461
X2.5874Y-4.4756
X2.5874Y-4.5051
X2.5874Y-4.5346
X2.607Y-2.9008
X2.607Y-2.9303
X2.607Y-2.9598
X2.607Y-2.9894
X2.607Y-3.0189
X2.607Y-3.0484
X2.607Y-3.078
X2.607Y-3.9539
X2.607Y-3.9835
X2.607Y-4.013
X2.607Y-4.0425
X2.607Y-4.072
X2.6169Y-4.3575
X2.6169Y-4.387
X2.6169Y-4.4165
X2.6169Y-4.4461
X2.6169Y-4.4756
X2.6169Y-4.5051
X2.6169Y-4.5346
X2.6366Y-2.9008
X2.6366Y-2.9303
X2.6366Y-2.9598
X2.6366Y-2.9894
X2.6366Y-3.0189
X2.6366Y-3.0484
X2.6366Y-3.078
X2.6366Y-3.9539
X2.6366Y-3.9835
X2.6366Y-4.013
X2.6366Y-4.0425
X2.6366Y-4.072
X2.6464Y-4.3575
X2.6464Y-4.387
X2.6464Y-4.4165
X2.6464Y-4.4461
X2.6464Y-4.4756
X2.6464Y-4.5051
X2.6464Y-4.5346
X2.6661Y-2.9008
X2.6661Y-2.9303
X2.6661Y-2.9598
X2.6661Y-2.9894
X2.6661Y-3.0189
X2.6661Y-3.0484
X2.6661Y-3.078
X2.6661Y-3.9539
X2.6661Y-3.9835
X2.6661Y-4.013
X2.6661Y-4.0425
X2.6661Y-4.072
X2.6759Y-4.3575
X2.6759Y-4.387
X2.6759Y-4.4165
X2.6759Y-4.4461
X2.6759Y-4.4756
X2.6759Y-4.5051
X2.6759Y-4.5346
X2.6956Y-2.9008
X2.6956Y-2.9303
X2.6956Y-2.9598
X2.6956Y-2.9894
X2.6956Y-3.0189
X2.6956Y-3.0484
X2.6956Y-3.078
X2.7055Y-4.3575
X2.7055Y-4.387
X2.7055Y-4.4165
X2.7055Y-4.4461
X2.7055Y-4.4756
X2.7055Y-4.5051
X2.7055Y-4.5346
X2.9151Y-1.8386
X2.9331Y-2.5197
X2.9924Y-2.5221
X3.0726Y-2.5448
X3.1484Y-5.6764
X3.2955Y-1.8362
X3.3118Y-2.9905
X3.3268Y-2.5197
X3.3821Y-2.5173
X3.4555Y-4.1601
X3.4624Y-2.5464
X3.5618Y-1.7492
X3.6011Y-1.4343
X3.6405Y-1.7098
X3.7035Y-1.8437
X3.7193Y-2.9717
X3.7303Y-2.5197
X3.7808Y-2.5209
X3.7926Y-3.6449
X3.861Y-2.546
X3.9752Y-1.7295
X4.0059Y-3.7669
X4.0893Y-1.8403
X4.113Y-2.9717
X4.1142Y-2.6575
X4.173Y-2.5214
X4.1942Y-3.6488
X4.2532Y-2.5465
X4.2717Y-6.2719
X4.2766Y-4.06
X4.2913Y-5.8169
X4.308Y-4.0617
X4.3209Y-5.8169
X4.3307Y-4.0354
X4.3504Y-5.8169
X4.3799Y-4.0453
X4.3799Y-5.8169
X4.4094Y-3.7669
X4.4094Y-5.8169
X4.4163Y-4.0581
X4.4387Y-4.0817
X4.4594Y-1.8457
X4.4882Y-4.4488
X4.4988Y-2.9693
X4.5118Y-4.3997
X4.5312Y-4.5252
X4.564Y-4.4627
X4.5642Y-2.515
X4.567Y-4.4941
X4.5952Y-1.572
X4.5957Y-3.6449
X4.6484Y-2.5479
X4.7035Y-1.6311
X4.744Y-4.8681
X4.7552Y-4.9677
X4.7552Y-5.1055
X4.7552Y-5.2433
X4.7552Y-5.3811
X4.7552Y-5.5189
X4.7576Y-4.6921
X4.7626Y-4.8299
X4.7626Y-4.5622
X4.813Y-3.7669
X4.829Y-4.9303
X4.829Y-5.0681
X4.829Y-5.3437
X4.829Y-5.4815
X4.8292Y-5.2079
X4.8315Y-4.6547
X4.8364Y-4.7925
X4.8364Y-4.5248
X4.8531Y-3.9657
X4.8807Y-1.8421
X4.9114Y-2.628
X4.9619Y-2.5193
X5.0421Y-2.5444
X5.1169Y-4.6724
X5.1169Y-4.8102
X5.1169Y-4.948
X5.1169Y-5.0858
X5.1169Y-5.2236
X5.1169Y-5.3614
X5.1169Y-5.4972
X5.1169Y-5.637
X5.1194Y-4.5327
X5.1721Y-3.6713
X5.1907Y-4.635
X5.1907Y-4.7728
X5.1907Y-4.9106
X5.1907Y-5.0484
X5.1907Y-5.1862
X5.1907Y-5.324
X5.1907Y-5.4598
X5.1907Y-5.5996
X5.1932Y-4.4953
X5.2586Y-1.8378
X5.2685Y-2.9917
X5.2953Y-2.5197
X5.3236Y-2.8614
X5.3534Y-2.5167
X5.4319Y-2.5415
X5.4752Y-3.9539
X5.5582Y-3.2331
X5.5598Y-2.8417
X5.5936Y-2.4754
X5.5992Y-3.5602
X5.6016Y-2.1528
X5.6129Y-2.9689
X5.6595Y-3.7519
X5.6627Y-3.5583
X5.6627Y-2.7709
X5.6627Y-2.9677
X5.6627Y-3.1646
X5.6627Y-3.3614
X5.6634Y-3.9527
X5.7074Y-3.6783
X5.7271Y-3.0681
X5.737Y-2.8713
X5.7445Y-3.8729
X5.7468Y-3.2531
X5.7567Y-3.4717
X5.7567Y-3.6587
X5.7862Y-3.2846
X5.9732Y-5.0858
X6.1228Y-1.9815
X6.1228Y-2.1815
X6.1228Y-2.3815
X6.1228Y-2.5815
X6.1252Y-1.8713
X6.1319Y-2.4803
X6.3078Y-1.9165
X6.3585Y-2.0799
X6.3585Y-2.4815
X6.4161Y-2.6055
X6.5204Y-2.3909
X6.6149Y-3.1488
X6.6228Y-2.0051
X6.6288Y-2.5995
X6.6307Y-2.9894
X6.6326Y-2.7925
X6.6425Y-3.1862
X6.6425Y-3.5799
X6.6523Y-3.3142
X6.6523Y-3.3831
X6.6523Y-3.7768
X6.6523Y-3.9736
X6.6622Y-2.8417
X6.672Y-3.639
X6.6819Y-3.4323
X6.7311Y-4.0524
X6.7704Y-2.0248
X6.7901Y-2.9697
X6.7901Y-3.7571
X6.8438Y-2.7709
X6.8438Y-3.1646
X6.8438Y-3.5583
X6.8438Y-2.9677
X6.8438Y-3.3614
X6.8438Y-3.952
X6.8438Y-3.7551
X6.8787Y-1.9815
X6.8787Y-2.1815
X6.8787Y-2.2815
X6.8787Y-2.3815
X6.8787Y-2.5815
X6.94Y-1.885
X7.0067Y-1.885
X7.0165Y-1.828
X7.1105Y-2.4815
X7.1346Y-2.5563
X7.361Y-2.8713
X7.3819Y-1.3386
X7.3905Y-1.9854
X7.4102Y-1.3386
X7.4242Y-2.2356
X7.4378Y-2.3791
X7.4409Y-1.3386
X7.4606Y-1.3878
X7.4606Y-1.4862
X7.4705Y-1.3386
X7.4902Y-1.378
X7.5Y-1.3386
X7.5197Y-1.378
X7.5295Y-1.3386
X7.5492Y-1.3878
X7.5591Y-1.3386
X7.5591Y-1.4862
X7.5677Y-3.4126
X7.607Y-2.8713
X7.6346Y-1.9815
X7.6346Y-2.3815
X7.6346Y-2.4815
X7.6346Y-2.5815
X7.6366Y-2.1815
X7.7438Y-1.7798
X7.8236Y-2.7925
X7.8334Y-2.9894
X7.8334Y-3.1862
X7.8728Y-4.0524
X7.8851Y-2.5026
X7.8984Y-3.6744
X7.9122Y-2.5858
X7.9122Y-3.2748
X7.9417Y-1.7591
X8.0204Y-2.7707
X8.0204Y-2.9677
X8.0224Y-3.1646
X8.0322Y-2.1854
X8.0696Y-2.8713
X8.0794Y-3.0579
X8.1102Y-2.0374
X8.1102Y-2.0768
X8.1102Y-2.1752
X8.1189Y-1.7492
X8.1189Y-1.9559
X8.1299Y-2.0571
X8.1398Y-2.0276
X8.1398Y-2.185
X8.2276Y-3.2431
X8.248Y-1.8701
X8.248Y-1.8996
X8.248Y-1.9291
X8.248Y-2.2047
X8.248Y-2.2343
X8.248Y-2.2638
X8.248Y-2.2933
X8.2579Y-2.0669
X8.2776Y-1.8701
X8.2776Y-1.8996
X8.2776Y-2.2835
X8.2874Y-2.0768
X8.3071Y-1.8701
X8.3905Y-1.9854
X8.3905Y-2.1854
X8.3905Y-2.3854
X8.3905Y-2.4854
X8.3905Y-2.5854
T2
X2.5441Y-1.4953
X2.5441Y-5.6016
X2.5873Y-1.3909
X2.5873Y-1.5997
X2.5873Y-5.4972
X2.5873Y-5.706
X2.6917Y-1.3476
X2.6917Y-1.6429
X2.6917Y-5.4539
X2.6917Y-5.7492
X2.7961Y-1.3909
X2.7961Y-1.5997
X2.7961Y-5.4972
X2.7961Y-5.706
X2.8393Y-1.4953
X2.8393Y-5.6016
X8.3472Y-1.4953
X8.3472Y-5.6016
X8.3904Y-1.3909
X8.3904Y-1.5997
X8.3904Y-5.4972
X8.3904Y-5.706
X8.4948Y-1.3476
X8.4948Y-1.6429
X8.4948Y-5.4539
X8.4948Y-5.7492
X8.5992Y-1.3909
X8.5992Y-1.5997
X8.5992Y-5.4972
X8.5992Y-5.706
X8.6425Y-1.4953
X8.6425Y-5.6016
T4
X5.046Y-1.4047
X5.1444Y-1.4047
X5.2429Y-1.4047
X5.3413Y-1.4047
T5
X3.8791Y-1.4323
X3.8791Y-1.5323
X3.9791Y-1.4323
X3.9791Y-1.5323
X4.0791Y-1.4323
X4.0791Y-1.5323
X4.1791Y-1.4323
X4.1791Y-1.5323
X4.2791Y-1.4323
X4.2791Y-1.5323
X4.3791Y-1.4323
X4.3791Y-1.5323
X4.4791Y-1.4323
X4.4791Y-1.5323
X6.8067Y-1.437
X6.8067Y-1.537
X6.9067Y-1.437
X6.9067Y-1.537
X7.0067Y-1.437
X7.0067Y-1.537
X7.1067Y-1.437
X7.1067Y-1.537
X7.2067Y-1.437
X7.2067Y-1.537
X7.3067Y-1.437
X7.3067Y-1.537
X7.4067Y-1.437
X7.4067Y-1.537
X7.5067Y-1.437
X7.5067Y-1.537
X7.6067Y-1.437
X7.6067Y-1.537
X7.7067Y-1.437
X7.7067Y-1.537
T6
X4.9203Y-4.4614
X4.9203Y-4.5614
X4.9203Y-4.6614
X4.9203Y-4.7614
X4.9203Y-4.8614
X4.9203Y-4.9614
X4.9203Y-5.0614
X4.9203Y-5.1614
X4.9203Y-5.2614
X4.9203Y-5.3614
X4.9203Y-5.4614
X4.9203Y-5.5614
X4.9203Y-5.6614
X4.9203Y-5.7614
X4.9203Y-5.8614
X4.9203Y-5.9614
X4.9203Y-6.0614
X4.9203Y-6.1614
X5.0203Y-4.4614
X5.0203Y-4.5614
X5.0203Y-4.6614
X5.0203Y-4.7614
X5.0203Y-4.8614
X5.0203Y-4.9614
X5.0203Y-5.0614
X5.0203Y-5.1614
X5.0203Y-5.2614
X5.0203Y-5.3614
X5.0203Y-5.4614
X5.0203Y-5.5614
X5.0203Y-5.6614
X5.0203Y-5.7614
X5.0203Y-5.8614
X5.0203Y-5.9614
X5.0203Y-6.0614
X5.0203Y-6.1614
X5.1203Y-4.2614
X5.2203Y-4.2614
X5.3203Y-4.2614
X5.3203Y-6.1614
X5.4203Y-4.2614
X5.4203Y-6.1614
X5.5203Y-4.2614
X5.5203Y-6.1614
X5.6203Y-4.2614
X5.6203Y-6.1614
X5.7203Y-4.2614
X5.7203Y-6.1614
X5.8203Y-4.2614
X5.8203Y-6.1614
X5.9203Y-6.1614
X6.0203Y-4.2614
X6.0203Y-6.1614
X6.1153Y-5.1614
X6.1153Y-5.2614
X6.1153Y-5.3614
X6.1203Y-4.2614
X6.2153Y-5.1614
X6.2153Y-5.2614
X6.2153Y-5.3614
X6.2203Y-4.2614
X6.2203Y-6.1614
X6.3203Y-4.2614
X6.3203Y-6.1614
X6.4203Y-4.2614
X6.4203Y-6.1614
X6.5203Y-4.2614
X6.5203Y-6.1614
X6.6203Y-4.2614
X6.6203Y-6.1614
X6.7203Y-4.2614
X6.7203Y-6.1614
X6.8203Y-6.1614
X6.9203Y-4.2614
X6.9203Y-6.1614
X7.0203Y-4.2614
X7.0803Y-6.1614
X7.1203Y-4.2614
X7.1803Y-6.1614
X7.2203Y-4.2614
X7.2803Y-6.1614
X7.3203Y-4.2614
X7.3803Y-6.1614
X7.4203Y-4.2614
X7.4803Y-6.1614
X7.5203Y-4.2614
X7.5803Y-6.1614
X7.6203Y-4.2614
X7.6803Y-6.1614
X7.7803Y-6.1614
X7.8803Y-6.1614
X7.9803Y-6.1614
T8
X5.9138Y-1.4272
X6.1138Y-1.4272
T9
X3.0303Y-1.513
X3.4929Y-2.9205
X3.7094Y-4.6035
X7.7862Y-3.3378
X7.7862Y-3.6173
X7.7901Y-3.889
X7.985Y-3.3378
X7.985Y-3.6173
X7.9889Y-3.889
X8.1838Y-3.3378
X8.1838Y-3.6173
X8.1878Y-3.889
X8.3826Y-3.3378
X8.3826Y-3.6173
X8.3866Y-3.889
X8.5815Y-3.3378
X8.5815Y-3.6173
X8.5854Y-3.889
T10
X2.6917Y-1.4953
X2.6917Y-5.6016
X8.4948Y-1.4953
X8.4948Y-5.6016
T3
G00X2.7783Y-5.1094
M15
G01X2.7783Y-5.1961
M16
G05
G00X2.8452Y-5.3417
M15
G01X2.9319Y-5.3417
M16
G05
G00X3.0067Y-5.1016
M15
G01X3.0067Y-5.2039
M16
G05
T7
G00X2.6383Y-1.7862
M15
G01X2.5718Y-1.7862
M16
G05
G00X2.6218Y-2.0724
M15
G01X2.5883Y-2.0724
M16
G05
G00X2.6218Y-2.4299
M15
G01X2.5883Y-2.4299
M16
G05
G00X2.6383Y-2.7161
M15
G01X2.5718Y-2.7161
M16
G05
M30
