%TF.GenerationSoftware,KiCad,Pcbnew,8.0.6*%
%TF.CreationDate,2025-01-04T02:04:51-08:00*%
%TF.ProjectId,MEP-MAXI-85V-1-REV-2-Interface-Board,4d45502d-4d41-4584-992d-3835562d312d,X1*%
%TF.SameCoordinates,Original*%
%TF.FileFunction,Other,Comment*%
%FSLAX46Y46*%
G04 Gerber Fmt 4.6, Leading zero omitted, Abs format (unit mm)*
G04 Created by KiCad (PCBNEW 8.0.6) date 2025-01-04 02:04:51*
%MOMM*%
%LPD*%
G01*
G04 APERTURE LIST*
%ADD10C,0.300000*%
%ADD11C,0.150000*%
G04 APERTURE END LIST*
D10*
X133059225Y-26230828D02*
X132202082Y-26230828D01*
X132630653Y-26230828D02*
X132630653Y-24730828D01*
X132630653Y-24730828D02*
X132487796Y-24945114D01*
X132487796Y-24945114D02*
X132344939Y-25087971D01*
X132344939Y-25087971D02*
X132202082Y-25159400D01*
X134344939Y-24730828D02*
X134059224Y-24730828D01*
X134059224Y-24730828D02*
X133916367Y-24802257D01*
X133916367Y-24802257D02*
X133844939Y-24873685D01*
X133844939Y-24873685D02*
X133702081Y-25087971D01*
X133702081Y-25087971D02*
X133630653Y-25373685D01*
X133630653Y-25373685D02*
X133630653Y-25945114D01*
X133630653Y-25945114D02*
X133702081Y-26087971D01*
X133702081Y-26087971D02*
X133773510Y-26159400D01*
X133773510Y-26159400D02*
X133916367Y-26230828D01*
X133916367Y-26230828D02*
X134202081Y-26230828D01*
X134202081Y-26230828D02*
X134344939Y-26159400D01*
X134344939Y-26159400D02*
X134416367Y-26087971D01*
X134416367Y-26087971D02*
X134487796Y-25945114D01*
X134487796Y-25945114D02*
X134487796Y-25587971D01*
X134487796Y-25587971D02*
X134416367Y-25445114D01*
X134416367Y-25445114D02*
X134344939Y-25373685D01*
X134344939Y-25373685D02*
X134202081Y-25302257D01*
X134202081Y-25302257D02*
X133916367Y-25302257D01*
X133916367Y-25302257D02*
X133773510Y-25373685D01*
X133773510Y-25373685D02*
X133702081Y-25445114D01*
X133702081Y-25445114D02*
X133630653Y-25587971D01*
X135416367Y-24730828D02*
X135559224Y-24730828D01*
X135559224Y-24730828D02*
X135702081Y-24802257D01*
X135702081Y-24802257D02*
X135773510Y-24873685D01*
X135773510Y-24873685D02*
X135844938Y-25016542D01*
X135844938Y-25016542D02*
X135916367Y-25302257D01*
X135916367Y-25302257D02*
X135916367Y-25659400D01*
X135916367Y-25659400D02*
X135844938Y-25945114D01*
X135844938Y-25945114D02*
X135773510Y-26087971D01*
X135773510Y-26087971D02*
X135702081Y-26159400D01*
X135702081Y-26159400D02*
X135559224Y-26230828D01*
X135559224Y-26230828D02*
X135416367Y-26230828D01*
X135416367Y-26230828D02*
X135273510Y-26159400D01*
X135273510Y-26159400D02*
X135202081Y-26087971D01*
X135202081Y-26087971D02*
X135130652Y-25945114D01*
X135130652Y-25945114D02*
X135059224Y-25659400D01*
X135059224Y-25659400D02*
X135059224Y-25302257D01*
X135059224Y-25302257D02*
X135130652Y-25016542D01*
X135130652Y-25016542D02*
X135202081Y-24873685D01*
X135202081Y-24873685D02*
X135273510Y-24802257D01*
X135273510Y-24802257D02*
X135416367Y-24730828D01*
X136559223Y-26230828D02*
X136559223Y-25230828D01*
X136559223Y-25373685D02*
X136630652Y-25302257D01*
X136630652Y-25302257D02*
X136773509Y-25230828D01*
X136773509Y-25230828D02*
X136987795Y-25230828D01*
X136987795Y-25230828D02*
X137130652Y-25302257D01*
X137130652Y-25302257D02*
X137202081Y-25445114D01*
X137202081Y-25445114D02*
X137202081Y-26230828D01*
X137202081Y-25445114D02*
X137273509Y-25302257D01*
X137273509Y-25302257D02*
X137416366Y-25230828D01*
X137416366Y-25230828D02*
X137630652Y-25230828D01*
X137630652Y-25230828D02*
X137773509Y-25302257D01*
X137773509Y-25302257D02*
X137844938Y-25445114D01*
X137844938Y-25445114D02*
X137844938Y-26230828D01*
X138559223Y-26230828D02*
X138559223Y-25230828D01*
X138559223Y-25373685D02*
X138630652Y-25302257D01*
X138630652Y-25302257D02*
X138773509Y-25230828D01*
X138773509Y-25230828D02*
X138987795Y-25230828D01*
X138987795Y-25230828D02*
X139130652Y-25302257D01*
X139130652Y-25302257D02*
X139202081Y-25445114D01*
X139202081Y-25445114D02*
X139202081Y-26230828D01*
X139202081Y-25445114D02*
X139273509Y-25302257D01*
X139273509Y-25302257D02*
X139416366Y-25230828D01*
X139416366Y-25230828D02*
X139630652Y-25230828D01*
X139630652Y-25230828D02*
X139773509Y-25302257D01*
X139773509Y-25302257D02*
X139844938Y-25445114D01*
X139844938Y-25445114D02*
X139844938Y-26230828D01*
X141559223Y-26230828D02*
X142344938Y-25230828D01*
X141559223Y-25230828D02*
X142344938Y-26230828D01*
X144844938Y-26230828D02*
X143987795Y-26230828D01*
X144416366Y-26230828D02*
X144416366Y-24730828D01*
X144416366Y-24730828D02*
X144273509Y-24945114D01*
X144273509Y-24945114D02*
X144130652Y-25087971D01*
X144130652Y-25087971D02*
X143987795Y-25159400D01*
X146273509Y-26230828D02*
X145416366Y-26230828D01*
X145844937Y-26230828D02*
X145844937Y-24730828D01*
X145844937Y-24730828D02*
X145702080Y-24945114D01*
X145702080Y-24945114D02*
X145559223Y-25087971D01*
X145559223Y-25087971D02*
X145416366Y-25159400D01*
X146773508Y-24730828D02*
X147773508Y-24730828D01*
X147773508Y-24730828D02*
X147130651Y-26230828D01*
X148344936Y-26230828D02*
X148344936Y-25230828D01*
X148344936Y-25373685D02*
X148416365Y-25302257D01*
X148416365Y-25302257D02*
X148559222Y-25230828D01*
X148559222Y-25230828D02*
X148773508Y-25230828D01*
X148773508Y-25230828D02*
X148916365Y-25302257D01*
X148916365Y-25302257D02*
X148987794Y-25445114D01*
X148987794Y-25445114D02*
X148987794Y-26230828D01*
X148987794Y-25445114D02*
X149059222Y-25302257D01*
X149059222Y-25302257D02*
X149202079Y-25230828D01*
X149202079Y-25230828D02*
X149416365Y-25230828D01*
X149416365Y-25230828D02*
X149559222Y-25302257D01*
X149559222Y-25302257D02*
X149630651Y-25445114D01*
X149630651Y-25445114D02*
X149630651Y-26230828D01*
X150344936Y-26230828D02*
X150344936Y-25230828D01*
X150344936Y-25373685D02*
X150416365Y-25302257D01*
X150416365Y-25302257D02*
X150559222Y-25230828D01*
X150559222Y-25230828D02*
X150773508Y-25230828D01*
X150773508Y-25230828D02*
X150916365Y-25302257D01*
X150916365Y-25302257D02*
X150987794Y-25445114D01*
X150987794Y-25445114D02*
X150987794Y-26230828D01*
X150987794Y-25445114D02*
X151059222Y-25302257D01*
X151059222Y-25302257D02*
X151202079Y-25230828D01*
X151202079Y-25230828D02*
X151416365Y-25230828D01*
X151416365Y-25230828D02*
X151559222Y-25302257D01*
X151559222Y-25302257D02*
X151630651Y-25445114D01*
X151630651Y-25445114D02*
X151630651Y-26230828D01*
X129559225Y-28980828D02*
X128702082Y-28980828D01*
X129130653Y-28980828D02*
X129130653Y-27480828D01*
X129130653Y-27480828D02*
X128987796Y-27695114D01*
X128987796Y-27695114D02*
X128844939Y-27837971D01*
X128844939Y-27837971D02*
X128702082Y-27909400D01*
X130844939Y-27980828D02*
X130844939Y-28980828D01*
X130487796Y-27409400D02*
X130130653Y-28480828D01*
X130130653Y-28480828D02*
X131059224Y-28480828D01*
X131487795Y-27480828D02*
X132487795Y-27480828D01*
X132487795Y-27480828D02*
X131844938Y-28980828D01*
X133059223Y-28837971D02*
X133130652Y-28909400D01*
X133130652Y-28909400D02*
X133059223Y-28980828D01*
X133059223Y-28980828D02*
X132987795Y-28909400D01*
X132987795Y-28909400D02*
X133059223Y-28837971D01*
X133059223Y-28837971D02*
X133059223Y-28980828D01*
X134416367Y-27980828D02*
X134416367Y-28980828D01*
X134059224Y-27409400D02*
X133702081Y-28480828D01*
X133702081Y-28480828D02*
X134630652Y-28480828D01*
X135487795Y-27480828D02*
X135630652Y-27480828D01*
X135630652Y-27480828D02*
X135773509Y-27552257D01*
X135773509Y-27552257D02*
X135844938Y-27623685D01*
X135844938Y-27623685D02*
X135916366Y-27766542D01*
X135916366Y-27766542D02*
X135987795Y-28052257D01*
X135987795Y-28052257D02*
X135987795Y-28409400D01*
X135987795Y-28409400D02*
X135916366Y-28695114D01*
X135916366Y-28695114D02*
X135844938Y-28837971D01*
X135844938Y-28837971D02*
X135773509Y-28909400D01*
X135773509Y-28909400D02*
X135630652Y-28980828D01*
X135630652Y-28980828D02*
X135487795Y-28980828D01*
X135487795Y-28980828D02*
X135344938Y-28909400D01*
X135344938Y-28909400D02*
X135273509Y-28837971D01*
X135273509Y-28837971D02*
X135202080Y-28695114D01*
X135202080Y-28695114D02*
X135130652Y-28409400D01*
X135130652Y-28409400D02*
X135130652Y-28052257D01*
X135130652Y-28052257D02*
X135202080Y-27766542D01*
X135202080Y-27766542D02*
X135273509Y-27623685D01*
X135273509Y-27623685D02*
X135344938Y-27552257D01*
X135344938Y-27552257D02*
X135487795Y-27480828D01*
X136630651Y-28980828D02*
X136630651Y-27980828D01*
X136630651Y-28123685D02*
X136702080Y-28052257D01*
X136702080Y-28052257D02*
X136844937Y-27980828D01*
X136844937Y-27980828D02*
X137059223Y-27980828D01*
X137059223Y-27980828D02*
X137202080Y-28052257D01*
X137202080Y-28052257D02*
X137273509Y-28195114D01*
X137273509Y-28195114D02*
X137273509Y-28980828D01*
X137273509Y-28195114D02*
X137344937Y-28052257D01*
X137344937Y-28052257D02*
X137487794Y-27980828D01*
X137487794Y-27980828D02*
X137702080Y-27980828D01*
X137702080Y-27980828D02*
X137844937Y-28052257D01*
X137844937Y-28052257D02*
X137916366Y-28195114D01*
X137916366Y-28195114D02*
X137916366Y-28980828D01*
X138630651Y-28980828D02*
X138630651Y-27980828D01*
X138630651Y-28123685D02*
X138702080Y-28052257D01*
X138702080Y-28052257D02*
X138844937Y-27980828D01*
X138844937Y-27980828D02*
X139059223Y-27980828D01*
X139059223Y-27980828D02*
X139202080Y-28052257D01*
X139202080Y-28052257D02*
X139273509Y-28195114D01*
X139273509Y-28195114D02*
X139273509Y-28980828D01*
X139273509Y-28195114D02*
X139344937Y-28052257D01*
X139344937Y-28052257D02*
X139487794Y-27980828D01*
X139487794Y-27980828D02*
X139702080Y-27980828D01*
X139702080Y-27980828D02*
X139844937Y-28052257D01*
X139844937Y-28052257D02*
X139916366Y-28195114D01*
X139916366Y-28195114D02*
X139916366Y-28980828D01*
X141630651Y-28980828D02*
X142416366Y-27980828D01*
X141630651Y-27980828D02*
X142416366Y-28980828D01*
X144916366Y-28980828D02*
X144059223Y-28980828D01*
X144487794Y-28980828D02*
X144487794Y-27480828D01*
X144487794Y-27480828D02*
X144344937Y-27695114D01*
X144344937Y-27695114D02*
X144202080Y-27837971D01*
X144202080Y-27837971D02*
X144059223Y-27909400D01*
X145844937Y-27480828D02*
X145987794Y-27480828D01*
X145987794Y-27480828D02*
X146130651Y-27552257D01*
X146130651Y-27552257D02*
X146202080Y-27623685D01*
X146202080Y-27623685D02*
X146273508Y-27766542D01*
X146273508Y-27766542D02*
X146344937Y-28052257D01*
X146344937Y-28052257D02*
X146344937Y-28409400D01*
X146344937Y-28409400D02*
X146273508Y-28695114D01*
X146273508Y-28695114D02*
X146202080Y-28837971D01*
X146202080Y-28837971D02*
X146130651Y-28909400D01*
X146130651Y-28909400D02*
X145987794Y-28980828D01*
X145987794Y-28980828D02*
X145844937Y-28980828D01*
X145844937Y-28980828D02*
X145702080Y-28909400D01*
X145702080Y-28909400D02*
X145630651Y-28837971D01*
X145630651Y-28837971D02*
X145559222Y-28695114D01*
X145559222Y-28695114D02*
X145487794Y-28409400D01*
X145487794Y-28409400D02*
X145487794Y-28052257D01*
X145487794Y-28052257D02*
X145559222Y-27766542D01*
X145559222Y-27766542D02*
X145630651Y-27623685D01*
X145630651Y-27623685D02*
X145702080Y-27552257D01*
X145702080Y-27552257D02*
X145844937Y-27480828D01*
X147630651Y-27980828D02*
X147630651Y-28980828D01*
X147273508Y-27409400D02*
X146916365Y-28480828D01*
X146916365Y-28480828D02*
X147844936Y-28480828D01*
X148416364Y-28837971D02*
X148487793Y-28909400D01*
X148487793Y-28909400D02*
X148416364Y-28980828D01*
X148416364Y-28980828D02*
X148344936Y-28909400D01*
X148344936Y-28909400D02*
X148416364Y-28837971D01*
X148416364Y-28837971D02*
X148416364Y-28980828D01*
X149059222Y-27623685D02*
X149130650Y-27552257D01*
X149130650Y-27552257D02*
X149273508Y-27480828D01*
X149273508Y-27480828D02*
X149630650Y-27480828D01*
X149630650Y-27480828D02*
X149773508Y-27552257D01*
X149773508Y-27552257D02*
X149844936Y-27623685D01*
X149844936Y-27623685D02*
X149916365Y-27766542D01*
X149916365Y-27766542D02*
X149916365Y-27909400D01*
X149916365Y-27909400D02*
X149844936Y-28123685D01*
X149844936Y-28123685D02*
X148987793Y-28980828D01*
X148987793Y-28980828D02*
X149916365Y-28980828D01*
X150773507Y-28123685D02*
X150630650Y-28052257D01*
X150630650Y-28052257D02*
X150559221Y-27980828D01*
X150559221Y-27980828D02*
X150487793Y-27837971D01*
X150487793Y-27837971D02*
X150487793Y-27766542D01*
X150487793Y-27766542D02*
X150559221Y-27623685D01*
X150559221Y-27623685D02*
X150630650Y-27552257D01*
X150630650Y-27552257D02*
X150773507Y-27480828D01*
X150773507Y-27480828D02*
X151059221Y-27480828D01*
X151059221Y-27480828D02*
X151202079Y-27552257D01*
X151202079Y-27552257D02*
X151273507Y-27623685D01*
X151273507Y-27623685D02*
X151344936Y-27766542D01*
X151344936Y-27766542D02*
X151344936Y-27837971D01*
X151344936Y-27837971D02*
X151273507Y-27980828D01*
X151273507Y-27980828D02*
X151202079Y-28052257D01*
X151202079Y-28052257D02*
X151059221Y-28123685D01*
X151059221Y-28123685D02*
X150773507Y-28123685D01*
X150773507Y-28123685D02*
X150630650Y-28195114D01*
X150630650Y-28195114D02*
X150559221Y-28266542D01*
X150559221Y-28266542D02*
X150487793Y-28409400D01*
X150487793Y-28409400D02*
X150487793Y-28695114D01*
X150487793Y-28695114D02*
X150559221Y-28837971D01*
X150559221Y-28837971D02*
X150630650Y-28909400D01*
X150630650Y-28909400D02*
X150773507Y-28980828D01*
X150773507Y-28980828D02*
X151059221Y-28980828D01*
X151059221Y-28980828D02*
X151202079Y-28909400D01*
X151202079Y-28909400D02*
X151273507Y-28837971D01*
X151273507Y-28837971D02*
X151344936Y-28695114D01*
X151344936Y-28695114D02*
X151344936Y-28409400D01*
X151344936Y-28409400D02*
X151273507Y-28266542D01*
X151273507Y-28266542D02*
X151202079Y-28195114D01*
X151202079Y-28195114D02*
X151059221Y-28123685D01*
X151987792Y-28980828D02*
X151987792Y-27980828D01*
X151987792Y-28123685D02*
X152059221Y-28052257D01*
X152059221Y-28052257D02*
X152202078Y-27980828D01*
X152202078Y-27980828D02*
X152416364Y-27980828D01*
X152416364Y-27980828D02*
X152559221Y-28052257D01*
X152559221Y-28052257D02*
X152630650Y-28195114D01*
X152630650Y-28195114D02*
X152630650Y-28980828D01*
X152630650Y-28195114D02*
X152702078Y-28052257D01*
X152702078Y-28052257D02*
X152844935Y-27980828D01*
X152844935Y-27980828D02*
X153059221Y-27980828D01*
X153059221Y-27980828D02*
X153202078Y-28052257D01*
X153202078Y-28052257D02*
X153273507Y-28195114D01*
X153273507Y-28195114D02*
X153273507Y-28980828D01*
X153987792Y-28980828D02*
X153987792Y-27980828D01*
X153987792Y-28123685D02*
X154059221Y-28052257D01*
X154059221Y-28052257D02*
X154202078Y-27980828D01*
X154202078Y-27980828D02*
X154416364Y-27980828D01*
X154416364Y-27980828D02*
X154559221Y-28052257D01*
X154559221Y-28052257D02*
X154630650Y-28195114D01*
X154630650Y-28195114D02*
X154630650Y-28980828D01*
X154630650Y-28195114D02*
X154702078Y-28052257D01*
X154702078Y-28052257D02*
X154844935Y-27980828D01*
X154844935Y-27980828D02*
X155059221Y-27980828D01*
X155059221Y-27980828D02*
X155202078Y-28052257D01*
X155202078Y-28052257D02*
X155273507Y-28195114D01*
X155273507Y-28195114D02*
X155273507Y-28980828D01*
D11*
%TO.C,H103*%
X220769000Y-142280000D02*
G75*
G02*
X210769000Y-142280000I-5000000J0D01*
G01*
X210769000Y-142280000D02*
G75*
G02*
X220769000Y-142280000I5000000J0D01*
G01*
%TO.C,H104*%
X73369000Y-142280000D02*
G75*
G02*
X63369000Y-142280000I-5000000J0D01*
G01*
X63369000Y-142280000D02*
G75*
G02*
X73369000Y-142280000I5000000J0D01*
G01*
%TO.C,H101*%
X220769000Y-37980000D02*
G75*
G02*
X210769000Y-37980000I-5000000J0D01*
G01*
X210769000Y-37980000D02*
G75*
G02*
X220769000Y-37980000I5000000J0D01*
G01*
%TO.C,H102*%
X73369000Y-37980000D02*
G75*
G02*
X63369000Y-37980000I-5000000J0D01*
G01*
X63369000Y-37980000D02*
G75*
G02*
X73369000Y-37980000I5000000J0D01*
G01*
%TD*%
M02*
