%TF.GenerationSoftware,KiCad,Pcbnew,8.0.6*%
%TF.CreationDate,2025-01-04T02:04:51-08:00*%
%TF.ProjectId,MEP-MAXI-85V-1-REV-2-Interface-Board,4d45502d-4d41-4584-992d-3835562d312d,X1*%
%TF.SameCoordinates,Original*%
%TF.FileFunction,Paste,Top*%
%TF.FilePolarity,Positive*%
%FSLAX46Y46*%
G04 Gerber Fmt 4.6, Leading zero omitted, Abs format (unit mm)*
G04 Created by KiCad (PCBNEW 8.0.6) date 2025-01-04 02:04:51*
%MOMM*%
%LPD*%
G01*
G04 APERTURE LIST*
G04 Aperture macros list*
%AMRoundRect*
0 Rectangle with rounded corners*
0 $1 Rounding radius*
0 $2 $3 $4 $5 $6 $7 $8 $9 X,Y pos of 4 corners*
0 Add a 4 corners polygon primitive as box body*
4,1,4,$2,$3,$4,$5,$6,$7,$8,$9,$2,$3,0*
0 Add four circle primitives for the rounded corners*
1,1,$1+$1,$2,$3*
1,1,$1+$1,$4,$5*
1,1,$1+$1,$6,$7*
1,1,$1+$1,$8,$9*
0 Add four rect primitives between the rounded corners*
20,1,$1+$1,$2,$3,$4,$5,0*
20,1,$1+$1,$4,$5,$6,$7,0*
20,1,$1+$1,$6,$7,$8,$9,0*
20,1,$1+$1,$8,$9,$2,$3,0*%
G04 Aperture macros list end*
%ADD10RoundRect,0.250000X-0.375000X-1.075000X0.375000X-1.075000X0.375000X1.075000X-0.375000X1.075000X0*%
%ADD11RoundRect,0.250000X-1.000000X-0.650000X1.000000X-0.650000X1.000000X0.650000X-1.000000X0.650000X0*%
%ADD12RoundRect,0.250000X-0.312500X-0.625000X0.312500X-0.625000X0.312500X0.625000X-0.312500X0.625000X0*%
%ADD13RoundRect,0.250000X-0.262500X-0.450000X0.262500X-0.450000X0.262500X0.450000X-0.262500X0.450000X0*%
%ADD14RoundRect,0.250000X-0.625000X0.312500X-0.625000X-0.312500X0.625000X-0.312500X0.625000X0.312500X0*%
%ADD15RoundRect,0.250000X0.312500X0.625000X-0.312500X0.625000X-0.312500X-0.625000X0.312500X-0.625000X0*%
%ADD16RoundRect,0.150000X-0.587500X-0.150000X0.587500X-0.150000X0.587500X0.150000X-0.587500X0.150000X0*%
%ADD17R,1.500000X2.500000*%
%ADD18R,7.000000X7.000000*%
%ADD19RoundRect,0.250000X-1.025000X0.787500X-1.025000X-0.787500X1.025000X-0.787500X1.025000X0.787500X0*%
%ADD20RoundRect,0.250000X-1.400000X-1.000000X1.400000X-1.000000X1.400000X1.000000X-1.400000X1.000000X0*%
%ADD21R,2.100000X1.450000*%
%ADD22RoundRect,0.150000X0.587500X0.150000X-0.587500X0.150000X-0.587500X-0.150000X0.587500X-0.150000X0*%
%ADD23RoundRect,0.250000X1.000000X0.650000X-1.000000X0.650000X-1.000000X-0.650000X1.000000X-0.650000X0*%
%ADD24RoundRect,0.250000X2.050000X0.300000X-2.050000X0.300000X-2.050000X-0.300000X2.050000X-0.300000X0*%
%ADD25RoundRect,0.250000X2.025000X2.375000X-2.025000X2.375000X-2.025000X-2.375000X2.025000X-2.375000X0*%
%ADD26RoundRect,0.250000X-1.075000X0.375000X-1.075000X-0.375000X1.075000X-0.375000X1.075000X0.375000X0*%
%ADD27RoundRect,0.249998X-4.550002X3.650002X-4.550002X-3.650002X4.550002X-3.650002X4.550002X3.650002X0*%
%ADD28RoundRect,0.250000X-0.650000X1.000000X-0.650000X-1.000000X0.650000X-1.000000X0.650000X1.000000X0*%
%ADD29RoundRect,0.250000X-0.450000X0.262500X-0.450000X-0.262500X0.450000X-0.262500X0.450000X0.262500X0*%
%ADD30R,0.700000X0.300000*%
%ADD31R,1.400000X1.600000*%
%ADD32RoundRect,0.250000X0.625000X-0.312500X0.625000X0.312500X-0.625000X0.312500X-0.625000X-0.312500X0*%
%ADD33RoundRect,0.250000X-1.000000X1.400000X-1.000000X-1.400000X1.000000X-1.400000X1.000000X1.400000X0*%
G04 APERTURE END LIST*
D10*
%TO.C,D308*%
X74844000Y-112480000D03*
X77644000Y-112480000D03*
%TD*%
D11*
%TO.C,D520*%
X114269000Y-75420000D03*
X118269000Y-75420000D03*
%TD*%
D12*
%TO.C,R309*%
X70081500Y-110940000D03*
X73006500Y-110940000D03*
%TD*%
D10*
%TO.C,D521*%
X113069000Y-66880000D03*
X115869000Y-66880000D03*
%TD*%
D11*
%TO.C,D516*%
X104469000Y-75480000D03*
X108469000Y-75480000D03*
%TD*%
D13*
%TO.C,R732*%
X180706500Y-52830000D03*
X182531500Y-52830000D03*
%TD*%
D11*
%TO.C,D522*%
X113269000Y-46880000D03*
X117269000Y-46880000D03*
%TD*%
D13*
%TO.C,R704*%
X142281500Y-52880000D03*
X144106500Y-52880000D03*
%TD*%
D14*
%TO.C,R514*%
X137969000Y-64555000D03*
X137969000Y-67480000D03*
%TD*%
D15*
%TO.C,R311*%
X89681500Y-126180000D03*
X86756500Y-126180000D03*
%TD*%
D10*
%TO.C,D505*%
X93169000Y-66830000D03*
X95969000Y-66830000D03*
%TD*%
D13*
%TO.C,R742*%
X196206500Y-55430000D03*
X198031500Y-55430000D03*
%TD*%
D10*
%TO.C,D501*%
X73144000Y-66862500D03*
X75944000Y-66862500D03*
%TD*%
D16*
%TO.C,Q801*%
X130031500Y-113230000D03*
X130031500Y-115130000D03*
X131906500Y-114180000D03*
%TD*%
D17*
%TO.C,Q501*%
X73644000Y-59960000D03*
D18*
X75944000Y-53060000D03*
D17*
X78244000Y-59960000D03*
%TD*%
D12*
%TO.C,R301*%
X81006500Y-106855000D03*
X83931500Y-106855000D03*
%TD*%
D17*
%TO.C,Q506*%
X133269000Y-59980000D03*
D18*
X135569000Y-53080000D03*
D17*
X137869000Y-59980000D03*
%TD*%
D11*
%TO.C,D512*%
X133569000Y-46680000D03*
X137569000Y-46680000D03*
%TD*%
D13*
%TO.C,R733*%
X180706500Y-57930000D03*
X182531500Y-57930000D03*
%TD*%
D15*
%TO.C,R518*%
X115931500Y-63880000D03*
X113006500Y-63880000D03*
%TD*%
%TO.C,R512*%
X106531500Y-92680000D03*
X103606500Y-92680000D03*
%TD*%
D17*
%TO.C,Q507*%
X94169000Y-88780000D03*
D18*
X96469000Y-81880000D03*
D17*
X98769000Y-88780000D03*
%TD*%
D10*
%TO.C,D503*%
X83044000Y-66840000D03*
X85844000Y-66840000D03*
%TD*%
D19*
%TO.C,C304*%
X66169000Y-98842500D03*
X66169000Y-105067500D03*
%TD*%
D20*
%TO.C,D303*%
X99969000Y-116880000D03*
X99969000Y-123680000D03*
%TD*%
D21*
%TO.C,IC701*%
X146419000Y-47790000D03*
X146419000Y-50330000D03*
X146419000Y-52870000D03*
X146419000Y-55410000D03*
X146419000Y-57950000D03*
X146419000Y-60490000D03*
X146419000Y-63030000D03*
X146419000Y-65570000D03*
X155519000Y-65570000D03*
X155519000Y-63030000D03*
X155519000Y-60490000D03*
X155519000Y-57950000D03*
X155519000Y-55410000D03*
X155519000Y-52870000D03*
X155519000Y-50330000D03*
X155519000Y-47790000D03*
%TD*%
D17*
%TO.C,Q504*%
X103669000Y-60042500D03*
D18*
X105969000Y-53142500D03*
D17*
X108269000Y-60042500D03*
%TD*%
D10*
%TO.C,D704*%
X140969000Y-85380000D03*
X143769000Y-85380000D03*
%TD*%
D13*
%TO.C,R705*%
X142269000Y-57980000D03*
X144094000Y-57980000D03*
%TD*%
%TO.C,R729*%
X199906500Y-57990000D03*
X201731500Y-57990000D03*
%TD*%
%TO.C,R743*%
X196206500Y-60530000D03*
X198031500Y-60530000D03*
%TD*%
D10*
%TO.C,D511*%
X133069000Y-66680000D03*
X135869000Y-66680000D03*
%TD*%
%TO.C,D703*%
X140969000Y-80380000D03*
X143769000Y-80380000D03*
%TD*%
D22*
%TO.C,Q712*%
X122844000Y-123630000D03*
X122844000Y-121730000D03*
X120969000Y-122680000D03*
%TD*%
D10*
%TO.C,D705*%
X140969000Y-90380000D03*
X143769000Y-90380000D03*
%TD*%
D11*
%TO.C,D508*%
X103869000Y-46742500D03*
X107869000Y-46742500D03*
%TD*%
D14*
%TO.C,R306*%
X84169000Y-90317500D03*
X84169000Y-93242500D03*
%TD*%
D17*
%TO.C,Q505*%
X123669000Y-60090000D03*
D18*
X125969000Y-53190000D03*
D17*
X128269000Y-60090000D03*
%TD*%
D19*
%TO.C,C305*%
X88119000Y-80845000D03*
X88119000Y-87070000D03*
%TD*%
D10*
%TO.C,D309*%
X74819000Y-76057500D03*
X77619000Y-76057500D03*
%TD*%
D23*
%TO.C,D305*%
X84144000Y-112340000D03*
X80144000Y-112340000D03*
%TD*%
D10*
%TO.C,D709*%
X170969000Y-75380000D03*
X173769000Y-75380000D03*
%TD*%
D24*
%TO.C,U302*%
X83144000Y-122420000D03*
X83144000Y-119880000D03*
D25*
X76419000Y-122655000D03*
X76419000Y-117105000D03*
X71569000Y-122655000D03*
X71569000Y-117105000D03*
D24*
X83144000Y-117340000D03*
%TD*%
D17*
%TO.C,Q509*%
X114169000Y-88780000D03*
D18*
X116469000Y-81880000D03*
D17*
X118769000Y-88780000D03*
%TD*%
D21*
%TO.C,IC702*%
X165619000Y-47790000D03*
X165619000Y-50330000D03*
X165619000Y-52870000D03*
X165619000Y-55410000D03*
X165619000Y-57950000D03*
X165619000Y-60490000D03*
X165619000Y-63030000D03*
X165619000Y-65570000D03*
X174719000Y-65570000D03*
X174719000Y-63030000D03*
X174719000Y-60490000D03*
X174719000Y-57950000D03*
X174719000Y-55410000D03*
X174719000Y-52870000D03*
X174719000Y-50330000D03*
X174719000Y-47790000D03*
%TD*%
D14*
%TO.C,R515*%
X98369000Y-93317500D03*
X98369000Y-96242500D03*
%TD*%
D13*
%TO.C,R710*%
X161506500Y-63030000D03*
X163331500Y-63030000D03*
%TD*%
D10*
%TO.C,D515*%
X103669000Y-95580000D03*
X106469000Y-95580000D03*
%TD*%
D11*
%TO.C,D506*%
X94069000Y-46830000D03*
X98069000Y-46830000D03*
%TD*%
D26*
%TO.C,D310*%
X87219000Y-128280000D03*
X87219000Y-131080000D03*
%TD*%
D13*
%TO.C,R801*%
X120606500Y-75990000D03*
X122431500Y-75990000D03*
%TD*%
D21*
%TO.C,IC801*%
X124719000Y-75990000D03*
X124719000Y-78530000D03*
X124719000Y-81070000D03*
X124719000Y-83610000D03*
X124719000Y-86150000D03*
X124719000Y-88690000D03*
X124719000Y-91230000D03*
X124719000Y-93770000D03*
X133819000Y-93770000D03*
X133819000Y-91230000D03*
X133819000Y-88690000D03*
X133819000Y-86150000D03*
X133819000Y-83610000D03*
X133819000Y-81070000D03*
X133819000Y-78530000D03*
X133819000Y-75990000D03*
%TD*%
D13*
%TO.C,R728*%
X199906500Y-52990000D03*
X201731500Y-52990000D03*
%TD*%
D19*
%TO.C,C302*%
X87769000Y-99442500D03*
X87769000Y-105667500D03*
%TD*%
D13*
%TO.C,R719*%
X177006500Y-60530000D03*
X178831500Y-60530000D03*
%TD*%
D10*
%TO.C,D712*%
X170969000Y-90380000D03*
X173769000Y-90380000D03*
%TD*%
D13*
%TO.C,R706*%
X142281500Y-63080000D03*
X144106500Y-63080000D03*
%TD*%
D10*
%TO.C,D507*%
X103131500Y-66842500D03*
X105931500Y-66842500D03*
%TD*%
D14*
%TO.C,R521*%
X118869000Y-93417500D03*
X118869000Y-96342500D03*
%TD*%
D27*
%TO.C,C301*%
X98269000Y-129730000D03*
X98269000Y-142230000D03*
%TD*%
D14*
%TO.C,R516*%
X108669000Y-93317500D03*
X108669000Y-96242500D03*
%TD*%
D22*
%TO.C,Q704*%
X122656500Y-137630000D03*
X122656500Y-135730000D03*
X120781500Y-136680000D03*
%TD*%
D16*
%TO.C,Q705*%
X129969000Y-134280000D03*
X129969000Y-136180000D03*
X131844000Y-135230000D03*
%TD*%
D19*
%TO.C,C307*%
X66519000Y-80345000D03*
X66519000Y-86570000D03*
%TD*%
D23*
%TO.C,D306*%
X84119000Y-75957500D03*
X80119000Y-75957500D03*
%TD*%
D22*
%TO.C,Q716*%
X122844000Y-116650000D03*
X122844000Y-114750000D03*
X120969000Y-115700000D03*
%TD*%
D14*
%TO.C,R505*%
X78044000Y-64637500D03*
X78044000Y-67562500D03*
%TD*%
D24*
%TO.C,U301*%
X82744000Y-104520000D03*
X82744000Y-101980000D03*
D25*
X76019000Y-104755000D03*
X76019000Y-99205000D03*
X71169000Y-104755000D03*
X71169000Y-99205000D03*
D24*
X82744000Y-99440000D03*
%TD*%
D15*
%TO.C,R503*%
X96031500Y-64030000D03*
X93106500Y-64030000D03*
%TD*%
D14*
%TO.C,R508*%
X108031500Y-64680000D03*
X108031500Y-67605000D03*
%TD*%
D16*
%TO.C,Q707*%
X129969000Y-130780000D03*
X129969000Y-132680000D03*
X131844000Y-131730000D03*
%TD*%
D19*
%TO.C,C303*%
X88144000Y-117327500D03*
X88144000Y-123552500D03*
%TD*%
D13*
%TO.C,R715*%
X157781500Y-60480000D03*
X159606500Y-60480000D03*
%TD*%
D28*
%TO.C,D304*%
X66169000Y-91955000D03*
X66169000Y-95955000D03*
%TD*%
D10*
%TO.C,D519*%
X113869000Y-95580000D03*
X116669000Y-95580000D03*
%TD*%
D13*
%TO.C,R718*%
X177006500Y-55430000D03*
X178831500Y-55430000D03*
%TD*%
D15*
%TO.C,R501*%
X76006500Y-64062500D03*
X73081500Y-64062500D03*
%TD*%
D10*
%TO.C,D701*%
X140969000Y-70380000D03*
X143769000Y-70380000D03*
%TD*%
D13*
%TO.C,R740*%
X215406500Y-65690000D03*
X217231500Y-65690000D03*
%TD*%
D10*
%TO.C,D307*%
X74419000Y-94555000D03*
X77219000Y-94555000D03*
%TD*%
D15*
%TO.C,R502*%
X85906500Y-63940000D03*
X82981500Y-63940000D03*
%TD*%
D13*
%TO.C,R739*%
X215406500Y-60590000D03*
X217231500Y-60590000D03*
%TD*%
%TO.C,R720*%
X177006500Y-65630000D03*
X178831500Y-65630000D03*
%TD*%
D12*
%TO.C,R305*%
X81506500Y-88280000D03*
X84431500Y-88280000D03*
%TD*%
D13*
%TO.C,R731*%
X180706500Y-47830000D03*
X182531500Y-47830000D03*
%TD*%
D11*
%TO.C,D502*%
X74044000Y-46700000D03*
X78044000Y-46700000D03*
%TD*%
D10*
%TO.C,D715*%
X200969000Y-70380000D03*
X203769000Y-70380000D03*
%TD*%
%TO.C,D509*%
X123169000Y-66790000D03*
X125969000Y-66790000D03*
%TD*%
D13*
%TO.C,R714*%
X157781500Y-55380000D03*
X159606500Y-55380000D03*
%TD*%
%TO.C,R737*%
X215406500Y-50490000D03*
X217231500Y-50490000D03*
%TD*%
D17*
%TO.C,Q502*%
X83406500Y-59940000D03*
D18*
X85706500Y-53040000D03*
D17*
X88006500Y-59940000D03*
%TD*%
D16*
%TO.C,Q715*%
X129969000Y-116780000D03*
X129969000Y-118680000D03*
X131844000Y-117730000D03*
%TD*%
D13*
%TO.C,R703*%
X142281500Y-47780000D03*
X144106500Y-47780000D03*
%TD*%
D29*
%TO.C,R402*%
X113969000Y-147017500D03*
X113969000Y-148842500D03*
%TD*%
D10*
%TO.C,D702*%
X140969000Y-75380000D03*
X143769000Y-75380000D03*
%TD*%
D17*
%TO.C,Q503*%
X93669000Y-60090000D03*
D18*
X95969000Y-53190000D03*
D17*
X98269000Y-60090000D03*
%TD*%
D15*
%TO.C,R510*%
X135931500Y-63880000D03*
X133006500Y-63880000D03*
%TD*%
D10*
%TO.C,D713*%
X170969000Y-95380000D03*
X173769000Y-95380000D03*
%TD*%
D11*
%TO.C,D514*%
X94469000Y-75480000D03*
X98469000Y-75480000D03*
%TD*%
D13*
%TO.C,R708*%
X161506500Y-52830000D03*
X163331500Y-52830000D03*
%TD*%
D10*
%TO.C,D707*%
X140969000Y-100380000D03*
X143769000Y-100380000D03*
%TD*%
D22*
%TO.C,Q714*%
X122719000Y-120130000D03*
X122719000Y-118230000D03*
X120844000Y-119180000D03*
%TD*%
D13*
%TO.C,R734*%
X180606500Y-63030000D03*
X182431500Y-63030000D03*
%TD*%
D19*
%TO.C,C306*%
X66544000Y-116827500D03*
X66544000Y-123052500D03*
%TD*%
D13*
%TO.C,R709*%
X161506500Y-57930000D03*
X163331500Y-57930000D03*
%TD*%
D15*
%TO.C,R304*%
X84331500Y-126980000D03*
X81406500Y-126980000D03*
%TD*%
D30*
%TO.C,IC401*%
X109569000Y-145117500D03*
X109569000Y-145617500D03*
X109569000Y-146117500D03*
X109569000Y-146617500D03*
X112369000Y-146617500D03*
X112369000Y-146117500D03*
X112369000Y-145617500D03*
X112369000Y-145117500D03*
D31*
X110969000Y-145867500D03*
%TD*%
D13*
%TO.C,R738*%
X215406500Y-55490000D03*
X217231500Y-55490000D03*
%TD*%
D17*
%TO.C,Q508*%
X104269000Y-88780000D03*
D18*
X106569000Y-81880000D03*
D17*
X108869000Y-88780000D03*
%TD*%
D15*
%TO.C,R302*%
X83931500Y-109155000D03*
X81006500Y-109155000D03*
%TD*%
%TO.C,R509*%
X126031500Y-63990000D03*
X123106500Y-63990000D03*
%TD*%
D14*
%TO.C,R513*%
X128069000Y-64627500D03*
X128069000Y-67552500D03*
%TD*%
D16*
%TO.C,Q701*%
X129969000Y-141280000D03*
X129969000Y-143180000D03*
X131844000Y-142230000D03*
%TD*%
D13*
%TO.C,R727*%
X200006500Y-47890000D03*
X201831500Y-47890000D03*
%TD*%
D32*
%TO.C,R307*%
X81869000Y-93242500D03*
X81869000Y-90317500D03*
%TD*%
D15*
%TO.C,R511*%
X96331500Y-92580000D03*
X93406500Y-92580000D03*
%TD*%
D33*
%TO.C,D311*%
X83369000Y-142430000D03*
X76569000Y-142430000D03*
%TD*%
D15*
%TO.C,R504*%
X105994000Y-64042500D03*
X103069000Y-64042500D03*
%TD*%
D13*
%TO.C,R741*%
X196206500Y-50330000D03*
X198031500Y-50330000D03*
%TD*%
D10*
%TO.C,D706*%
X140969000Y-95380000D03*
X143769000Y-95380000D03*
%TD*%
%TO.C,D711*%
X170969000Y-85380000D03*
X173769000Y-85380000D03*
%TD*%
D12*
%TO.C,R310*%
X70056500Y-74417500D03*
X72981500Y-74417500D03*
%TD*%
D33*
%TO.C,D301*%
X86569000Y-135580000D03*
X79769000Y-135580000D03*
%TD*%
D13*
%TO.C,R805*%
X136106500Y-78590000D03*
X137931500Y-78590000D03*
%TD*%
D29*
%TO.C,R401*%
X113969000Y-143317500D03*
X113969000Y-145142500D03*
%TD*%
D21*
%TO.C,IC704*%
X184819000Y-47790000D03*
X184819000Y-50330000D03*
X184819000Y-52870000D03*
X184819000Y-55410000D03*
X184819000Y-57950000D03*
X184819000Y-60490000D03*
X184819000Y-63030000D03*
X184819000Y-65570000D03*
X193919000Y-65570000D03*
X193919000Y-63030000D03*
X193919000Y-60490000D03*
X193919000Y-57950000D03*
X193919000Y-55410000D03*
X193919000Y-52870000D03*
X193919000Y-50330000D03*
X193919000Y-47790000D03*
%TD*%
D10*
%TO.C,D708*%
X170969000Y-70380000D03*
X173769000Y-70380000D03*
%TD*%
D16*
%TO.C,Q713*%
X129969000Y-120280000D03*
X129969000Y-122180000D03*
X131844000Y-121230000D03*
%TD*%
D22*
%TO.C,Q706*%
X122656500Y-134130000D03*
X122656500Y-132230000D03*
X120781500Y-133180000D03*
%TD*%
D12*
%TO.C,R308*%
X69656500Y-93055000D03*
X72581500Y-93055000D03*
%TD*%
D15*
%TO.C,R517*%
X116731500Y-92580000D03*
X113806500Y-92580000D03*
%TD*%
D17*
%TO.C,Q510*%
X113169000Y-60180000D03*
D18*
X115469000Y-53280000D03*
D17*
X117769000Y-60180000D03*
%TD*%
D10*
%TO.C,D801*%
X200969000Y-80380000D03*
X203769000Y-80380000D03*
%TD*%
D16*
%TO.C,Q703*%
X129969000Y-137730000D03*
X129969000Y-139630000D03*
X131844000Y-138680000D03*
%TD*%
%TO.C,Q711*%
X129969000Y-123780000D03*
X129969000Y-125680000D03*
X131844000Y-124730000D03*
%TD*%
D10*
%TO.C,D716*%
X200969000Y-75380000D03*
X203769000Y-75380000D03*
%TD*%
%TO.C,D513*%
X93469000Y-95480000D03*
X96269000Y-95480000D03*
%TD*%
D22*
%TO.C,Q702*%
X122656500Y-141130000D03*
X122656500Y-139230000D03*
X120781500Y-140180000D03*
%TD*%
D21*
%TO.C,IC703*%
X204019000Y-47890000D03*
X204019000Y-50430000D03*
X204019000Y-52970000D03*
X204019000Y-55510000D03*
X204019000Y-58050000D03*
X204019000Y-60590000D03*
X204019000Y-63130000D03*
X204019000Y-65670000D03*
X213119000Y-65670000D03*
X213119000Y-63130000D03*
X213119000Y-60590000D03*
X213119000Y-58050000D03*
X213119000Y-55510000D03*
X213119000Y-52970000D03*
X213119000Y-50430000D03*
X213119000Y-47890000D03*
%TD*%
D14*
%TO.C,R522*%
X118069000Y-64717500D03*
X118069000Y-67642500D03*
%TD*%
D11*
%TO.C,D510*%
X123969000Y-46790000D03*
X127969000Y-46790000D03*
%TD*%
D22*
%TO.C,Q710*%
X122656500Y-127130000D03*
X122656500Y-125230000D03*
X120781500Y-126180000D03*
%TD*%
D24*
%TO.C,U303*%
X83119000Y-85957500D03*
X83119000Y-83417500D03*
D25*
X76394000Y-86192500D03*
X76394000Y-80642500D03*
X71544000Y-86192500D03*
X71544000Y-80642500D03*
D24*
X83119000Y-80877500D03*
%TD*%
D28*
%TO.C,D302*%
X87469000Y-140880000D03*
X87469000Y-144880000D03*
%TD*%
D13*
%TO.C,R744*%
X196206500Y-65530000D03*
X198031500Y-65530000D03*
%TD*%
%TO.C,R713*%
X157781500Y-50380000D03*
X159606500Y-50380000D03*
%TD*%
D14*
%TO.C,R506*%
X87944000Y-64677500D03*
X87944000Y-67602500D03*
%TD*%
D13*
%TO.C,R707*%
X161606500Y-47830000D03*
X163431500Y-47830000D03*
%TD*%
%TO.C,R730*%
X199906500Y-63190000D03*
X201731500Y-63190000D03*
%TD*%
D10*
%TO.C,D714*%
X170969000Y-100380000D03*
X173769000Y-100380000D03*
%TD*%
D16*
%TO.C,Q709*%
X129969000Y-127280000D03*
X129969000Y-129180000D03*
X131844000Y-128230000D03*
%TD*%
D13*
%TO.C,R717*%
X177006500Y-50330000D03*
X178831500Y-50330000D03*
%TD*%
%TO.C,R716*%
X157781500Y-65580000D03*
X159606500Y-65580000D03*
%TD*%
D12*
%TO.C,R303*%
X81406500Y-124680000D03*
X84331500Y-124680000D03*
%TD*%
D22*
%TO.C,Q708*%
X122656500Y-130630000D03*
X122656500Y-128730000D03*
X120781500Y-129680000D03*
%TD*%
D14*
%TO.C,R507*%
X98069000Y-64667500D03*
X98069000Y-67592500D03*
%TD*%
D11*
%TO.C,D504*%
X83706500Y-46640000D03*
X87706500Y-46640000D03*
%TD*%
D10*
%TO.C,D710*%
X170969000Y-80380000D03*
X173769000Y-80380000D03*
%TD*%
M02*
