<?xml version="1.0" encoding="UTF-8"?>
<svg id="Layer_2" data-name="Layer 2" xmlns="http://www.w3.org/2000/svg" viewBox="0 0 321.44 160.72">
  <g id="_Layer_" data-name="&amp;lt;Layer&amp;gt;">
    <path d="M317.571395,70.315c2.3962-2.668,3.868605-6.1838,3.868605-10.045,0-5.3312-2.790605-10.0131-6.98-12.691,1.239595-2.1878,1.957495-4.7089,1.957495-7.399,0-6.9409-4.7236-12.7865-11.123-14.5261.6884-1.7223,1.078-3.5965,1.078-5.5639,0-8.308-6.7596-15.0675-15.067495-15.0675h-26.450204c-.027-.0245-.0515-.0539-.080796-.0784-3.555-3.1875-8.259-4.9441-13.247204-4.9441h-11.0446c-4.4958,0-8.7146,1.8522-11.7796,5.0225h-104.480297c-.0269-.0245-.0514-.0539-.0808-.0784-3.5525-3.1875-8.2565-4.9441-13.2447-4.9441h-11.047c-4.4958,0-8.7123,1.8547-11.7748,5.0225h-37.85v.8796c-1.5729-.5587-3.2585-.8796-5.0225-.8796-6.5611,0-12.1422,4.2238-14.2051,10.0891-.2866-.0171-.5709-.0441-.8624-.0441-8.308,0-15.0675,6.7595-15.0675,15.0675,0,1.7811.3258,3.4814.8943,5.069-.2965-.0195-.593-.0465-.8943-.0465-8.3079,0-15.0675,6.7595-15.0675,15.0675,0,3.8612,1.4725,7.3769,3.8685,10.045-2.396,2.6705-3.8685,6.1838-3.8685,10.045s1.4725,7.377,3.8685,10.045c-2.396,2.6705-3.8685,6.1838-3.8685,10.045s1.4725,7.377,3.8685,10.045c-2.396,2.6681-3.8685,6.1838-3.8685,10.045,0,8.3104,6.7596,15.0675,15.0675,15.0675.3013,0,.5978-.027.8943-.0441-.5685,1.5852-.8943,3.2879-.8943,5.0666,0,8.308,6.7595,15.0675,15.0675,15.0675.2915,0,.5758-.027.8624-.0441,2.0629,5.8653,7.644,10.0891,14.2051,10.0891,1.764,0,3.4496-.3185,5.0225-.8796v.8796h37.85c3.0625,3.1703,7.279,5.0225,11.7748,5.0225h11.047c4.9882,0,9.6922-1.7566,13.2471-4.9441.0295-.0245.0539-.0539.0809-.0784h104.477797c3.065,3.1727,7.2838,5.0225,11.7796,5.0225h11.0446c4.988204,0,9.692204-1.7566,13.247204-4.9441.029296-.0245.053796-.0539.080796-.0784h31.472699c8.308,0,15.067505-6.7595,15.067505-15.0675,0-2.6876-.717905-5.2111-1.957505-7.399,4.1894-2.6779,6.98-7.3598,6.98-12.691,0-2.6901-.7179-5.2112-1.957495-7.399,4.189395-2.6779,6.98-7.3598,6.98-12.691,0-3.8612-1.472405-7.3745-3.868605-10.045,2.3962-2.668,3.868605-6.1838,3.868605-10.045s-1.472405-7.3745-3.868605-10.045ZM311.395,80.36c0,2.771-2.251505,5.0225-5.022505,5.0225h-15.168c.0564-1.666.100505-3.3369.100505-5.0225,0-1.6831-.044105-3.3565-.100505-5.0225h15.168c2.771,0,5.022505,2.2515,5.022505,5.0225ZM311.395,100.45c0,2.771-2.251505,5.0225-5.022505,5.0225h-17.2749c.5855-3.2805,1.0535-6.6297,1.4087-10.045h15.8662c2.771,0,5.022505,2.2515,5.022505,5.0225ZM240.482197,150.675h-.0931c1.9673-1.5068,3.822-3.1923,5.5786-5.0225,2.8274-2.9473,5.3778-6.3014,7.634303-10.045.965296-1.5998,1.866796-3.283,2.721896-5.0225.7962-1.6121,1.5362-3.2928,2.2393-5.0225,1.2789-3.1581,2.4035-6.5097,3.368804-10.045.445796-1.6341.857496-3.3075,1.232296-5.0225.3601-1.6391.6885-3.3124.9849-5.0225.5611-3.2267,1.0021-6.5758,1.3304-10.045.1568-1.6489.2891-3.3198.392-5.0225.100404-1.6513.1837-3.3198.2327-5.0225.049-1.6562.0882-3.3198.0882-5.0225,0-1.7003-.0392-3.3663-.0882-5.0225-.049-1.7003-.132296-3.3688-.2327-5.0225-.1029-1.7003-.2352-3.3736-.392-5.0225-.3283-3.4667-.7693-6.8183-1.3304-10.045-.2964-1.7076-.6248-3.3834-.9849-5.0225-.3748-1.7125-.7865-3.3859-1.232296-5.0225-.965304-3.5353-2.089904-6.8845-3.368804-10.045-.7031-1.7297-1.4431-3.4104-2.2393-5.0225-.8551-1.7395-1.7566-3.4227-2.721896-5.0225-2.256504-3.7436-4.806903-7.0977-7.634303-10.045-1.7566-1.8277-3.6113-3.5133-5.5786-5.0225h11.1377c2.5063,0,4.8314.8453,6.539,2.374.9164.8233,1.8081,1.7102,2.6828,2.6485,2.6583,2.8567,5.1009,6.2451,7.3157,10.045.931,1.5998,1.8155,3.2805,2.6583,5.0225.786404,1.6219,1.5386,3.2904,2.2466,5.0225,1.2985,3.185,2.4696,6.5342,3.4839,10.045.4728,1.644.9114,3.3198,1.3181,5.0225.3969,1.6488.757,3.3246,1.087804,5.0225.639396,3.2708,1.153896,6.6248,1.541,10.045.188696,1.6611.348,3.3344.475396,5.0225.1249,1.6636.2229,3.3369.2841,5.0225.0637,1.666.100504,3.3394.100504,5.0225s-.036804,3.3565-.100504,5.0225c-.0612,1.6856-.1592,3.3589-.2841,5.0225-.127396,1.6881-.2867,3.3614-.475396,5.0225-.387104,3.4202-.901604,6.7742-1.541,10.045-.330804,1.6979-.690904,3.3737-1.087804,5.0225-.4067,1.7027-.8453,3.381-1.3181,5.0225-1.0143,3.5108-2.1854,6.8624-3.4839,10.045-.708,1.7346-1.460196,3.403-2.2466,5.0225-.8428,1.742-1.7273,3.4251-2.6583,5.0225-2.2148,3.7999-4.6574,7.1908-7.3157,10.045-.8747.9383-1.7664,1.8277-2.6828,2.6485-1.7076,1.5312-4.0327,2.374-6.539,2.374h-11.0446ZM45.2025,145.6525c-2.4083,0-4.4247-1.7052-4.9073-3.9715-.0736-.3405-.1152-.6908-.1152-1.051,0-2.4573,1.7763-4.4982,4.1086-4.9294.299-.0539.6003-.0931.9139-.0931.3112,0,.6149.0392.9114.0931.8379,2.3079,2.2197,4.3512,3.996,5.9804-.4827,2.2663-2.499,3.9715-4.9074,3.9715ZM30.135,135.6075c-2.7685,0-5.0225-2.2516-5.0225-5.0225s2.254-5.0225,5.0225-5.0225c.3136,0,.6149.0367.9139.0931.6639,1.835,1.6733,3.5035,2.9547,4.9294-1.2814,1.4259-2.2908,3.0943-2.9547,4.9318-.299.054-.6003.0907-.9139.0907ZM10.045,110.495c0-2.7709,2.254-5.0225,5.0225-5.0225.2891,0,.5709.0392.8477.0858-.539,1.5484-.8477,3.207-.8477,4.9367,0,1.7321.3087,3.3884.8477,4.9368-.2768.0489-.5586.0857-.8477.0857-2.7685,0-5.0225-2.2515-5.0225-5.0225ZM10.045,90.405c0-2.771,2.254-5.0225,5.0225-5.0225.2891,0,.5709.0392.8477.0858-.539,1.5508-.8477,3.207-.8477,4.9367,0,1.7322.3087,3.3884.8477,4.9368-.2768.0489-.5586.0857-.8477.0857-2.7685,0-5.0225-2.2515-5.0225-5.0225ZM10.045,70.315c0-2.771,2.254-5.0225,5.0225-5.0225.2891,0,.5709.0392.8477.0857-.539,1.5509-.8477,3.2071-.8477,4.9368,0,1.7322.3087,3.3884.8477,4.9367-.2768.049-.5586.0858-.8477.0858-2.7685,0-5.0225-2.2515-5.0225-5.0225ZM10.045,50.225c0-2.771,2.254-5.0225,5.0225-5.0225.2891,0,.5709.0392.8477.0857-.539,1.5509-.8477,3.2071-.8477,4.9368,0,1.7322.3087,3.3883.8477,4.9367-.2768.0491-.5586.0858-.8477.0858-2.7685,0-5.0225-2.2516-5.0225-5.0225ZM25.1125,30.135c0-2.7709,2.254-5.0225,5.0225-5.0225.3136,0,.6149.0367.9139.0931.6639,1.8351,1.6733,3.5035,2.9547,4.9294-1.2814,1.4259-2.2908,3.0944-2.9547,4.9318-.299.054-.6003.0907-.9139.0907-2.7685,0-5.0225-2.2516-5.0225-5.0225ZM45.2025,15.0675c2.4084,0,4.4223,1.7052,4.9074,3.9739-1.7763,1.6268-3.1581,3.6701-3.996,5.9804-.2965.054-.6002.0907-.9114.0907-.3136,0-.6149-.0367-.9139-.0907-2.3323-.4336-4.1086-2.472-4.1086-4.9318,0-.3602.0416-.7105.1152-1.0486.4826-2.2687,2.499-3.9739,4.9073-3.9739ZM110.86985,45.2025h-21.34435c-2.0752-5.8433-7.6416-10.045-14.188-10.045-.3013,0-.5978.027-.8967.0465.0073-.0146.0123-.0318.0171-.0465h32.5385c1.48225,3.087,2.77095,6.446,3.87345,10.045ZM114.7629,65.2925h-25.2374c-.664-1.8718-1.6881-3.5721-2.9891-5.0225,1.301-1.4504,2.3251-3.1483,2.9891-5.0225h23.8017c.60515,3.1997,1.0829,6.5513,1.4357,10.045ZM115.5175,80.36c0,1.7077-.04165,3.3688-.0931,5.0225h-25.8989c-.664-1.8718-1.6881-3.5721-2.9891-5.0225,1.301-1.4504,2.3251-3.1483,2.9891-5.0225h25.8989c.05145,1.6537.0931,3.3173.0931,5.0225ZM113.3272,105.4725h-23.8017c-.664-1.8718-1.6881-3.5721-2.9891-5.0225,1.3035-1.4504,2.3251-3.1482,2.9891-5.0225h25.2374c-.3528,3.4937-.83055,6.8453-1.4357,10.045ZM106.9964,125.5625h-32.5385c-.0048-.0147-.0098-.0294-.0171-.0441.2989.0171.5954.0441.8967.0441,6.5464,0,12.1128-4.2017,14.188-10.045h21.34435c-1.1025,3.6015-2.3912,6.9605-3.87345,10.045ZM80.36,50.225c0,2.7709-2.254,5.0225-5.0225,5.0225-.2891,0-.5709-.0367-.8477-.0858-2.3643-.4042-4.1748-2.4548-4.1748-4.9367,0-2.4794,1.8105-4.53,4.1748-4.9368.2768-.0465.5586-.0857.8477-.0857,2.7685,0,5.0225,2.2515,5.0225,5.0225ZM80.36,70.315c0,2.771-2.254,5.0225-5.0225,5.0225-.2891,0-.5709-.0368-.8477-.0858-2.3643-.4042-4.1748-2.4548-4.1748-4.9367,0-2.4794,1.8105-4.5301,4.1748-4.9368.2768-.0465.5586-.0857.8477-.0857,2.7685,0,5.0225,2.2515,5.0225,5.0225ZM80.36,90.405c0,2.771-2.254,5.0225-5.0225,5.0225-.2891,0-.5709-.0368-.8477-.0857-2.3643-.4043-4.1748-2.4549-4.1748-4.9368,0-2.4794,1.8105-4.5301,4.1748-4.9367.2768-.0466.5586-.0858.8477-.0858,2.7685,0,5.0225,2.2515,5.0225,5.0225ZM80.36,110.495c0,2.771-2.254,5.0225-5.0225,5.0225-.2891,0-.5709-.0368-.8477-.0857-2.3643-.4043-4.1748-2.455-4.1748-4.9368,0-2.4794,1.8105-4.5301,4.1748-4.9367.2768-.0466.5586-.0858.8477-.0858,2.7685,0,5.0225,2.2516,5.0225,5.0225ZM40.18,60.27c0-.3601.0416-.7105.1152-1.0486.4213-1.9747,2.0041-3.5133,3.9934-3.8808.299-.0563.6003-.0931.9139-.0931.3112,0,.6149.0368.9114.0931.6664,1.8351,1.6758,3.5035,2.9572,4.9294-1.2814,1.4259-2.2908,3.0944-2.9572,4.9318-.2965.0539-.6002.0907-.9114.0907-.3136,0-.6149-.0368-.9139-.0907-1.9893-.3699-3.5721-1.9085-3.9934-3.8807-.0736-.3406-.1152-.6909-.1152-1.0511ZM61.1177,95.3418c-.2768.0489-.5586.0857-.8477.0857-.3136,0-.615-.0368-.9139-.0931-1.9893-.3675-3.572-1.9061-3.9934-3.8783-.0735-.3406-.1152-.691-.1152-1.0511s.0417-.7105.1152-1.0486c.4214-1.9747,2.0041-3.5133,3.9934-3.8808.2989-.0563.6003-.0931.9139-.0931.2891,0,.5709.0392.8477.0858-.539,1.5508-.8477,3.207-.8477,4.9367,0,1.7322.3087,3.3884.8477,4.9368ZM44.2886,85.2919c-1.9893-.37-3.5721-1.9086-3.9934-3.8808-.0736-.3406-.1152-.691-.1152-1.0511s.0416-.7105.1152-1.0486c.4213-1.9747,2.0041-3.5133,3.9934-3.8808.299-.0563.6003-.0931.9139-.0931.3112,0,.6149.0368.9114.0931.6664,1.8351,1.6758,3.5035,2.9572,4.9294-1.2814,1.4259-2.2908,3.0943-2.9572,4.9319-.2965.0538-.6002.0906-.9114.0906-.3136,0-.6149-.0368-.9139-.0906ZM61.1177,75.2517c-.2768.049-.5586.0858-.8477.0858-.3136,0-.615-.0368-.9139-.0906-1.9893-.37-3.572-1.9086-3.9934-3.8808-.0735-.3406-.1152-.691-.1152-1.0511s.0417-.7105.1152-1.0486c.4214-1.9747,2.0041-3.5133,3.9934-3.8808.2989-.0539.6003-.0931.9139-.0931.2891,0,.5709.0392.8477.0857-.539,1.5509-.8477,3.2071-.8477,4.9368,0,1.7322.3087,3.3884.8477,4.9367ZM61.1177,45.2882c-.539,1.5509-.8477,3.2071-.8477,4.9368,0,1.7322.3087,3.3883.8477,4.9367-.2768.0491-.5586.0858-.8477.0858-.3136,0-.615-.0367-.9139-.0931-1.9893-.3675-3.572-1.9061-3.9934-3.8783-.0735-.3406-.1152-.6909-.1152-1.0511,0-.3601.0417-.7105.1152-1.051.4214-1.9723,2.0041-3.5109,3.9934-3.8784.2989-.0563.6003-.0931.9139-.0931.2891,0,.5709.0392.8477.0857ZM44.2886,105.3794c-1.9893-.3675-3.5721-1.9061-3.9934-3.8783-.0736-.3406-.1152-.691-.1152-1.0511,0-.3602.0416-.7105.1152-1.0511.4213-1.9722,2.0041-3.5108,3.9934-3.8783.299-.0563.6003-.0931.9139-.0931.3112,0,.6149.0368.9114.0931.6664,1.835,1.6758,3.5035,2.9572,4.9294-1.2814,1.4259-2.2908,3.0943-2.9572,4.9294-.2965.0563-.6002.0931-.9114.0931-.3136,0-.6149-.0368-.9139-.0931ZM59.3561,115.4269c-1.9893-.37-3.572-1.9086-3.9934-3.8809-.0735-.3405-.1152-.6909-.1152-1.051,0-.3602.0417-.7105.1152-1.0486.4214-1.9747,2.0041-3.5133,3.9934-3.8808.2989-.0564.6003-.0931.9139-.0931.2891,0,.5709.0392.8477.0858-.539,1.5484-.8477,3.207-.8477,4.9367,0,1.7321.3087,3.3884.8477,4.9368-.2768.0489-.5586.0857-.8477.0857-.3136,0-.615-.0368-.9139-.0906ZM31.0489,65.3856c.6639,1.8351,1.6733,3.5035,2.9547,4.9294-1.2814,1.4259-2.2908,3.0944-2.9547,4.9319-.299.0538-.6003.0906-.9139.0906-.2916,0-.5708-.0368-.8477-.0858-2.3643-.4042-4.1748-2.4548-4.1748-4.9367,0-2.4794,1.8105-4.5301,4.1748-4.9368.2769-.0465.5561-.0857.8477-.0857.3136,0,.6149.0392.9139.0931ZM29.2873,95.3418c-2.3643-.4043-4.1748-2.4549-4.1748-4.9368,0-2.4794,1.8105-4.5301,4.1748-4.9367.2769-.0466.5561-.0858.8477-.0858.3136,0,.6149.0368.9139.0931.6639,1.835,1.6733,3.5035,2.9547,4.9294-1.2814,1.4259-2.2908,3.0943-2.9547,4.9294-.299.0563-.6003.0931-.9139.0931-.2916,0-.5708-.0368-.8477-.0857ZM65.2925,30.135c0,2.7709-2.254,5.0225-5.0225,5.0225-.3136,0-.615-.0367-.9139-.0907-1.9893-.3699-3.572-1.9085-3.9934-3.8808-.0735-.3405-.1152-.6908-.1152-1.051s.0417-.7105.1152-1.0486c.4214-1.9747,2.0041-3.5133,3.9934-3.8808.2989-.0564.6003-.0931.9139-.0931,2.7685,0,5.0225,2.2516,5.0225,5.0225ZM46.1139,35.2506c.6664,1.8351,1.6758,3.5035,2.9572,4.9294-1.2814,1.4259-2.2908,3.0944-2.9572,4.9294-.2965.0564-.6002.0931-.9114.0931-.3136,0-.6149-.0367-.9139-.0931-1.9893-.3675-3.5721-1.9061-3.9934-3.8784-.0736-.3405-.1152-.6908-.1152-1.051,0-.3601.0416-.7105.1152-1.0486.4213-1.9747,2.0041-3.5133,3.9934-3.8808.299-.0564.6003-.0931.9139-.0931.3112,0,.6149.0367.9114.0931ZM44.2886,125.4694c-1.9893-.3675-3.5721-1.9061-3.9934-3.8784-.0736-.3405-.1152-.6909-.1152-1.051,0-.3602.0416-.7105.1152-1.0486.4213-1.9747,2.0041-3.5133,3.9934-3.8808.299-.0564.6003-.0931.9139-.0931.3112,0,.6149.0367.9114.0931.6664,1.835,1.6758,3.5035,2.9572,4.9294-1.2814,1.4259-2.2908,3.0943-2.9572,4.9294-.2965.0564-.6002.0931-.9114.0931-.3136,0-.6149-.0367-.9139-.0931ZM59.3561,135.5168c-1.9893-.3699-3.572-1.9085-3.9934-3.8808-.0735-.3405-.1152-.6908-.1152-1.051s.0417-.7105.1152-1.0486c.4214-1.9747,2.0041-3.5133,3.9934-3.8808.2989-.0564.6003-.0931.9139-.0931,2.7685,0,5.0225,2.2516,5.0225,5.0225s-2.254,5.0225-5.0225,5.0225c-.3136,0-.615-.0367-.9139-.0907ZM74.4579,25.1125c-2.0751-5.8433-7.6415-10.045-14.1879-10.045h28.7949c4.4271,2.4476,8.3349,5.8212,11.6987,10.045h-26.3057ZM29.2873,45.2882c.2769-.0465.5561-.0857.8477-.0857.3136,0,.6149.0368.9139.0931.6639,1.8351,1.6733,3.5035,2.9547,4.9294-1.2814,1.4259-2.2908,3.0944-2.9547,4.9294-.299.0564-.6003.0931-.9139.0931-.2916,0-.5708-.0367-.8477-.0858-2.3643-.4042-4.1748-2.4548-4.1748-4.9367,0-2.4794,1.8105-4.53,4.1748-4.9368ZM29.2873,105.5583c.2769-.0466.5561-.0858.8477-.0858.3136,0,.6149.0367.9139.0931.6639,1.835,1.6733,3.5035,2.9547,4.9294-1.2814,1.4259-2.2908,3.0943-2.9547,4.9319-.299.0538-.6003.0906-.9139.0906-.2916,0-.5708-.0368-.8477-.0857-2.3643-.4043-4.1748-2.455-4.1748-4.9368,0-2.4794,1.8105-4.5301,4.1748-4.9367ZM74.4579,135.6075h26.3057c-3.3638,4.2238-7.2716,7.5974-11.6987,10.045h-28.7949c6.5464,0,12.1128-4.2017,14.1879-10.045ZM99.7591,150.675c1.9698-1.5068,3.822-3.1923,5.57865-5.0225,2.8273-2.9473,5.37775-6.3014,7.6342-10.045.9653-1.5998,1.8669-3.283,2.72195-5.0225.79625-1.6121,1.53615-3.2928,2.2393-5.0225,1.2789-3.1581,2.4059-6.5097,3.3687-10.045.446-1.6341.8575-3.3075,1.2324-5.0225.3602-1.6391.6885-3.3124.9849-5.0225.561-3.2267,1.0021-6.5758,1.3328-10.045.1544-1.6489.2867-3.3198.3896-5.0225.1004-1.6513.1837-3.3198.2327-5.0225.049-1.6562.0882-3.3198.0882-5.0225,0-1.7003-.0392-3.3663-.0882-5.0225-.049-1.7003-.1323-3.3688-.2327-5.0225-.1029-1.7003-.2352-3.3736-.3896-5.0225-.3307-3.4667-.7718-6.8183-1.3328-10.045-.2964-1.7076-.6247-3.3834-.9849-5.0225-.3749-1.7125-.7864-3.3859-1.2324-5.0225-.9628-3.5353-2.0898-6.8845-3.3687-10.045-.70315-1.7297-1.44305-3.4104-2.2393-5.0225-.85505-1.7395-1.75665-3.4227-2.72195-5.0225-2.25645-3.7436-4.8069-7.0977-7.6342-10.045-1.75665-1.8277-3.60885-3.5133-5.57865-5.0225h11.1377c2.5088,0,4.8314.8453,6.53905,2.374.9163.8233,1.8081,1.7102,2.68275,2.6485,2.6582,2.8567,5.1009,6.2451,7.3157,10.045.931,1.5998,1.813,3.2805,2.6582,5.0225.7865,1.6219,1.5387,3.2904,2.2467,5.0225,1.2985,3.185,2.4696,6.5342,3.4839,10.045.4728,1.644.9114,3.3198,1.3181,5.0225.3969,1.6488.7571,3.3246,1.0878,5.0225.6395,3.2708,1.154,6.6248,1.5411,10.045.1886,1.6611.3478,3.3344.4753,5.0225.1249,1.6636.2229,3.3369.2842,5.0225.0636,1.666.1004,3.3394.1004,5.0225s-.0368,3.3565-.1004,5.0225c-.0613,1.6856-.1593,3.3589-.2842,5.0225-.1275,1.6881-.2867,3.3614-.4753,5.0225-.3871,3.4202-.9041,6.7742-1.5411,10.045-.3307,1.6979-.6909,3.3737-1.0878,5.0225-.4067,1.7027-.8453,3.381-1.3181,5.0225-1.0143,3.5108-2.1854,6.8624-3.4839,10.045-.708,1.7346-1.4602,3.403-2.2442,5.0225-.8452,1.742-1.7272,3.4251-2.6607,5.0225-2.2124,3.7999-4.655,7.1908-7.31325,10.045-.87465.9383-1.76645,1.8277-2.68275,2.6485-1.7101,1.5312-4.0327,2.374-6.5415,2.374h-11.1377ZM251.502296,45.2025h-105.232396c-.9114-3.4692-1.9551-6.8232-3.1262-10.045h104.482697c1.4847,3.087,2.7709,6.446,3.8759,10.045ZM255.392896,65.2925h-105.516596c-.3552-3.4129-.8232-6.7645-1.4088-10.045h105.489696c.6051,3.1997,1.0829,6.5513,1.4357,10.045ZM256.147496,80.36c0,1.7077-.0417,3.3688-.0931,5.0225h-105.479796c.0563-1.666.1004-3.3369.1004-5.0225,0-1.6831-.0441-3.3565-.1004-5.0225h105.479796c.0514,1.6537.0931,3.3173.0931,5.0225ZM253.957196,105.4725h-105.489696c.5856-3.2805,1.056-6.6297,1.4088-10.045h105.516596c-.3528,3.4937-.8306,6.8453-1.4357,10.045ZM247.626397,125.5625h-104.482697c1.1711-3.2193,2.2148-6.5734,3.1262-10.045h105.232396c-1.105,3.6015-2.3912,6.9605-3.8759,10.045ZM229.694897,15.0675c4.4296,2.4476,8.3349,5.8212,11.6987,10.045h-102.544797c-1.7909-3.6039-3.7509-6.9751-5.8897-10.045h96.735797ZM138.8488,135.6075h102.544797c-3.3638,4.2238-7.2691,7.5974-11.6987,10.045h-96.735797c2.1413-3.0674,4.0988-6.4411,5.8897-10.045ZM291.305,15.0675c2.771,0,5.022495,2.2516,5.022495,5.0225s-2.251495,5.0225-5.022495,5.0225h-11.828604c-1.7885-3.6039-3.7485-6.9751-5.8873-10.045h17.715904ZM306.372495,40.18c0,2.7709-2.251495,5.0225-5.022495,5.0225h-14.450104c-.9114-3.4692-1.9551-6.8232-3.1287-10.045h17.578804c2.771,0,5.022495,2.2516,5.022495,5.0225ZM306.372495,55.2475c2.771,0,5.022505,2.2515,5.022505,5.0225s-2.251505,5.0225-5.022505,5.0225h-15.8662c-.3552-3.4129-.8232-6.7645-1.4087-10.045h17.2749ZM279.476396,135.6075h16.8511c2.771,0,5.022505,2.2516,5.022505,5.0225s-2.251505,5.0225-5.022505,5.0225h-22.738399c2.1388-3.0674,4.0988-6.4411,5.8873-10.045ZM283.771196,125.5625c1.1736-3.2193,2.2173-6.5734,3.1287-10.045h14.450104c2.771,0,5.022495,2.2516,5.022495,5.0225s-2.251495,5.0225-5.022495,5.0225h-17.578804Z"/>
  </g>
</svg>