<?xml version="1.0" encoding="UTF-8"?>
<svg id="Layer_2" data-name="Layer 2" xmlns="http://www.w3.org/2000/svg" viewBox="0 0 321.44 322.0721">
  <g id="_Layer_" data-name="&amp;lt;Layer&amp;gt;">
    <g>
      <path d="M148.4798,178.2988l-1.6978-14.8814-9.9813,1.1369,1.5679,13.7445,1.0413,9.1385c.0367.3037-.0024.6027.0049.9065.0613,2.646-.86,5.216-2.7048,7.1564-1.6317,1.715-3.8024,2.7563-6.1054,3.0209-.5954.071-1.198.12-1.8056.0783l-8.2394-.5193-23.9659-1.5117c-.3699-.0294-.7375-.0539-1.1662-.0588-4.1111,0-8.1144.4655-11.9732,1.323-3.4814.7717-6.8428,1.8693-10.0449,3.2683-12.3774,5.3998-22.4004,15.2023-28.0893,27.4228-1.4871,3.1948-2.6778,6.5538-3.5378,10.045-1.0388,4.2287-1.6023,8.6437-1.6023,13.1884v5.0225h10.045v-5.0225c0-4.5864.6982-9.0135,1.9747-13.1884,1.0878-3.5622,2.6387-6.9138,4.5251-10.045,4.0646-6.7424,9.8074-12.3528,16.6846-16.2067,3.1359-1.7591,6.5071-3.1262,10.0449-4.1013,3.8196-1.051,7.8229-1.6611,11.9732-1.6611v-5.0225l.8134,5.0813,24.3187,1.5312,7.6048.4802c.8183.0441,1.6317.027,2.4402-.0245,5.047-.3209,9.8441-2.4597,13.3843-6.1788,3.6359-3.8245,5.5885-8.8642,5.5248-14.0777-.0098-.6787-.0441-1.3622-.1225-2.0458l-.9114-7.9992Z"/>
      <path d="M73.4094,190.2939c2.1192-.7594,4.2875-1.4087,6.4998-1.9501,1.1687-.2867,2.352-.5366,3.5451-.7596,3.8857-.7227,7.8817-1.1196,11.9732-1.1196h5.0225v-10.045h-5.0225c-4.0744,0-8.0703.3357-11.9732.9628-1.5778.2524-3.1384.566-4.6819.9164-1.813.4091-3.604.8721-5.363,1.4112-6.6297,2.0286-12.8625,4.9612-18.5784,8.6338-7.0707,4.5423-13.3329,10.2287-18.5269,16.8045-4.0327,5.1033-7.426,10.7335-10.045,16.78-.9286,2.1487-1.7566,4.3488-2.4867,6.5954-1.0584,3.2561-1.8939,6.6126-2.504,10.045-.7595,4.2851-1.1784,8.6878-1.1784,13.1884v30.135h10.045v-30.135c0-4.5153.463-8.9278,1.3402-13.1884.7104-3.4569,1.71-6.8085,2.9473-10.045.5758-1.5043,1.2005-2.984,1.8816-4.4345,7.35-15.6383,20.7148-27.9054,37.1053-33.7953Z"/>
      <path d="M214.8601,101.6529c-1.4382-.6859-2.9474-1.3426-4.5325-1.9477-8.8029-3.381-17.9095-4.4198-27.0897-3.1017-1.8546.2671-3.6799.6664-5.483,1.1442-3.4717.9212-6.838,2.2123-10.045,3.8636-10.6674,5.4904-19.5853,14.8029-24.9631,26.4624-.2205.4778-.4582.9433-.664,1.426l-1.982,4.6157,9.2316,3.9641,1.9796-4.6157c.8036-1.8718,1.7174-3.6677,2.7244-5.3901,3.5206-6.0123,8.2296-11.0568,13.6735-14.7881,3.1335-2.1487,6.5096-3.8515,10.045-5.0544,2.2466-.7644,4.5545-1.345,6.9065-1.6807,7.4529-1.0682,14.8838-.2156,22.072,2.5308,2.5162.9678,4.7922,2.0409,6.7669,3.1997l1.3598.7938,2.9743,1.742,5.0764-8.6681-4.3341-2.5406c-1.1637-.6811-2.4132-1.3304-3.7166-1.9552Z"/>
      <path d="M281.26.6321l-1.4529.2156c-4.0204,1.2152-7.6439,2.8616-10.9661,4.8069-10.0499,5.8898-17.1599,14.7441-22.7189,24.4143v-2.4452h-21.217V0h-10.045v27.6237h-37.1052V0h-10.045v27.6237h-37.1053V0h-10.045v27.6237h-37.1053V0h-10.0449v27.6237h-37.1053V0h-10.045v27.6237H.0196v10.0451h26.2395v40.18H.0196v10.045h26.2395v40.1799H.0196v10.045h26.2395v40.1801H.0196v10.045h24.179c-8.4475,9.479-15.0233,20.6486-19.1761,32.9304-.8036,2.3789-1.5312,4.7922-2.1486,7.2495H.0196v10.045h.9138c-.6002,4.3145-.9334,8.7123-.9334,13.1884v70.315h321.44V.6321h-40.18ZM311.395,312.0271H10.045v-60.27c0-4.4835.3528-8.8886,1.0216-13.1884.5342-3.4226,1.2887-6.7693,2.2173-10.045,2.7563-9.7264,7.1883-18.7498,12.9752-26.7392,3.0037-4.143,6.3651-8.0042,10.045-11.542.6664-.6394,1.3328-1.2789,2.0188-1.8987,4.1944-3.7829,8.771-7.1467,13.6539-10.045,6.6247-3.9323,13.8179-6.9973,21.4326-9.0307,3.2756-.8747,6.6296-1.5558,10.0449-2.036,3.9152-.5537,7.9086-.8575,11.9732-.8575,1.3573,0,2.6974.098,4.0352.1862l7.2887.4606-.6786-5.9535c-.4043-3.5403-.6003-6.7302-.6003-9.7608,0-4.4835.3528-8.8886,1.0217-13.1884.534-3.4226,1.2887-6.7693,2.2172-10.045,2.575-9.087,6.6077-17.564,11.8482-25.1541,2.9816-4.3169,6.3406-8.357,10.045-12.0515,1.0216-1.0168,2.0727-2.0066,3.1458-2.9743,4.1944-3.7804,8.771-7.1467,13.6538-10.045,6.2941-3.7387,13.11-6.6788,20.3057-8.7098,3.2756-.9237,6.6223-1.6783,10.045-2.2075,4.2703-.6615,8.646-1.0069,13.1001-1.0069,8.1242,0,16.17,1.1981,24.0051,3.5305,2.0948.6247,4.1772,1.3131,6.2377,2.0996,1.2936.4949,2.5578,1.0216,3.8073,1.5631,3.1262,1.3598,6.1078,2.8567,8.8837,4.4761l.4361.2549,6.5366,3.8195.2695-3.8195.3014-4.2337c.5292-7.4749,2.3593-14.8764,5.4365-21.9985,8.918-20.6339,18.3529-35.5152,35.253-40.9395h29.3731v301.35ZM83.4543,138.1187h12.9067c-.6003,4.3145-.9335,8.7123-.9335,13.1884,0,1.6342.049,3.3002.1495,5.0225h-.1495c-4.0572,0-8.0482.2842-11.9732.7791v-18.99ZM83.4543,87.8938h36.1719c-10.0842,11.314-17.52,25.0316-21.3249,40.1799h-14.847v-40.1799ZM242.1065,37.6688c-1.6292,3.3246-3.136,6.6738-4.557,9.9665-2.4989,5.7821-4.2825,11.7331-5.3262,17.7748-2.357-1.1294-4.8045-2.1781-7.3182-3.1458v-24.5955h17.2014ZM214.8601,37.6688v21.359c-7.8571-2.0751-15.8932-3.1482-24.0051-3.1482-4.4468,0-8.8151.3307-13.1001.9212v-19.132h37.1052ZM167.7099,37.6688v21.065c-13.796,3.4497-26.4111,9.9079-37.1053,18.6372v-39.7022h37.1053ZM120.5596,37.6688v40.18h-37.1053v-40.18h37.1053ZM36.3041,37.6688h37.1053v40.18h-37.1053v-40.18ZM36.3041,87.8938h37.1053v40.1799h-37.1053v-40.1799ZM73.4094,138.1187v20.803c-13.7543,3.2634-26.3596,9.506-37.1053,18.0124v-38.8154h37.1053Z"/>
      <path d="M228.7246,86.2694c-1.2102-.708-2.521-1.3573-3.8195-2.0139-2.3544-1.1858-4.7922-2.3177-7.3941-3.3124-.8795-.3356-1.7689-.6125-2.6509-.9163-2.4769-.8477-4.9662-1.5974-7.475-2.178-9.7093-2.2467-19.6392-2.4696-29.6302-.6983-.2058.0368-.4117.0563-.6199.0955-.9065.1691-1.7959.3994-2.6925.6028-2.2786.5193-4.5326,1.1147-6.7326,1.8522-5.9193,1.9845-11.5224,4.7628-16.7262,8.1928-7.8694,5.1842-14.7808,11.8996-20.3791,19.8082-4.1209,5.8237-7.5142,12.2843-10.045,19.257-.1348.3724-.2793.7399-.4091,1.1147-.1274.3651-.2769.7155-.397,1.0829-1.0706,3.2267-1.9281,6.1349-2.6043,8.9621-1.6268,6.7841-2.0947,13.0586-1.0976,21.8075l2.0996,18.3726.5121,4.4933,1.8963-.2181,8.0825-.9261-.3821-3.3491-2.2271-19.5119c-.9604-8.4133-.4067-13.8694,1.4774-20.6682.5046-1.8178,1.0829-3.7068,1.7762-5.8015.4043-1.2177.855-2.4084,1.3181-3.5917.0833-.2156.1543-.4386.2401-.6518,7.0462-17.5567,20.4673-31.1149,36.8652-37.6516,2.5431-1.0143,5.1572-1.8644,7.8326-2.5283.7325-.1814,1.47-.343,2.2124-.495.4091-.0857.8109-.1984,1.2225-.2743,9.1581-1.7101,18.2598-1.4358,27.1509.7693,2.6166.6492,5.2161,1.443,7.791,2.4279.3259.1249.6174.2719.9408.4018,3.158,1.2568,6.1299,2.6607,8.793,4.2189l1.252.7301,30.9753,18.0933,5.0642-8.6755-29.4416-17.1965-2.7784-1.6244Z"/>
    </g>
  </g>
</svg>