<?xml version="1.0" encoding="UTF-8"?>
<svg id="Layer_2" data-name="Layer 2" xmlns="http://www.w3.org/2000/svg" viewBox="0 0 321.44 321.44">
  <g id="_Layer_" data-name="&amp;lt;Layer&amp;gt;">
    <path d="M321.44,60.27v10.045h-80.36v110.495h40.18v115.5175H40.18v-115.5175h40.18v-110.495H0v-10.045h80.36V0h10.045v190.855h-40.18v95.4275h220.99v-95.4275h-40.18V0h10.045v60.27h80.36ZM5.022492,226.0125h10.045v-10.045H5.022492v10.045ZM10.045,165.7425v-10.045H0v10.045h10.045ZM30.135,170.765h10.045v-10.045h-10.045v10.045ZM40.18,120.54h-10.045v10.045h10.045v-10.045ZM20.09,95.4275h-10.045v10.045h10.045v-10.045ZM50.225,95.4275h10.045v-10.045h-10.045v10.045ZM60.27,150.675h10.045v-10.045h-10.045v10.045ZM261.17,85.3825h-10.045v10.045h10.045v-10.045ZM0,296.3275v10.045h10.045v-10.045H0ZM50.225,316.4175v5.0225h10.045v-10.045h-10.045v5.0225ZM105.472489,316.4175h10.045v-10.045h-10.045v10.045ZM205.922487,316.4175v5.0225h10.045v-10.045h-10.045v5.0225ZM231.035,316.4175h10.045v-10.045h-10.045v10.045ZM271.215,155.6975h-10.045v10.045h10.045v-10.045ZM286.282485,160.72h10.045v-10.045h-10.045v10.045ZM316.417484,125.5625h-10.045v10.045h10.045v-10.045ZM276.237485,115.5175h-10.045v10.045h10.045v-10.045ZM301.35,90.405h-10.045v10.045h10.045v-10.045ZM15.067492,286.2825h10.045v-10.045h-10.045v10.045ZM291.305,291.305h10.045v-10.045h-10.045v10.045ZM311.395,195.8775h-10.045v10.045h10.045v-10.045ZM311.395,241.08v10.045h10.045v-10.045h-10.045ZM311.395,311.395v10.045h10.045v-10.045h-10.045ZM80.36,205.9225h25.112489V10.045h10.045v5.0225h10.045v-5.0225h10.045v5.0225h50.224999v-5.0225h10.045v5.0225h10.045v-5.0225h10.045v195.8775h40.179999v10.045h-5.022486v25.1125h5.022486v10.045h-5.022486v10.045h5.022486v10.045H65.29249v-10.045h5.02251v-10.045h-5.02251v-10.045h5.02251v-25.1125h-5.02251v-10.045h15.06751ZM105.472489,261.17v-10.045h-25.112489v10.045h25.112489ZM205.922487,261.17v-10.045c-11.0789,0-20.089999-9.0087-20.089999-20.09v-15.0675h-50.224999v15.0675c0,11.0813-9.0111,20.09-20.089999,20.09v10.045h90.404998ZM115.517489,241.08c5.537,0,10.045-4.508,10.045-10.045v-15.0675h-10.045v25.1125ZM135.607489,205.9225h50.224999v-55.2475h-50.224999v55.2475ZM135.607489,140.63h50.224999v-55.2475h-50.224999v55.2475ZM205.922487,215.9675h-10.045v15.0675c0,5.537,4.508,10.045,10.045,10.045v-25.1125ZM241.08,251.125h-25.112513v10.045h25.112513v-10.045ZM215.967487,215.9675v25.1125h25.112513v-25.1125h-25.112513ZM205.922487,150.675h-10.045v55.2475h10.045v-55.2475ZM205.922487,85.3825h-10.045v55.2475h10.045v-55.2475ZM195.877487,25.1125v50.225h10.045V25.1125h-10.045ZM135.607489,25.1125v50.225h50.224999V25.1125h-50.224999ZM115.517489,75.3375h10.045V25.1125h-10.045v50.225ZM115.517489,140.63h10.045v-55.2475h-10.045v55.2475ZM115.517489,205.9225h10.045v-55.2475h-10.045v55.2475ZM80.36,215.9675v25.1125h25.112489v-25.1125h-25.112489Z"/>
  </g>
</svg>