<?xml version="1.0" encoding="UTF-8"?>
<svg id="Layer_2" data-name="Layer 2" xmlns="http://www.w3.org/2000/svg" viewBox="0 0 180.815629 321.44">
  <g id="_Layer_" data-name="&amp;lt;Layer&amp;gt;">
    <path d="M173.276602,96.1747c3.4839-2.0114,5.978-5.265,7.0193-9.1483,1.0412-3.8905.5071-7.9502-1.5044-11.4341-1.8105-3.1335-4.6501-5.4023-8.0237-6.5954v-16.8976c.8575-.3063,1.7027-.664,2.5088-1.1295,3.4839-2.009,5.978-5.2626,7.0193-9.1458,1.0412-3.8906.5071-7.9503-1.5044-11.4342-1.8105-3.1336-4.6501-5.4023-8.0237-6.5954V0h-10.045v20.9818l-55.2475-14.8053V0h-10.045v3.4839l-3.4079-.9138-.6591,2.4524h4.067v316.4175h10.045v-22.8977l55.2475,14.8053v8.0924h10.045v-8.1707c.8575-.3063,1.7027-.664,2.5088-1.1295,3.4839-2.009,5.978-5.2626,7.0193-9.1459,1.0412-3.8905.5071-7.9502-1.5044-11.4341-1.8105-3.1336-4.6501-5.4023-8.0237-6.5954v-16.8977c.8575-.3062,1.7027-.6639,2.5088-1.1294,3.4839-2.009,5.978-5.2626,7.0193-9.1458,1.0412-3.8907.5071-7.9503-1.5044-11.4342-1.8105-3.1335-4.6501-5.4022-8.0237-6.5954v-36.9876c.8575-.3063,1.7027-.664,2.5088-1.1295,3.4839-2.009,5.978-5.2626,7.0193-9.1459,1.0412-3.8905.5071-7.9502-1.5044-11.4341-1.8105-3.1336-4.6501-5.4023-8.0237-6.5954v-16.8977c.8575-.3062,1.7027-.6639,2.5088-1.1269,3.4839-2.0115,5.978-5.2651,7.0193-9.1483,1.0412-3.8907.5071-7.9503-1.5044-11.4342-1.8105-3.1336-4.6501-5.4022-8.0237-6.5954v-31.9651c.8575-.3063,1.7027-.664,2.5088-1.1271ZM170.593802,300.3945c-.3478,1.2936-1.1808,2.3789-2.3397,3.0503-.7767.4458-1.639.6516-2.5088.6516-.4361,0-.8722-.0342-1.3034-.1518l-3.7191-.9972-55.2475-14.8054v-10.3978l55.2475,14.8054,5.0225,1.345,1.2961.3479h.0024c1.2961.3479,2.3765,1.1785,3.0503,2.3398.6688,1.1588.8477,2.5112.4997,3.8122ZM167.041402,33.0725h.0024c1.2961.3479,2.3765,1.1785,3.0503,2.3398.6688,1.1588.8477,2.5113.4997,3.8122-.3478,1.2936-1.1808,2.379-2.3397,3.0503-.7767.4434-1.639.6517-2.5088.6517-.4361,0-.8722-.0344-1.3034-.1519l-3.7191-.9972-55.2475-14.8054v-10.3977l55.2475,14.8053,5.0225,1.3451,1.2961.3478ZM160.722802,86.9799l-55.2475-14.8054v-10.3978l55.2475,14.8054,5.0225,1.345,1.2961.348h.0024c1.2961.3503,2.3765,1.1784,3.0503,2.3397.6688,1.1589.8477,2.5112.4997,3.8122-.3478,1.2936-1.1808,2.3789-2.3397,3.0503-.7767.4483-1.639.6541-2.5088.6541-.4361-.0025-.8722-.0367-1.3034-.1544l-3.7191-.9971ZM105.475302,37.3698l55.2475,14.8078v14.0067l-55.2475-14.8054v-14.0091ZM105.475302,82.5723l55.2475,14.8078v29.0742l-55.2475-14.8053v-29.0767ZM105.475302,142.8424l55.2475,14.8078v14.0066l-55.2475-14.8054v-14.009ZM105.475302,188.0448l55.2475,14.8078v34.0967l-55.2475-14.8053v-34.0992ZM105.475302,253.3374l55.2475,14.8078v14.0066l-55.2475-14.8054v-14.009ZM170.593802,255.192c-.3478,1.2936-1.1808,2.379-2.3397,3.0502-.7767.4484-1.639.6542-2.5088.6542-.4361-.0024-.8722-.0368-1.3034-.1543l-3.7191-.9972-55.2475-14.8053v-10.3978l55.2475,14.8053,5.0225,1.3475,1.2961.3455h.0024c1.2961.3478,2.3765,1.1784,3.0503,2.3397.6688,1.1588.8477,2.5113.4997,3.8122ZM170.593802,189.8995c-.3478,1.2936-1.1808,2.3789-2.3397,3.0503-.7767.4483-1.639.6541-2.5088.6541-.4361-.0025-.8722-.0367-1.3034-.1544l-3.7191-.9971-55.2475-14.8054v-10.3978l55.2475,14.8054,5.0225,1.3475,1.2961.3454h.0024c1.2961.348,2.3765,1.1785,3.0503,2.3398.6688,1.1589.8477,2.5112.4997,3.8122ZM170.593802,144.697c-.3478,1.2936-1.1808,2.379-2.3397,3.0502-.7767.4459-1.639.6518-2.5088.6518-.4361,0-.8722-.0344-1.3034-.1519l-3.7191-.9972-55.2475-14.8053v-10.3978l55.2475,14.8053,5.0225,1.3475,1.2961.3454h.0024c1.2961.3504,2.3765,1.1785,3.0503,2.3398.6688,1.1588.8477,2.5113.4997,3.8122ZM85.385302,3.4839V0h-10.045v6.1765l-55.2475,14.8053V0h-10.045v23.7944c-3.3737,1.1931-6.2132,3.4618-8.0238,6.5954C.012602,33.8737-.521498,37.9334.519802,41.824c1.0412,3.8832,3.5353,7.1368,7.0192,9.1458.8061.468,1.6513.8256,2.5088,1.1319v16.8952c-3.3737,1.1931-6.2132,3.4619-8.0238,6.5954-2.0114,3.4839-2.5455,7.5436-1.5042,11.4341,1.0412,3.8833,3.5353,7.1369,7.0192,9.1483.8061.4656,1.6513.8233,2.5088,1.1295v31.9627c-3.3737,1.1932-6.2132,3.4618-8.0238,6.5954-2.0114,3.4839-2.5455,7.5435-1.5042,11.4342,1.0412,3.8832,3.5353,7.1368,7.0192,9.1483.8061.4654,1.6513.8231,2.5088,1.1294v16.8952c-3.3737,1.1931-6.2132,3.4618-8.0238,6.5954-2.0114,3.4839-2.5455,7.5436-1.5042,11.4341,1.0412,3.8833,3.5353,7.1369,7.0192,9.1459.8061.468,1.6513.8257,2.5088,1.1319v36.9852c-3.3737,1.1932-6.2132,3.4619-8.0238,6.5954-2.0114,3.4839-2.5455,7.5435-1.5042,11.4342,1.0412,3.8832,3.5353,7.1368,7.0192,9.1458.8061.4679,1.6513.8256,2.5088,1.1319v16.8952c-3.3737,1.1931-6.2132,3.4618-8.0238,6.5954-2.0114,3.4839-2.5455,7.5436-1.5042,11.4341,1.0412,3.8833,3.5353,7.1369,7.0192,9.1459.8061.468,1.6513.8256,2.5088,1.1319v8.1683h10.045v-8.0924l55.2475-14.8053v22.8977h10.045V5.0225h4.0645l-.6565-2.4524-3.408.9138ZM16.368802,303.9446c-.4312.1176-.8648.1543-1.2985.1543-.8722.0025-1.7346-.2083-2.5088-.6541-1.1589-.6714-1.9918-1.7567-2.3398-3.0503-.3478-1.301-.169-2.6534.4999-3.8122.6737-1.1613,1.7542-1.9919,3.0477-2.3398l1.301-.3479,5.0225-1.345,55.2475-14.8054v10.3978l-55.2475,14.8054-3.724.9972ZM10.721602,35.4123c.6737-1.1613,1.7542-1.9919,3.0477-2.3398l1.301-.3478,5.0225-1.3451,55.2475-14.8053v10.3977l-55.2475,14.8054-3.724.9972c-.4312.1175-.8648.1543-1.2985.1543-.8722.0025-1.7346-.2083-2.5088-.6541-1.1589-.6713-1.9918-1.7567-2.3398-3.0503-.3478-1.3009-.169-2.6534.4999-3.8122ZM10.721602,80.6148c.6737-1.1613,1.7542-1.9894,3.0477-2.3397l1.301-.348,5.0225-1.345,55.2475-14.8054v10.3978l-55.2475,14.8054-3.724.9971c-.4312.1152-.8648.1519-1.2985.1519-.8722.0025-1.7346-.2057-2.5088-.6516-1.1589-.6714-1.9918-1.7567-2.3398-3.0503-.3478-1.301-.169-2.6533.4999-3.8122ZM10.721602,140.8848c.6737-1.1613,1.7542-1.9894,3.0477-2.3398l1.301-.3478,5.0225-1.3451,55.2475-14.8053v10.3978l-55.2475,14.8053-3.724.9972c-.4312.1151-.8648.1519-1.2985.1519-.8722.0024-1.7346-.2059-2.5088-.6518-1.1589-.6712-1.9918-1.7566-2.3398-3.0502-.3478-1.3009-.169-2.6534.4999-3.8122ZM10.721602,186.0873c.6737-1.1613,1.7542-1.9918,3.0477-2.3398l1.301-.3479,5.0225-1.345,55.2475-14.8054v10.3978l-55.2475,14.8054-3.724.9971c-.4312.1152-.8648.1519-1.2985.1519-.8722.0025-1.7346-.2058-2.5088-.6516-1.1589-.6714-1.9918-1.7567-2.3398-3.0503-.3478-1.301-.169-2.6533.4999-3.8122ZM10.721602,251.3798c.6737-1.1613,1.7542-1.9919,3.0477-2.3397l1.301-.3479,5.0225-1.3451,55.2475-14.8053v10.3978l-55.2475,14.8053-3.724.9972c-.4312.1151-.8648.1519-1.2985.1519-.8722.0024-1.7346-.2058-2.5088-.6518-1.1589-.6712-1.9918-1.7566-2.3398-3.0502-.3478-1.3009-.169-2.6534.4999-3.8122ZM75.340302,267.3464l-55.2475,14.8054v-14.0091l55.2475-14.8053v14.009ZM75.340302,222.144l-55.2475,14.8053v-34.0991l55.2475-14.8054v34.0992ZM75.340302,156.8514l-55.2475,14.8054v-14.0066l55.2475-14.8078v14.009ZM75.340302,111.649l-55.2475,14.8053v-29.0766l55.2475-14.8054v29.0767ZM75.340302,51.3789l-55.2475,14.8054v-14.0091l55.2475-14.8054v14.0091Z"/>
  </g>
</svg>