<?xml version="1.0" encoding="UTF-8"?>
<svg id="Layer_2" data-name="Layer 2" xmlns="http://www.w3.org/2000/svg" viewBox="0 0 321.44 175.679299">
  <g id="_Layer_" data-name="&amp;lt;Layer&amp;gt;">
    <path d="M315.312595,18.967403c.1298-.4802.2302-.9628.3087-1.443h5.818705V7.479403h-7.678305c-1.9331-3.312413-5.1156-5.8947-9.1018-6.9629-6.6958-1.8007-13.5558,1.247-16.9001,6.9629h-34.268099c-1.933-3.312413-5.1156-5.8947-9.101696-6.9629-6.700803-1.8007-13.558403,1.247-16.900103,6.9629h-34.268197c-1.9331-3.312413-5.1156-5.8947-9.1017-6.9629-6.7081-1.8007-13.5608,1.247-16.9001,6.9629h-34.2682c-1.9331-3.3099-5.1156-5.8947-9.1042-6.9629-6.70075-1.7836-13.55585,1.252-16.89765,6.9629h-56.72485v.3479C22.1088,11.531703,0,45.993402,0,87.839401s22.1088,76.307698,50.225,80.014498v.3455h17.7233c1.9331,3.3124,5.1156,5.8947,9.1042,6.9654,1.301.3478,2.6068.5145,3.8931.5145,5.3287,0,10.2679-2.8861,12.9654-7.4799h34.3073c1.9331,3.3124,5.1156,5.8947,9.1042,6.9654,1.301.3478,2.6068.5145,3.8931.5145,5.3287,0,10.2679-2.8861,12.9654-7.4799h34.3073c1.933,3.3124,5.1156,5.8972,9.1017,6.9654,1.2985.3478,2.6093.5145,3.8931.5145,5.3287,0,10.2679-2.8861,12.965397-7.4799h34.309799c1.9331,3.3124,5.1156,5.8972,9.1018,6.9654,1.2985.3478,2.6092.5145,3.893.5145,5.3288,0,10.268-2.8861,12.9654-7.4799h46.721504v-10.045h-43.421304l14.8077-55.247499h28.613605v-10.045H110.37495c.07105-1.6611.12005-3.3345.12005-5.0225s-.049-3.359-.12005-5.0225h211.06505v-10.045h-20.543305l14.4159-53.801999v-.0025ZM282.421296,102.906901l-14.8029,55.247499-1.0045,3.7534c-.124896.4631-.3283.8771-.5635,1.2691-1.1245,1.8743-3.3712,2.8714-5.5909,2.2858-1.3132-.3528-2.3593-1.2005-3.0061-2.2858-.671396-1.1245-.9115-2.5064-.546396-3.8685l.308696-1.154,14.8078-55.247499h10.3978ZM247.205,156.711399v.0024c-.127403.48019-.227903.9604-.306303,1.4406h-29.150099l14.8078-55.247499h29.066899l-14.418296,53.804499ZM222.151297,102.906901l-14.802897,55.247499-1.0045,3.7534c-.125.4631-.3283.8771-.5635,1.2691-1.1246,1.8743-3.3712,2.8714-5.5909,2.2858-1.3132-.3528-2.3594-1.2005-3.0061-2.2858-.6713-1.1245-.9114-2.5064-.5464-3.8685l.3087-1.154,14.807797-55.247499h10.3978ZM186.935,156.711399v.0024c-.1274.48019-.2279.9604-.3062,1.4406h-29.1502l14.8078-55.247499h29.0668l-14.4182,53.804499ZM161.8837,102.906901l-14.8029,55.247499-1.0069,3.7534c-.1225.4631-.3283.8771-.5635,1.2691-1.1295,1.8718-3.3932,2.8714-5.586,2.2858-1.2764-.3405-2.3398-1.1539-3.0111-2.2858-.0122-.0196-.0293-.0368-.0416-.0563-.6713-1.1614-.8501-2.5138-.5023-3.8074l.3112-1.1588,14.8029-55.247499h10.4002ZM126.6674,156.708899c-.1273.4802-.2303.9628-.3087,1.4455h-29.1501l14.80295-55.247499h29.07175l-14.4159,53.801999ZM50.225,17.970303c1.6489-.2866,3.3246-.4459,5.0225-.4459h0c1.6978,0,3.3712.1593,5.0225.4459,14.5309,2.5112,26.999,15.7804,34.0427,34.559687,1.0658,2.846912,2.0091,5.816312,2.8151,8.895912.931,3.5624,1.6807,7.2668,2.227,11.0912.0123.0858.027.169.0393.2548.2327,1.6537.4312,3.327088.588,5.0225.1519,1.6562.2621,3.332.3405,5.0225.076,1.661089.1274,3.332.1274,5.0225s-.0514,3.3614-.1274,5.0225c-.0784,1.6905-.1886,3.3663-.3405,5.0225-.1568,1.6954-.3553,3.3688-.588,5.0225-2.6265,18.637089-10.0157,34.520499-20.0802,44.408699-2.107,2.0703-4.3243,3.8882-6.6469,5.4022-1.9527,1.2741-3.9739,2.3423-6.0515,3.1826-2.0629.833-4.1822,1.4357-6.3455,1.81059-1.6513.28411-3.3247.44341-5.0225.44341h0c-1.6979,0-3.3736-.1593-5.0225-.44341-22.5669-3.90049-40.18-33.74139-40.18-69.871589S27.6581,21.870703,50.225,17.970303ZM103.69135,17.524403l-5.37525,20.065499c-4.4958-8.134-10.0475-14.972-16.3611-20.065499h21.73635ZM121.2456,10.216103c1.2764.343,2.3398,1.1564,3.0111,2.2858.0122.022.0293.0367.0391.0563.6738,1.163787.8526,2.5137.5048,3.809787l-.3112,1.156413-14.8029,55.247499h-.17885c-.9457-7.2128-2.5529-14.0875-4.73095-20.484399l9.31245-34.763099,1.00695-3.7509c.1225-.4631.32585-.8796.56105-1.2716,1.127-1.8743,3.38345-2.8763,5.58845-2.2858ZM79.6544,165.462699c-1.2764-.3405-2.3398-1.1539-3.0111-2.2858-.0122-.0196-.0293-.0368-.0416-.0563-.1715-.299-.3087-.612609-.4165-.9311,1.9845-1.1882,3.9102-2.5333,5.7698-4.0351,2.2687-1.8301,4.4394-3.8783,6.4998-6.1372l-1.6464,6.1372-1.0045,3.7534c-.1225.4631-.3283.8771-.5635,1.2691-1.1245,1.8718-3.381,2.8714-5.586,2.2858ZM134.5026,18.972303c.1273-.4826.2303-.9652.3087-1.4479h29.1501l-14.8029,55.247499h-29.07175l14.41585-53.799599ZM181.5205,10.216103c1.3132.3528,2.3594,1.2005,3.0062,2.2858.6713,1.127.9089,2.5088.5463,3.871l-.3087,1.1515-14.8078,55.247499h-10.4002l14.8029-55.247499,1.0069-3.7509c.1249-.4631.3283-.8796.5635-1.2716,1.127-1.8718,3.3834-2.8641,5.5909-2.2858ZM194.7726,18.969903v-.0025c.1298-.4802.2302-.9628.3087-1.443h29.150097l-14.807797,55.247499h-29.0669l14.4159-53.801999ZM241.790497,10.216103c1.3132.3528,2.3594,1.2005,3.0061,2.2858.671403,1.127.909,2.5088.546403,3.871l-.308703,1.1515-14.8078,55.247499h-10.4002l14.8029-55.247499,1.0069-3.7509c.125-.4631.3283-.8796.5635-1.2716,1.1246-1.8718,3.3712-2.8641,5.5909-2.2858ZM255.045,18.969903v-.0025c.127396-.4802.227896-.9628.306196-1.443h29.150099l-14.8078,55.247499h-29.066699l14.418203-53.801999ZM280.096196,72.771901l14.8029-55.247499,1.007-3.7509c.124905-.4631.3283-.8796.5635-1.2716,1.1245-1.8718,3.3712-2.8641,5.5909-2.2858,1.3132.3528,2.3593,1.2005,3.0062,2.2858.6712,1.127.9089,2.5088.546305,3.871l-.308705,1.1515-14.8078,55.247499h-10.4003Z"/>
  </g>
</svg>