<?xml version="1.0" encoding="UTF-8"?>
<svg id="Layer_2" data-name="Layer 2" xmlns="http://www.w3.org/2000/svg" viewBox="0 0 180.810696 321.44">
  <g id="_Layer_" data-name="&amp;lt;Layer&amp;gt;">
    <path d="M180.082296,117.6416c.9849-2.0408.9702-4.3904-.0392-6.6125-1.4038-3.087-4.914696-5.978-9.275696-8.5701v-48.5198c3.998397-2.8444,7.146697-5.9266,8.258896-9.0748.7105-2.0114.610104-4.0303-.1812-5.8236.4899-.5292.9212-1.1025,1.2372-1.7543v-.0049c.9849-2.0408.9702-4.3903-.0392-6.6125-1.4038-3.087-4.914696-5.978-9.275696-8.5701V0h-10.045v17.1279c-8.325103-3.5059-16.706603-5.9241-19.506903-6.6958-4.483497-1.2299-19.984697-5.216-32.704997-5.4096h-1.8204c-.4067.0073-.8158.0122-1.2152.0269V0h-10.045v321.44h10.045v-5.0936c.2205.0025.4337.0172.6566.0172,13.9601,0,33.4082-6.642,36.428997-7.7004,2.6338-.9261,10.4175-3.7852,18.161903-7.7052v20.482h10.045v-26.4208c3.998397-2.8445,7.146697-5.9266,8.258896-9.0748.7105-2.0139.610104-4.0303-.1812-5.8236.4899-.5292.9212-1.1025,1.2372-1.7543v-.0049c.9849-2.0408.9702-4.3903-.0392-6.6125-1.4038-3.087-4.914696-5.978-9.275696-8.5701v-48.5198c3.998397-2.842,7.146697-5.9265,8.258896-9.0748.7105-2.0139.610104-4.0303-.1812-5.8236.4899-.5292.9212-1.1025,1.2372-1.7542v-.0049c.9849-2.0409.9702-4.3904-.0392-6.6126-1.4038-3.087-4.914696-5.978-9.275696-8.5701v-48.5198c3.998397-2.8445,7.146697-5.9266,8.258896-9.0748.7105-2.0115.610104-4.0302-.1812-5.8237.4899-.5292.9212-1.1025,1.2372-1.7541v-.005ZM165.744897,286.3192c-1.3279.9776-3.0013,2.0752-5.022497,3.2537-5.007803,2.9204-12.139803,6.3234-21.4987,9.6137-15.168,5.3362-27.32,7.1981-33.7488,7.1981v-1.9477c4.6182-3.4031,13.3843-8.2443,26.5188-12.8625,11.8457-4.165,21.846597-6.2156,28.7287-6.9163,1.933-.1961,3.611297-.2843,5.022497-.2843.8599,0,1.6268.0319,2.2761.0956-.5905.5488-1.3598,1.1736-2.2761,1.8497ZM165.744897,274.2701c-1.4406.0466-3.1188.0295-5.022497-.071-6.732603-.3528-16.268-1.7321-28.0598-4.971-12.9581-3.5526-21.9961-7.5608-27.1877-10.6233v-2.4426c6.5268-.2205,17.9561.8918,33.0823,5.0372,9.476697,2.6043,16.848697,5.4488,22.1652,7.9895,1.952597.9309,3.626,1.8228,5.022497,2.646,1.35.7962,2.4549,1.5312,3.285503,2.1756-.891903.1323-2.004103.218-3.285503.2596ZM105.4749,269.9483c9.7143,4.7261,21.1582,8.0458,24.5294,8.9719,1.029.2842,2.668.7155,4.6966,1.2103-2.9963.9188-5.1842,1.6685-6.0417,1.9699-3.2095,1.1294-14.0654,5.1278-23.1843,10.4271v-22.5792ZM160.7224,258.2079c-8.325103-3.5059-16.706603-5.9265-19.506903-6.6958-4.848597-1.3304-22.574297-5.8874-35.740597-5.3827v-10.1429c.2205.0024.4337.0171.6566.0171,13.9601,0,33.4082-6.642,36.428997-7.7004,2.6338-.9261,10.4175-3.7852,18.161903-7.7052v37.6099ZM165.744897,193.9101c-1.4406.0466-3.1188.0294-5.022497-.071-6.732603-.3528-16.268-1.7322-28.0598-4.9711-12.9581-3.5524-21.9961-7.5607-27.1877-10.6232v-2.4426c6.5268-.2181,17.9561.8894,33.0823,5.0372,9.476697,2.6043,16.848697,5.4488,22.1652,7.9894,1.952597.9335,3.626,1.8228,5.022497,2.6461,1.35.7962,2.4549,1.5312,3.285503,2.1755-.891903.1299-2.004103.2181-3.285503.2597ZM105.4749,189.5884c9.7143,4.726,21.1582,8.0457,24.5294,8.9718,1.029.2842,2.668.7155,4.6966,1.2103-2.9963.9188-5.1842,1.6685-6.0417,1.9698-3.2095,1.1295-14.0654,5.1279-23.1843,10.4273v-22.5792ZM165.744897,205.9593c-1.3279.9799-3.0013,2.0751-5.022497,3.2536-5.007803,2.9203-12.139803,6.3234-21.4987,9.6138-15.168,5.3336-27.32,7.1882-33.7488,7.1931v-1.9428c4.6182-3.403,13.3843-8.2443,26.5188-12.8625,11.8457-4.165,21.846597-6.2181,28.7287-6.9188,1.933-.196,3.611297-.2842,5.022497-.2817.8599,0,1.6268.0294,2.2761.0931-.5905.5512-1.3598,1.1759-2.2761,1.8522ZM160.7224,177.8455c-8.325103-3.5035-16.706603-5.9241-19.506903-6.6934-4.848597-1.3254-22.574297-5.8849-35.740597-5.3802v-10.1455c.2205.0025.4337.0172.6566.0172,13.9601,0,33.4082-6.6395,36.428997-7.7003,2.6338-.9261,10.4175-3.7853,18.161903-7.7053v37.6075ZM165.744897,45.2392c-1.3279.9776-3.0013,2.0752-5.022497,3.2537-5.007803,2.9203-12.139803,6.3234-21.4987,9.6137-15.168,5.3361-27.32,7.1933-33.7488,7.1957v-1.9453c4.6182-3.4031,13.3843-8.2443,26.5188-12.8625,11.8457-4.165,21.846597-6.2156,28.7287-6.9139,1.933-.196,3.611297-.2842,5.022497-.2842.8599,0,1.6268.0294,2.2761.0906-.5905.5513-1.3598,1.1761-2.2761,1.8522ZM169.0304,32.9305c-.891903.1298-2.004103.218-3.285503.2596-1.4406.0466-3.1188.027-5.022497-.0735-6.732603-.3527-16.268-1.7297-28.0598-4.9686-12.9581-3.5525-21.9961-7.5607-27.1877-10.6232v-2.4426c6.5268-.218,17.9561.8918,33.0823,5.0372,9.476697,2.6043,16.848697,5.4488,22.1652,7.9895,1.952597.931,3.626,1.8227,5.022497,2.646,1.35.7962,2.4549,1.5336,3.285503,2.1756ZM105.4749,28.8683c9.7143,4.7261,21.1582,8.0458,24.5294,8.9719,1.029.2842,2.6656.7155,4.6942,1.2103-2.9939.9188-5.1818,1.6685-6.0393,1.9674-3.2095,1.1319-14.0654,5.1303-23.1843,10.4296v-22.5792ZM105.4749,75.2664c.2205.0025.4337.0172.6566.0172,13.9601,0,33.4082-6.642,36.428997-7.7004,2.6338-.9261,10.4175-3.7852,18.161903-7.7052v37.6075c-8.325103-3.5035-16.706603-5.9241-19.506903-6.6934-4.848597-1.3304-22.574297-5.8873-35.740597-5.3827v-10.143ZM138.5572,100.4794c9.476697,2.6044,16.848697,5.4488,22.1652,7.9894,1.952597.931,3.626,1.8229,5.022497,2.646,1.35.7963,2.4549,1.5313,3.285503,2.1757-.891903.1323-2.004103.218-3.285503.2597-1.4406.0465-3.1188.0293-5.022497-.0711-6.732603-.3528-16.268-1.7321-28.0598-4.971-12.9581-3.5525-21.9961-7.5607-27.1877-10.6232v-2.4427c6.5268-.218,17.9561.8942,33.0823,5.0372ZM105.4749,109.2284c9.7143,4.726,21.1582,8.0458,24.5294,8.9719,1.029.2842,2.6656.7153,4.6942,1.2103-2.9939.9187-5.1818,1.6684-6.0393,1.9673-3.2095,1.1319-14.0654,5.1303-23.1843,10.4296v-22.5791ZM165.744897,125.5993c-1.3279.9775-3.0013,2.0751-5.022497,3.2535-5.007803,2.9205-12.139803,6.3235-21.4987,9.6139-15.168,5.3336-27.32,7.2005-33.7488,7.198v-1.9477c4.6182-3.4031,13.3843-8.2442,26.5188-12.8625,11.8457-4.165,21.846597-6.2205,28.7287-6.9212,1.933-.1961,3.611297-.2818,5.022497-.2818.8599,0,1.6268.0319,2.2761.0956-.5905.5512-1.3598,1.176-2.2761,1.8522ZM75.3399,5.0225v.0122c-.1176-.0024-.223-.0122-.343-.0122-9.1948,0-22.9271,2.8983-36.7451,7.7543-3.71175,1.3058-11.0152,4.0449-18.1594,7.6586V0h-10.045v26.3963c-5.0911,3.6554-8.7612,7.7346-8.7612,11.9168,0,1.0461.2205,2.0751.637,3.0233-.4655.5316-.8796,1.0952-1.1883,1.7322-.4875,1.0118-.7349,2.0898-.7349,3.2094,0,4.4346,4.2458,8.504,10.0474,11.9953v48.483c-5.0911,3.6554-8.7612,7.7346-8.7612,11.9143,0,1.0487.2205,2.0776.637,3.0258-.4655.5317-.8796,1.0951-1.1883,1.7321-.4875,1.0119-.7349,2.0899-.7349,3.2096,0,4.4344,4.2458,8.5039,10.0474,11.9951v48.4831c-5.0911,3.6554-8.7612,7.7347-8.7612,11.9143,0,1.0486.2205,2.0777.637,3.0258-.4655.5317-.8796,1.0952-1.1883,1.7321-.4875,1.0119-.7349,2.0899-.7349,3.2095,0,4.4345,4.2458,8.504,10.0474,11.9953v48.483c-5.0911,3.6554-8.7612,7.7346-8.7612,11.9144,0,1.0485.2205,2.0775.637,3.0257-.4655.5316-.8796,1.0952-1.1883,1.7322-.4875,1.0118-.7349,2.0898-.7349,3.2094,0,4.4346,4.2458,8.504,10.0474,11.9953v22.0867h10.045v-17.0936c7.6685,3.2364,15.52075,5.5663,19.5069,6.6615,12.5464,3.4374,24.941,5.4096,34.0035,5.4096.6126,0,1.1613-.0318,1.7371-.049v5.0715h10.045V0h-10.045v5.0225ZM15.0699,276.2032c1.3279-.9775,3.0012-2.0751,5.0225-3.2536,5.0078-2.918,12.13485-6.3235,21.49385-9.6163,12.61015-4.4344,25.41135-7.1858,33.41065-7.1858.125,0,.223.0073.343.0073v1.9258c-4.6182,3.403-13.3819,8.2442-26.51635,12.8649-10.39535,3.6529-20.87395,6.1372-28.73115,6.9066-1.6783.1641-3.2781.2793-4.6869.2793-.1225,0-.218-.0074-.3356-.0074-.8845-.0098-1.639-.049-2.2344-.1103.5831-.5389,1.3402-1.1515,2.2344-1.8105ZM11.8335,288.5438c.8207-.1224,1.8914-.2254,3.2364-.2743.5365-.0196,1.105-.0344,1.7346-.0344,1.0437,0,2.1438.0319,3.2879.0907,7.8351.4018,17.836,2.1609,28.05985,4.9613,12.95805,3.5573,21.99605,7.5656,27.18765,10.6281v2.4254c-.5366.0197-1.105.0319-1.7371.0319-8.205,0-19.6318-1.8424-31.34525-5.0519-9.4766-2.6043-16.84865-5.4463-22.16515-7.987-1.9527-.9335-3.6285-1.8252-5.0225-2.6485-1.3255-.7815-2.4132-1.5067-3.2364-2.1413ZM75.3399,292.5349c-9.0258-4.4247-19.6612-7.5974-24.5294-8.9351-1.55085-.4239-3.09925-.8257-4.6403-1.2055,1.9845-.6198,3.98125-1.269,5.9853-1.9722,4.5938-1.617,14.6976-5.4243,23.1844-10.3757v22.4885ZM75.3399,246.1147c-.1176-.0024-.223-.0122-.343-.0122-9.1948,0-22.9271,2.8983-36.7451,7.7543-3.71175,1.3058-11.0152,4.0449-18.1594,7.6587v-37.5292c7.6685,3.2365,15.52075,5.5665,19.5069,6.6616,12.5464,3.4374,24.941,5.4096,34.0035,5.4096.6126,0,1.1613-.0318,1.7371-.049v10.1062ZM15.0699,195.8432c1.3279-.9776,3.0012-2.0751,5.0225-3.2536,5.0078-2.9179,12.13485-6.3235,21.49385-9.6162,12.61015-4.4346,25.41135-7.1859,33.41065-7.1859.125,0,.223.0074.343.0074v1.9256c-4.6182,3.4031-13.3819,8.2443-26.51635,12.865-10.39535,3.653-20.87395,6.1373-28.73115,6.9066-1.6783.1641-3.2781.2792-4.6869.2792-.1225,0-.218-.0073-.3356-.0073-.8845-.0098-1.639-.049-2.2344-.1102.5831-.5391,1.3402-1.1491,2.2344-1.8106ZM42.25755,220.9606c-9.4766-2.6043-16.84865-5.4488-22.16515-7.987-1.9527-.9334-3.6285-1.8253-5.0225-2.6485-1.3255-.7815-2.4132-1.5067-3.2364-2.1412.8207-.1226,1.8914-.2254,3.2364-.2745.5365-.022,1.105-.0342,1.7346-.0342,1.0437,0,2.1438.0318,3.2879.0906,7.8351.4018,17.836,2.1609,28.05985,4.9612,12.95805,3.5575,21.99605,7.5657,27.18765,10.6282v2.4255c-.5366.0196-1.105.0318-1.7371.0318-8.205,0-19.6318-1.8449-31.34525-5.0519ZM75.3399,212.1725c-9.0258-4.4223-19.6612-7.5951-24.5294-8.9328-1.55085-.4238-3.09925-.828-4.6403-1.2053,1.98695-.6199,3.98125-1.2692,5.9853-1.9723,4.5938-1.617,14.6976-5.4243,23.1844-10.3758v22.4862ZM75.3399,165.7523c-.1176,0-.223-.0098-.343-.0098-9.1948,0-22.9271,2.8983-36.7451,7.7543-3.71175,1.3058-11.0152,4.0449-18.1594,7.6586v-37.529c7.6685,3.2364,15.52075,5.5663,19.5069,6.6615,12.5464,3.4373,24.941,5.4096,34.0035,5.4096.6126,0,1.1613-.0294,1.7371-.049v10.1038ZM15.0699,115.4832c1.3279-.9776,3.0012-2.0752,5.0225-3.2536,5.0078-2.918,12.13485-6.3234,21.49385-9.6163,12.61015-4.4345,25.41135-7.1858,33.41065-7.1858.125,0,.223.0074.343.0074v1.9257c-4.6182,3.403-13.3819,8.2442-26.51635,12.8649-10.39535,3.653-20.87395,6.1372-28.73115,6.9065-1.6783.1642-3.2781.2794-4.6869.2794-.1225,0-.218-.0074-.3356-.0074-.8845-.0098-1.639-.049-2.2344-.1102.5831-.5391,1.3402-1.1516,2.2344-1.8106ZM42.25755,140.6006c-9.4766-2.6019-16.84865-5.4488-22.16515-7.987-1.9527-.9334-3.6285-1.8253-5.0225-2.6484-1.3255-.7816-2.4132-1.5068-3.2364-2.1413.8207-.1225,1.8914-.2255,3.2364-.2745.5365-.022,1.105-.0342,1.7346-.0342,1.0437,0,2.1438.0318,3.2879.0906,7.8351.4018,17.836,2.1634,28.05985,4.9613,12.95805,3.5573,21.99605,7.5655,27.18765,10.6256v2.4279c-.5366.0196-1.105.0319-1.7371.0319-8.205,0-19.6318-1.8449-31.34525-5.0519ZM75.3399,131.8125c-9.0258-4.4223-19.6612-7.595-24.5294-8.9328-1.55085-.4238-3.09925-.828-4.6403-1.2054,1.98695-.6198,3.98125-1.269,5.9853-1.9722,4.5938-1.617,14.6976-5.4243,23.1844-10.3757v22.4861ZM75.3399,85.3923c-.1176,0-.223-.0098-.343-.0098-9.1948,0-22.9271,2.8984-36.7451,7.7542-3.71175,1.3059-11.0152,4.045-18.1594,7.6588v-37.5292c7.6685,3.2365,15.52075,5.5664,19.5069,6.6616,12.5464,3.4374,24.941,5.4096,34.0035,5.4096.6126,0,1.1613-.0318,1.7371-.049v10.1038ZM15.0699,35.1232c1.3279-.9775,3.0012-2.0751,5.0225-3.2536,5.0078-2.9179,12.13485-6.3235,21.49385-9.6162,12.61015-4.4345,25.41135-7.1859,33.41065-7.1859.125,0,.223.0073.343.0073v1.9258c-4.6182,3.403-13.3819,8.2442-26.51635,12.8649-10.39535,3.6529-20.87395,6.1373-28.73115,6.9066-1.6783.1641-3.2781.2793-4.6869.2793-.1225,0-.218-.0074-.3356-.0074-.8845-.0098-1.639-.049-2.2344-.1103.5831-.5389,1.3402-1.1514,2.2344-1.8105ZM42.25755,60.2406c-9.4766-2.6043-16.84865-5.4463-22.16515-7.9895-1.9527-.931-3.6285-1.8227-5.0225-2.646-1.3255-.7815-2.4132-1.5067-3.2364-2.1413.8207-.1224,1.8914-.2253,3.2364-.2743.5365-.0196,1.105-.0344,1.7346-.0344,1.0437,0,2.1438.0319,3.2879.0907,7.8351.4018,17.836,2.1609,28.05985,4.9613,12.95805,3.5574,21.99605,7.5656,27.18765,10.6281v2.4255c-.5366.0196-1.105.0318-1.7371.0318-8.205,0-19.6318-1.8448-31.34525-5.0519ZM75.3399,51.4549c-9.0258-4.4247-19.6612-7.5974-24.5294-8.9351-1.55085-.4239-3.09925-.8257-4.6403-1.2055,1.98695-.6198,3.98125-1.2691,5.9853-1.9722,4.5938-1.617,14.6976-5.4243,23.1844-10.3757v22.4885Z"/>
  </g>
</svg>