<?xml version="1.0" encoding="UTF-8"?>
<svg id="Layer_2" data-name="Layer 2" xmlns="http://www.w3.org/2000/svg" viewBox="0 0 200.9 323.218692">
  <g id="_Layer_" data-name="&amp;lt;Layer&amp;gt;">
    <path d="M190.855,25.112499v20.736799c-9.5771-10.9099-25.4579-19.7053-45.2025-25.056199V5.0225h-10.045v13.4039c-9.4202-1.8791-19.5363-3.0159-30.135-3.2903V0h-10.045v15.1361c-10.5987.2744-20.7147,1.4112-30.135,3.2903V5.0225h-10.045v15.7706c-19.7445,5.3509-35.6255,14.1463-45.2025,25.056199v-20.736799H0v296.327493h10.045v-15.8001c4.9441,5.6105,11.6326,10.7482,19.9381,15.204692l4.4247,2.374107.9531-1.7787h9.8416v-64.109098c3.2193,1.149,6.5709,2.1951,10.045,3.1384v60.970698h10.045v-58.606499c9.4203,1.8792,19.5363,3.0184,30.135,3.2928v55.313699h10.045v-55.313699c10.5987-.2744,20.7148-1.4136,30.135-3.2928v58.606499h10.045v-60.970698c3.4717-.9433,6.8233-1.9894,10.045-3.1384v64.109098h9.8417l.953,1.7787,4.4247-2.374107c8.3055-4.456493,14.994-9.594192,19.9381-15.204692v15.8001h10.045V25.112499h-10.045ZM190.855,70.314998c0,11.0911-8.5015,21.393399-22.3317,29.358299-.9066-.4532-1.8425-.8942-2.7808-1.3303v-23.005499h-10.045v18.9067c-3.2217-1.1467-6.5733-2.1953-10.045-3.136V31.396799c26.7883,7.9477,45.2025,22.584099,45.2025,38.918199ZM32.3743,240.303294c-13.8278-7.9649-22.3293-18.2671-22.3293-29.358299,0-11.0887,8.5015-21.39341,22.3293-29.35841.9089.455711,1.8448.894311,2.7832,1.330411v56.055999c-.9384.4361-1.8743.8747-2.7832,1.3303ZM45.2025,116.700797c3.2193,1.1491,6.5709,2.1952,10.045,3.1385v41.583899c-3.4741.9407-6.8257,1.9893-10.045,3.1359v-47.858299ZM135.6075,159.056496c-9.4202-1.8792-19.5363-3.016-30.135-3.2904v-30.269699c10.5987-.2744,20.7148-1.4137,30.135-3.292812v36.852911ZM95.4275,155.766096c-10.5987.2744-20.7147,1.4112-30.135,3.2904v-36.852911c9.4203,1.879112,19.5363,3.018412,30.135,3.292812v30.269699ZM45.2025,175.473896c3.1924-1.2569,6.5439-2.408311,10.045-3.4472v7.524c-3.5011-1.0388-6.8526-2.1928-10.045-3.4472v-.6296ZM65.2925,169.441996c9.3933-2.0506,19.5535-3.3148,30.135-3.6211v19.933199c-10.5815-.3062-20.7417-1.5704-30.135-3.6211v-12.691ZM105.4725,165.820896c10.5816.3063,20.7417,1.5705,30.135,3.6211v12.691c-9.3933,2.0507-19.5534,3.3149-30.135,3.6211v-19.933199ZM145.6525,172.026696c3.501,1.038889,6.8527,2.1903,10.045,3.4472v.6296c-3.1923,1.2544-6.544,2.4084-10.045,3.4472v-7.524ZM155.6975,164.559096c-3.2217-1.1466-6.5733-2.1952-10.045-3.1359v-41.583899c3.4717-.9433,6.8233-1.9894,10.045-3.1385v47.858299ZM155.6975,105.786097c-3.1923,1.2568-6.544,2.4108-10.045,3.4496v-7.524c3.501,1.038887,6.8527,2.1903,10.045,3.4472v.6272ZM135.6075,111.817997c-9.3933,2.0507-19.5534,3.3149-30.135,3.6211v-19.933199c10.5816.3063,20.7417,1.5705,30.135,3.6211v12.691ZM95.4275,115.439097c-10.5815-.3062-20.7417-1.5704-30.135-3.6211v-12.691c9.3933-2.0506,19.5535-3.3148,30.135-3.6211v19.933199ZM55.2475,109.235697c-3.5011-1.0388-6.8526-2.1928-10.045-3.4496v-.6272c3.1924-1.2569,6.5439-2.408313,10.045-3.4472v7.524ZM35.1575,112.601997v56.055999c-.9384.4361-1.8743.8771-2.7832,1.3303-13.8278-7.9649-22.3293-18.2672-22.3293-29.358299,0-11.0887,8.5015-21.393412,22.3293-29.358412.9089.455813,1.8448.894313,2.7832,1.330413ZM45.2025,187.015895c3.2193,1.149,6.5709,2.1951,10.045,3.1384v41.583899c-3.4741.9407-6.8257,1.9893-10.045,3.1359v-47.858199ZM65.2925,192.518495c9.4203,1.8792,19.5363,3.0184,30.135,3.2928v30.269799c-10.5987.2744-20.7147,1.4112-30.135,3.2904v-36.852999ZM105.4725,195.811295c10.5987-.2744,20.7148-1.4136,30.135-3.2928v36.852999c-9.4202-1.8792-19.5363-3.016-30.135-3.2904v-30.269799ZM145.6525,190.154295c3.4717-.9433,6.8233-1.9894,10.045-3.1384v47.858199c-3.2217-1.1466-6.5733-2.1952-10.045-3.1359v-41.583899ZM165.7425,238.972994v-56.055999c.9383-.4361,1.8742-.8747,2.7808-1.330411,13.8302,7.965,22.3317,18.26971,22.3317,29.35841,0,11.0912-8.5015,21.393399-22.3317,29.358299-.9066-.4556-1.8425-.8942-2.7808-1.3303ZM165.7425,168.657996v-56.055999c.9383-.4361,1.8742-.8746,2.7808-1.330413,13.8302,7.965,22.3317,18.269712,22.3317,29.358412,0,11.0911-8.5015,21.393399-22.3317,29.358299-.9066-.4532-1.8425-.8942-2.7808-1.3303ZM135.6075,28.811999v59.929398c-9.4202-1.8791-19.5363-3.0159-30.135-3.2903V25.190899c10.5816.3062,20.7417,1.5705,30.135,3.6211ZM95.4275,25.190899v60.260198c-10.5987.2744-20.7147,1.4112-30.135,3.2903V28.811999c9.3933-2.0506,19.5535-3.3149,30.135-3.6211ZM55.2475,31.396799v59.711398c-3.4741.9407-6.8257,1.9893-10.045,3.136v-18.9067h-10.045v23.005499c-.9384.4361-1.8743.8771-2.7832,1.3303-13.8278-7.9649-22.3293-18.2672-22.3293-29.358299,0-16.3341,18.4142-30.970499,45.2025-38.918199ZM10.045,94.780698c3.3761,3.8465,7.5288,7.4284,12.3627,10.6918-4.8339,3.2634-8.9866,6.8477-12.3627,10.6918v-21.383599ZM10.045,165.095696c3.3761,3.8465,7.5288,7.4284,12.3627,10.6918-4.8339,3.2634-8.9866,6.8477-12.3627,10.6918v-21.383599ZM10.045,235.410694c3.3761,3.8465,7.5288,7.430891,12.3627,10.6918-4.8339,3.2634-8.9866,6.8477-12.3627,10.6918v-21.383599ZM35.1575,312.220692l-.4263-.2303c-15.9201-8.5383-24.6862-19.453-24.6862-30.730399,0-11.0887,8.5015-21.393408,22.3293-29.358299.9089.4556,1.8448.8942,2.7832,1.3303v58.988699ZM45.2025,246.418494v-.6296c3.1924-1.2569,6.5439-2.4084,10.045-3.4472v7.524c-3.5011-1.0388-6.8526-2.1928-10.045-3.4472ZM65.2925,252.447994v-12.691c9.3933-2.0507,19.5535-3.3148,30.135-3.6211v19.933199c-10.5815-.3063-20.7417-1.5704-30.135-3.6211ZM105.4725,256.069094v-19.933199c10.5816.3063,20.7417,1.5704,30.135,3.6211v12.691c-9.3933,2.0507-19.5534,3.3148-30.135,3.6211ZM145.6525,249.865694v-7.524c3.501,1.0388,6.8527,2.1903,10.045,3.4472v.6296c-3.1923,1.2544-6.544,2.4084-10.045,3.4472ZM166.1688,311.990392l-.4263.2303v-58.988699c.9383-.4361,1.8742-.8747,2.7808-1.3303,13.8302,7.964891,22.3317,18.2696,22.3317,29.358299,0,11.2774-8.7685,22.192099-24.6862,30.730399ZM190.855,256.794294c-3.3761-3.8441-7.5289-7.4284-12.3627-10.6918,4.8338-3.2634,8.9866-6.8453,12.3627-10.6918v21.383599ZM190.855,186.479295c-3.3761-3.8441-7.5289-7.4284-12.3627-10.6918,4.8338-3.2634,8.9866-6.8453,12.3627-10.6918v21.383599ZM190.855,116.164297c-3.3761-3.8441-7.5289-7.4284-12.3627-10.6918,4.8338-3.2634,8.9866-6.8453,12.3627-10.6918v21.383599Z"/>
  </g>
</svg>