<?xml version="1.0" encoding="UTF-8"?>
<svg id="Layer_2" data-name="Layer 2" xmlns="http://www.w3.org/2000/svg" viewBox="0 0 321.44 180.81">
  <g id="_Layer_" data-name="&amp;lt;Layer&amp;gt;">
    <path d="M321.44,20.09v-10.045h-29.1746c-7.7175-6.4852-16.5522-10.045-26.0729-10.045-9.2928,0-15.1434,6.2695-17.8311,10.045h-26.411c-7.7175-6.4852-16.5522-10.045-26.0729-10.045-9.2928,0-15.1434,6.2695-17.8311,10.045h-42.4389v.3479c-12.0025,1.5802-22.9026,8.7685-31.4629,19.7421h-63.9646v.3822C17.6121,33.859,0,59.4345,0,90.405s17.6121,56.546,40.18,59.8902v.3798h63.9646c8.5603,10.976,19.4604,18.1619,31.4629,19.7446v.3454h42.5981c2.5995,3.7705,8.3276,10.045,17.6719,10.045,9.5207,0,18.3554-3.5574,26.0729-10.045h26.5702c2.5995,3.7705,8.3276,10.045,17.6719,10.045,9.5207,0,18.3554-3.5574,26.0729-10.045h29.1746v-10.045h-19.7911c6.2426-8.4304,11.2945-19.284,14.7686-32.1097.6174-2.2809,1.1907-4.6133,1.7076-7.0143l1.0535-4.9098-2.7611-.5929-7.0609-1.5166-1.0511,4.9098c-.0759.3504-.1592.7032-.2376,1.0535-3.3589,14.9891-9.827,30.4437-19.5289,40.18-1.9061,1.9134-3.9397,3.5991-6.0957,5.0225-4.7946,3.1678-10.2042,5.0225-16.2508,5.0225-3.0086,0-5.3655-1.3867-7.056-2.9376,1.2715-.6345,2.5063-1.3426,3.7216-2.0849,2.4205-1.4724,4.7383-3.1458,6.9335-5.0225,10.3904-8.8813,18.1887-22.1676,22.5963-38.8986l.3381-1.2814.9432-3.5745-9.7142-2.5603-1.2789,4.8559c-5.5933,21.2292-17.0986,35.917-32.4552,41.4589h-18.887c7.3524-9.9274,13.061-23.2113,16.4763-39.124l1.0534-4.9098-9.822-2.1095-1.0511,4.9098c-.0759.3504-.1592.7032-.2376,1.0535-3.3589,14.9891-9.8269,30.4437-19.5289,40.18-1.9061,1.9134-3.9372,3.5991-6.0932,5.0225-4.7971,3.1678-10.2067,5.0225-16.2533,5.0225-3.0086,0-5.3655-1.3867-7.056-2.9376,1.2715-.6345,2.5063-1.3426,3.7216-2.0849,2.4205-1.4724,4.7383-3.1458,6.9334-5.0225,10.388-8.8813,18.1888-22.1676,22.5964-38.8986l.3381-1.2814.9433-3.5745-9.7143-2.5603-1.2764,4.8559c-5.5958,21.2292-17.101,35.917-32.4576,41.4589h-12.5685c14.1046-11.3802,24.4363-31.4703,27.5527-55.2475h126.5498v-10.045h-125.6826c.0711-1.6636.1201-3.3344.1201-5.0225s-.049-3.3589-.1201-5.0225h125.6826v-10.045h-126.5498c-3.1164-23.7748-13.4481-43.8673-27.5527-55.2475h12.5537c15.3444,5.5174,26.8667,20.1929,32.4724,41.4613l1.2764,4.856,9.7143-2.5603-.9433-3.577-.3381-1.2789c-4.3512-16.5228-12.3088-29.9415-22.736-38.9011-2.183-1.8767-4.4786-3.5501-6.8674-5.0225-1.2053-.7423-2.4279-1.4504-3.6823-2.0849,1.7566-1.5583,4.1454-2.9376,7.0903-2.9376,6.0491,0,11.4587,1.8571,16.2533,5.0225,2.156,1.4259,4.1871,3.1115,6.0932,5.0225,9.702,9.7388,16.17,25.1909,19.5289,40.18.0784.3528.1617.7031.2376,1.0559l1.0511,4.9098,9.822-2.1094-1.0534-4.9098c-3.4153-15.9152-9.1239-29.1967-16.4763-39.1265h18.8723c15.3444,5.5174,26.8668,20.1929,32.4699,41.4613l1.2789,4.856,9.7142-2.5603-.9432-3.577-.3381-1.2789c-4.3512-16.5228-12.3088-29.9415-22.736-38.9011-2.183-1.8767-4.4786-3.5501-6.8673-5.0225-1.2055-.7423-2.428-1.4504-3.6824-2.0849,1.7566-1.5583,4.1454-2.9376,7.0903-2.9376,6.0466,0,11.4586,1.8571,16.2533,5.0225,2.156,1.4259,4.1871,3.1115,6.0932,5.0225,9.7019,9.7388,16.17,25.1909,19.5289,40.18.0784.3528.1617.7031.2376,1.0559l1.0511,4.9098,7.0609-1.5165,2.7611-.5929-1.0535-4.9098c-.5169-2.401-1.0902-4.7359-1.7076-7.0168-3.4741-12.8233-8.526-23.6793-14.7686-32.1097h19.7911ZM185.8325,90.405c0,5.172-.3724,10.2116-1.0559,15.0675-4.0989,29.0717-19.7862,51.4623-39.1241,54.804-1.6488.2842-3.3247.4435-5.0225.4435h0c-1.6979,0-3.3737-.1593-5.0225-.4435-6.6076-1.1441-12.7915-4.503-18.2329-9.6015h13.2104c1.6979,0,3.3712-.1348,5.0225-.3798,1.7052-.2523,3.3785-.6394,5.0225-1.1392,1.7126-.5194,3.3908-1.1637,5.0225-1.9355,17.5371-8.2933,30.135-30.6225,30.135-56.8155,0-26.1905-12.5979-48.5198-30.135-56.8131-1.6317-.7717-3.3099-1.4185-5.0225-1.9379-1.644-.4998-3.3173-.8845-5.0225-1.1368-1.6513-.245-3.3246-.3822-5.0225-.3822h-13.2104c5.4414-5.0985,11.6253-8.4574,18.2329-9.5991,1.6488-.2866,3.3246-.4459,5.0225-.4459h0c1.6978,0,3.3737.1593,5.0225.4459,19.3379,3.3418,35.0252,25.7299,39.1241,54.8016.6835,4.8584,1.0559,9.8955,1.0559,15.0675ZM40.18,40.7533c1.6439-.3381,3.3124-.5733,5.0225-.5733s3.3785.2352,5.0225.5733c17.0079,3.501,30.135,24.402,30.135,49.6517s-13.1271,46.1531-30.135,49.6517c-1.644.3381-3.3124.5733-5.0225.5733s-3.3786-.2352-5.0225-.5733c-17.0091-3.4986-30.135-24.402-30.135-49.6517s13.1259-46.1507,30.135-49.6517ZM87.4136,111.9356c1.9256-6.6909,2.9914-13.9454,2.9914-21.5306,0-7.5827-1.0658-14.8397-2.9914-21.5281-3.2806-11.3925-9.0798-21.1264-16.4861-27.9888,7.7469,1.7934,14.6461,7.1907,19.8254,14.9817,1.2348,1.8571,2.379,3.8343,3.4055,5.9437,1.2471,2.5578,2.3201,5.2895,3.2217,8.1634,1.9576,6.2499,3.0699,13.1516,3.0699,20.4281,0,7.2789-1.1123,14.1806-3.0699,20.4281-.9016,2.8739-1.9746,5.6056-3.2217,8.1659-1.0265,2.1069-2.1707,4.0841-3.4055,5.9412-5.1793,7.791-12.0785,13.1883-19.8254,14.9842,7.4063-6.8625,13.2055-16.5963,16.4861-27.9888ZM95.038,135.73c1.198-1.3989,2.3397-2.8738,3.4201-4.4296,1.1516-1.6586,2.2345-3.4006,3.2414-5.2234,5.5223-9.996,8.7955-22.3318,8.7955-35.672s-3.2732-25.676-8.7955-35.6696c-1.0069-1.8228-2.0898-3.5672-3.2414-5.2258-1.0804-1.5558-2.2246-3.0307-3.4201-4.4271-1.2789-1.4946-2.6215-2.8984-4.0205-4.1944,1.7811.4115,3.5256.9824,5.2087,1.764,1.47.6835,2.8861,1.5288,4.2655,2.472,1.3719.9383,2.7023,1.9796,3.969,3.1556,9.6627,8.9621,16.0793,24.4804,16.0793,42.1253s-6.4166,33.1656-16.0793,42.1253c-1.2667,1.176-2.5971,2.2173-3.969,3.1556-1.3794.9432-2.7955,1.7885-4.2655,2.472-1.6831.7816-3.4276,1.3525-5.2087,1.7665,1.4014-1.2985,2.7416-2.6999,4.0205-4.1944ZM111.1075,139.9244c11.7576-10.8952,19.4775-29.0227,19.4775-49.5194s-7.7199-38.6242-19.4775-49.5169c10.4052,2.4108,19.2742,11.341,24.5,23.7821,3.1679,7.5386,5.0225,16.3219,5.0225,25.7348s-1.8546,18.1986-5.0225,25.7372c-5.2258,12.4387-14.0948,21.3714-24.5,23.7822ZM135.6075,135.2792c1.813-2.1658,3.4912-4.5252,5.0225-7.0511,1.9233-3.1727,3.6064-6.6101,5.0225-10.2655,3.2022-8.2638,5.0225-17.6302,5.0225-27.5576s-1.8203-19.2913-5.0225-27.5576c-1.4161-3.653-3.0992-7.0928-5.0225-10.2655-1.5313-2.5259-3.2095-4.8853-5.0225-7.0511-1.6268-1.9453-3.359-3.7313-5.1866-5.3508h.1641c1.7101,0,3.3785.2352,5.0225.5733,1.715.3528,3.3957.8477,5.0225,1.5435,1.7395.7423,3.408,1.6979,5.0225,2.7979,11.858,8.0825,20.09,25.3281,20.09,45.3103s-8.232,37.2278-20.09,45.3103c-1.6145,1.1-3.283,2.058-5.0225,2.8004-1.6268.6933-3.3075,1.1882-5.0225,1.541-1.644.3381-3.3124.5733-5.0225.5733h-.1641c1.8276-1.617,3.5598-3.4055,5.1866-5.3508Z"/>
  </g>
</svg>