<?xml version="1.0" encoding="UTF-8"?>
<svg id="Layer_2" data-name="Layer 2" xmlns="http://www.w3.org/2000/svg" viewBox="0 0 321.44 323.270192">
  <g id="_Layer_" data-name="&amp;lt;Layer&amp;gt;">
    <path d="M301.35,237.887694h-140.63v40.179999h10.094c-2.205,2.9253-3.807312,6.3284-4.564312,10.045h-20.597199v-110.494997h35.157512v-23.877699l-35.157512-10.045v-16.3023H0v10.045h135.607489v50.224999H0v10.045h135.607489v90.404998H0v35.157499h10.045v-25.112499h301.35v25.112499h10.045v-35.157499h-29.255415c2.0751-5.8432,7.6415-10.045,14.1879-10.045,1.1221,0,2.3153.174,3.7559.5488l1.266616.328292,3.599084.935908.4728-1.813h5.973116v-10.045h-10.045v-5.0225h-10.045v5.0225h-10.045v-5.0225h-10.045v5.0225h-10.045v-5.0225h-10.045v5.0225h-10.045v-5.0225h-10.045v5.0225h-10.045v-5.0225h-10.045v5.0225h-10.045v-5.0225h-10.045v5.0225h-10.045v-5.0225h-10.045v5.0225h-10.045v-20.089999h10.045v5.0225h10.045v-5.0225h10.045v5.0225h10.045v-5.0225h10.045v5.0225h10.045v-5.0225h10.045v5.0225h10.045v-5.0225h10.045v5.0225h10.045v-5.0225h10.045v5.0225h10.045v-5.0225h10.045v5.0225h10.045v-5.0225h10.045v-10.045h-20.09ZM281.767185,288.112693h-6.0368c-.7571-3.7166-2.359385-7.1197-4.564385-10.045h15.165485c-2.205,2.9253-3.8073,6.3284-4.5643,10.045ZM265.313,288.112693h-28.375914c2.0751-5.8432,7.6415-10.045,14.187914-10.045s12.112785,4.2018,14.188,10.045ZM226.519586,288.112693h-11.0593c-.757-3.7166-2.359287-7.1197-4.564287-10.045h20.188c-2.205,2.9253-3.807314,6.3284-4.564414,10.045ZM205.042887,288.112693h-28.375887c2.075188-5.8432,7.641587-10.045,14.188-10.045s12.112787,4.2018,14.187887,10.045ZM170.765,167.572696h-25.112512v-13.430911l25.112512,7.176v6.254911ZM301.35,202.730195v-5.0225h-10.045v5.0225h-10.045v-5.0225h-10.045v5.0225h-10.045v-5.0225h-10.045v5.0225h-10.045v-5.0225h-10.045v5.0225h-10.045v-5.0225h-10.045v5.0225h-10.045v-5.0225h-10.045v5.0225h-10.045v-5.0225h-10.045v20.089999h10.045v-5.0225h10.045v5.0225h10.045v-5.0225h10.045v5.0225h10.045v-5.0225h10.045v5.0225h10.045v-5.0225h10.045v5.0225h10.045v-5.0225h10.045v5.0225h10.045v-5.0225h10.045v5.0225h10.045v-5.0225h10.045v5.0225h10.045v10.045h-160.72v-40.179999h160.72v10.045h-10.045v5.0225h-10.045ZM20.09,207.752695v70.314998h90.405v-70.314998H20.09ZM100.45,268.022693H30.135v-50.224999h70.315v50.224999ZM50.225,247.932694h-10.045v-10.045h10.045v10.045ZM90.405,247.932694h-10.045v-10.045h10.045v10.045ZM70.315,247.932694h-10.045v-10.045h10.045v10.045ZM123.443289,84.128098l-6.566,11.3484,32.428199,18.681287,6.5586-11.333687c3.2854.3626,6.4264.3626,9.7118,0l6.5562,11.333687,32.430699-18.681287-6.566-11.3484c1.8987-2.6092,3.5108-5.4047,4.8265-8.3618h13.1442v-37.374799h-13.1442c-1.3157-2.9571-2.9278-5.7526-4.8265-8.3618l6.566-11.3508L172.132088,0l-6.5562,11.3313c-3.2854-.3626-6.4264-.3626-9.7118,0l-6.5586-11.3313-32.428199,18.6789,6.566,11.3508c-1.8988,2.6092-3.5109,5.4047-4.8265,8.3618h-13.1443v37.374799h13.1443c1.3156,2.9571,2.9277,5.7526,4.8265,8.3618ZM115.517489,48.436499h10.045l1.1858-3.346714c1.4871-4.184486,3.6946-8.009,6.5636-11.355685l2.320111-2.7024-5.022511-8.6754,15.0283-8.648515,5.0127,8.665615,3.481512-.6394c4.610888-.8428,8.565088-.8428,13.176088,0l3.4814.6394,5.0127-8.665615,15.0283,8.648515-5.022487,8.6754,2.320187,2.7024c2.8689,3.346685,5.0763,7.1712,6.5635,11.355685l1.1858,3.346714h10.045v17.2848h-10.045l-1.1858,3.3443c-1.4872,4.187-3.6946,8.009-6.5635,11.3557l-2.320187,2.7048,5.022487,8.673-15.0283,8.6485-5.0127-8.6656-3.4814.6394c-4.611.8453-8.5652.8453-13.176088,0l-3.481512-.6394-5.0127,8.6656-15.0283-8.6485,5.022511-8.673-2.320111-2.7048c-2.869-3.3467-5.0765-7.1687-6.5636-11.3557l-1.1858-3.3443h-10.045v-17.2848ZM160.72,77.167698c11.078888,0,20.09-9.0111,20.09-20.089999,0-11.0765-9.011112-20.089999-20.09-20.089999s-20.09,9.0135-20.09,20.089999c0,11.0789,9.011088,20.089999,20.09,20.089999ZM160.72,47.032699c5.537,0,10.045,4.5056,10.045,10.045s-4.508,10.045-10.045,10.045-10.045-4.5056-10.045-10.045,4.508-10.045,10.045-10.045Z"/>
  </g>
</svg>