<?xml version="1.0" encoding="UTF-8"?>
<svg id="Layer_2" data-name="Layer 2" xmlns="http://www.w3.org/2000/svg" viewBox="0 0 321.44 180.809997">
  <g id="_Layer_" data-name="&amp;lt;Layer&amp;gt;">
    <path d="M321.44,20.089997v-10.044997h-29.177115c-7.7174-6.4851-16.5521-10.045-26.070399-10.045-9.2904,0-15.143485,6.269597-17.8311,10.045h-26.413386c-7.717613-6.4851-16.552313-10.045-26.070513-10.045-9.2904,0-15.143487,6.269597-17.8311,10.045h-36.458499c-7.7174-6.4851-16.5522-10.045-26.070399-10.045-9.2904,0-15.1434,6.269597-17.8311,10.045h-47.46139v.3479C22.106292,14.0973,0,48.558997,0,90.404997s22.106292,76.3077,50.225,80.0146v.3454h47.62309c2.5994,3.7681,8.3227,10.045,17.6694,10.045,9.5182,0,18.353-3.5598,26.070399-10.045h36.622599c2.597,3.7681,8.3202,10.045,17.667,10.045,9.5182,0,18.3529-3.5598,26.070513-10.045h26.575086c2.5995,3.7681,8.3227,10.045,17.6694,10.045,9.5183,0,18.353-3.5598,26.070399-10.045h29.177115v-10.045h-19.793515c6.242515-8.4304,11.294515-19.2864,14.771-32.1122.6174-2.2785,1.1907-4.6133,1.7077-7.01185l1.0535-4.9098-2.7612-.5929-7.058484-1.51655-1.053516,4.9098c-.0759.35035-.1592.70315-.2376,1.0535-3.358884,14.9891-9.8294,30.4437-19.5314,40.18-1.9061,1.9135-3.9372,3.5991-6.0932,5.0225-4.7946,3.1679-10.2042,5.0225-16.2508,5.0225-3.0111,0-5.365485-1.3867-7.053485-2.9351,1.271486-.637,2.508786-1.3451,3.726385-2.0874,2.4182-1.4725,4.7334-3.1458,6.928615-5.0225,10.388-8.8812,18.188785-22.1676,22.593885-38.89865l.338115-1.28135.943285-3.577-9.7119-2.5578-1.2789,4.8559c-5.5958,21.2439-17.1108,35.9342-32.450199,41.4589h-18.8968c7.3524-9.9274,13.0609-23.2113,16.4786-39.12405l1.0535-4.9098-9.8195-2.10945-1.0535,4.9098c-.076.35035-.1593.70315-.2377,1.0535-3.358886,14.9891-9.8294,30.4437-19.5314,40.18-1.9061,1.9135-3.9371,3.5991-6.0931,5.0225-4.7947,3.1679-10.2043,5.0225-16.2509,5.0225-3.011,0-5.365487-1.3867-7.0536-2.9351,1.2716-.637,2.5088-1.3451,3.7265-2.0874,2.4181-1.4725,4.7334-3.1458,6.928613-5.0225,10.388-8.8812,18.188787-22.1676,22.593887-38.89865l.338113-1.28135.943186-3.577-9.7117-2.5578-1.2789,4.8559c-5.5958,21.2439-17.1109,35.9342-32.450299,41.4589h-28.941899c7.3525-9.9274,13.061-23.2113,16.4787-39.12405l1.0536-4.9098-9.819688-2.10945-1.053512,4.9098c-.0759.35035-.1592.70315-.2376,1.0535-3.359,14.9891-9.8294,30.4437-19.5314,40.18-1.9061,1.9135-3.9372,3.5991-6.0931,5.0225-4.7947,3.1679-10.2043,5.0225-16.2509,5.0225-3.0111,0-5.365489-1.3867-7.053489-2.9351,1.271489-.637,2.508789-1.3451,3.726389-2.0874,2.4182-1.4725,4.7334-3.1458,6.928611-5.0225,10.388-8.8812,18.188789-22.1676,22.593889-38.89865l.338111-1.28135.943189-3.577-9.7118-2.5578-1.2789,4.8559c-5.5958,21.2439-17.1107,35.9342-32.450199,41.4589h-17.59829c14.10459-11.3803,24.436289-31.4703,27.552589-55.2475h211.932411v-10.045H110.375c.071-1.6611.12-3.3345.12-5.0225s-.049-3.359-.12-5.0225h211.065v-10.045H109.507589c-3.1163-23.7748-13.448-43.8673-27.552589-55.2475h17.57869c15.3444,5.515,26.86431,20.1904,32.469799,41.4613l1.2789,4.856,9.7118-2.5578-.943189-3.5795-.338111-1.2789c-4.3512-16.5252-12.3113-29.9439-22.735999-38.9011-2.182889-1.8767-4.4786-3.5501-6.8698-5.022497-1.2029-.739903-2.423089-1.447903-3.6775-2.0825,1.7567-1.5582,4.1405-2.94,7.0879-2.94,6.0466,0,11.4562,1.8571,16.2509,5.0225,2.1559,1.423497,4.187,3.111497,6.0931,5.022497,9.702,9.7387,16.1724,25.1909,19.5314,40.18.0784.3528.1617.7032.2376,1.056l1.053512,4.9097,9.819688-2.1094-1.0536-4.9098c-3.4177-15.9152-9.1262-29.1966-16.4787-39.1265h28.922299c15.344312,5.515,26.864199,20.1904,32.469899,41.4613l1.2789,4.856,9.7117-2.5578-.943186-3.5795-.338113-1.2789c-4.3512-16.5252-12.3112-29.9439-22.735999-38.9011-2.183-1.8767-4.4786-3.5501-6.8698-5.022497-1.2029-.739903-2.423-1.447903-3.6774-2.0825,1.7566-1.5582,4.1405-2.94,7.0878-2.94,6.0466,0,11.4562,1.8571,16.2509,5.0225,2.156,1.423497,4.187,3.111497,6.0931,5.022497,9.702,9.7387,16.172513,25.1909,19.5314,40.18.0784.3528.1617.7032.2377,1.056l1.0535,4.9097,9.8195-2.1094-1.0535-4.9098c-3.4177-15.9152-9.1262-29.1966-16.4786-39.1265h18.8772c15.3444,5.515,26.864314,20.1904,32.469799,41.4613l1.2789,4.856,9.7119-2.5578-.943285-3.5795-.338115-1.2789c-4.3512-16.5252-12.3112-29.9439-22.735999-38.9011-2.182885-1.8767-4.4786-3.5501-6.8698-5.022497-1.203-.739903-2.423086-1.447903-3.6775-2.0825,1.7567-1.5582,4.1405-2.94,7.0879-2.94,6.0466,0,11.4562,1.8571,16.2508,5.0225,2.156,1.423497,4.1871,3.111497,6.0932,5.022497,9.702,9.7387,16.172515,25.1909,19.5314,40.18.0784.3528.1617.7032.2376,1.056l1.053516,4.9097,7.058484-1.5165,2.7612-.5929-1.0535-4.9098c-.517-2.401-1.0903-4.7334-1.7077-7.0119-3.476484-12.8282-8.528484-23.6841-14.771-32.1146h19.793515ZM97.238,116.384797l-10.51291-9.6383c-5.1352-4.7113-9.1606-10.3905-11.9805-16.8805l-10.3047-23.7503c-1.1882-2.7416-2.623891-5.3165-4.169891-7.8106-1.511609-2.4353-3.175209-4.7652-5.022509-6.9555-1.5656-1.8572-3.2193-3.6457-5.022491-5.319-.088209-.0808-.161709-.174-.249909-.2548l-17.8017-15.8025c2.668-2.4745,5.515-4.5251,8.4991-6.1103l9.552509,8.5677,5.022491,4.5055,5.022509,4.5056,13.12459,11.7722,22.032899,31.5756,4.998,7.1614c-.0661,4.6305-.41649,9.1507-1.03149,13.5215-.52921,3.76075-1.25441,7.4039-2.156,10.9123ZM55.247491,118.763747l5.022509,4.53495,23.67919,21.3885c-6.5929,8.4501-14.7489,14.0459-23.67919,15.5894-1.648809.2842-3.324609.4434-5.022509.4434h0c-1.6979,0-3.3737-.1592-5.022491-.4434-16.564409-2.8641-30.453508-19.6932-36.674-42.73295l35.801791,32.48945.872209-.9628,5.022491-5.5346.8526-.9408-.8526-.7742-5.022491-4.5594L11.225892,101.873397l-.5072.5587c-.4336-3.9103-.673692-7.9258-.673692-12.0271,0-1.2128.019592-2.4181.058792-3.6186,3.3614,2.3226,7.095208,4.0866,10.9956,5.9167,5.779608,2.7121,11.752608,5.5174,17.221,10.5301l3.6995,3.39815,6.7914-7.40395-3.7019-3.3956c-6.5978-6.0515-13.5803-9.3272-19.7421-12.2231-4.7775-2.2393-8.9082-4.1773-11.929-6.9482l-2.2295-2.0482c.894208-6.0368,2.2833-11.7796,4.1086-17.1133l10.5889,9.7192,6.7938-7.4014-13.2887-12.1962c1.8178-3.6799,3.866-7.0682,6.1102-10.1209l17.723409,15.7339c2.621491,2.4034,4.946491,5.069,6.98,7.9601,1.945291,2.766,3.623591,5.7403,5.002891,8.9179l.0196.0466,5.022509,11.5762,5.26259,12.13c3.3786,7.7885,8.2247,14.6118,14.406,20.28355l13.9258,12.76945c-1.2862,3.278-2.74639,6.3675-4.3487,9.2634l-29.24569-26.4159-1.869309-1.68805-3.1532,3.4937-3.5746,3.96165,3.5746,3.23155ZM81.30079,46.990997l-21.03079-18.9654-5.022509-4.5276-3.5182-3.1728c1.1613-.1421,2.3324-.2352,3.5182-.2352h0c1.6979,0,3.3737.1593,5.022509.4459,18.64209,3.2193,33.89329,24.1398,38.63889,51.6852l-17.6081-25.2301Z"/>
  </g>
</svg>