<?xml version="1.0" encoding="UTF-8"?>
<svg id="Layer_2" data-name="Layer 2" xmlns="http://www.w3.org/2000/svg" viewBox="0 0 321.44 180.796781">
  <g id="_Layer_" data-name="&amp;lt;Layer&amp;gt;">
    <path d="M321.44,22.592985v-10.045h-84.3559c-4.7776-5.9462-7.9454-8.4672-9.0577-9.2537l-.8158-.575714c-6.3112-4.466286-15.1018-3.322186-20.0141,2.643614l-.4925.6027c-1.5753,1.9109-2.6165,4.1895-3.0527,6.5831h-46.9273c-4.7774-5.9462-7.9453-8.4672-9.0576-9.2537l-.8158-.575714c-6.3137-4.466286-15.1043-3.322186-20.0141,2.643614l-.4925.6027c-1.5753,1.9109-2.6165,4.1895-3.0527,6.5831H50.225v.3479C22.1078,16.600285,0,51.061984,0,92.907983s22.1078,76.307698,50.225,80.014498v.3455h73.9606c1.519,1.5263,2.94,2.8469,4.2336,3.9568,2.7146,2.3274,6.1814,3.572,9.7167,3.572,1.1711,0,2.3545-.1371,3.5182-.4189,3.9788-.958,7.3623-3.5011,9.4545-7.1099h58.4595c1.5116,1.5165,2.9351,2.842,4.2336,3.9568,2.7146,2.3274,6.1814,3.572,9.7167,3.572,1.1711,0,2.3544-.1371,3.5182-.4189,3.9788-.958,7.3622-3.5011,9.4545-7.1099h53.437c1.5116,1.5165,2.9351,2.842,4.2336,3.9568,2.7146,2.3274,6.1813,3.572,9.7167,3.572,1.1711,0,2.3545-.1371,3.5182-.4189,3.9788-.958,7.3623-3.5011,9.4546-7.1099h4.5888v-10.045h-2.7881c-.3528-1.9649-1.1098-3.8367-2.2344-5.5125-.6272-.9334-1.3303-1.8252-2.183-2.6043-4.2923-3.9347-13.0903-13.627-23.7796-34.363699l-2.3006-4.4664-8.9303,4.603489,1.1173,2.163411,1.1857,2.3005c10.8315,21.018599,20.0754,31.813299,25.921,37.168999.2303.2107.3921.4655.5685.7105.882,1.2348,1.1049,2.8518.4115,4.5423-.071.1715-.1812.3209-.2694.4802-.6517,1.1735-1.742,2.036-3.114,2.3667-1.568.3896-3.1531.0098-4.3438-1.0143-.4901-.419-.9972-.8697-1.5215-1.3524-1.5141-1.3891-3.1727-3.0478-4.9563-5.0225-6.9238-7.6636-15.7487-20.136499-25.4629-40.179999-.3503-.7203-.6958-1.4112-1.0462-2.1535l-2.1535-4.535-9.0748,4.3046,2.1536,4.537489c8.1609,17.19651,15.8784,29.39021,22.5498,38.02641h-42.8971c-.5488-3.0576-2.0384-5.9363-4.4173-8.1168-4.2924-3.9347-13.0904-13.627-23.7797-34.363699l-2.3006-4.4664-8.9302,4.603489,1.1172,2.163411,1.1858,2.3005c10.8314,21.018599,20.0753,31.813299,25.921,37.168999.2302.2107.3919.4655.5683.7105.882,1.2348,1.105,2.8518.4116,4.5423-.071.1715-.1813.3209-.2695.4802-.6492,1.1735-1.7419,2.036-3.1139,2.3667-1.5754.3896-3.1556.0098-4.3439-1.0143-.4899-.419-.9971-.8697-1.5214-1.3524-1.5141-1.3891-3.1727-3.0478-4.9564-5.0225-6.9236-7.6636-15.7486-20.136499-25.4628-40.179999-.3503-.7203-.6958-1.4112-1.0461-2.1535l-2.1536-4.535-9.0748,4.3046,2.1536,4.537489c8.1609,17.19651,15.8784,29.39021,22.5498,38.02641h-47.9196c-.5488-3.0576-2.0384-5.9363-4.4149-8.1168h-.0024c-5.9585-5.45861-16.9565-18.4069-29.9439-47.130699h202.8918v-10.045H114.2043c-1.2544-3.0233-2.521-6.178911-3.7999-9.5011-.0074-.1813-.0196-.3626-.0294-.5439h211.065v-10.045H109.5076c-3.1164-23.774799-13.448-43.867299-27.5527-55.247499h43.1911c.9775,1.6268,2.2442,3.0233,3.6995,4.0449.0931.0809,9.4105,8.3398,23.7307,38.300899l2.1658,4.5325,9.0626-4.3316-1.1295-2.3667-1.0364-2.1658c-10.4149-21.792699-18.4264-32.864299-22.8462-38.014199-2.254-2.626413-3.5794-3.7166-3.8049-3.893-.4458-.3161-.8036-.7032-1.1-1.1295-.392-.5635-.6591-1.2005-.7521-1.893913-.1495-1.114687.1543-2.207387.8305-3.128587.0514-.0662.0857-.1421.1396-.2083l.495-.6002c1.5679-1.911,4.4001-2.2711,6.4483-.8183l.8159.5758c.0907.0637.5267.3821,1.2691,1.051,1.0143.9163,2.6117,2.5039,4.7211,5.0225,1.154,1.3793,2.4574,3.038,3.9054,5.0225,5.5933,7.6685,13.2936,20.210099,22.4272,40.179999.3161.6885.6272,1.3598.9457,2.0654l2.063,4.579,9.1581-4.1282-2.0654-4.5815c-7.769-17.2333-14.6559-29.471112-20.3301-38.114699h41.5471c.9775,1.6268,2.2442,3.0233,3.6995,4.0449.0931.0809,9.4104,8.3398,23.7307,38.300899l2.1658,4.5325,9.0626-4.3316-1.1295-2.3667-1.0364-2.1658c-10.4149-21.792699-18.4264-32.864299-22.8462-38.014199-2.2565-2.626413-3.5795-3.7166-3.8048-3.893-.446-.3161-.8036-.7032-1.1001-1.1295-.392-.5635-.6591-1.2005-.7521-1.893913-.1495-1.114687.1543-2.207387.8305-3.128587.0515-.0662.0858-.1421.1397-.2083l.4949-.6002c1.568-1.911,4.4001-2.2711,6.4483-.8183l.8159.5758c.0906.0637.5268.3821,1.2691,1.051,1.0143.9163,2.6117,2.5039,4.7212,5.0225,1.1539,1.3793,2.4573,3.038,3.9052,5.0225,5.5934,7.6685,13.2937,20.210099,22.4273,40.179999.3161.6885.6272,1.3598.9457,2.0654l2.0629,4.579,9.1582-4.1282-2.0654-4.5815c-7.7689-17.2333-14.6559-29.471112-20.3301-38.114699h77.1211ZM141.7056,162.512481c.2303.2107.3919.4655.5683.7105.8821,1.2348,1.105,2.8518.4117,4.5423-.0711.1715-.1814.3209-.2696.4802-.6492,1.1735-1.7419,2.036-3.1139,2.3667-1.5705.3896-3.1482.0098-4.3439-1.0143-.4851-.4165-.9947-.8722-1.5165-1.3524-1.5043-1.3793-3.1629-3.0454-4.949-5.0225-6.3823-7.0585-14.4403-18.2158-23.3289-35.789599.2499-.7693.4361-1.5655.6689-2.3397.2768-.9114.5365-1.8327.7913-2.7612.2646-.9898.5365-1.9796.7742-2.9817.4876-2.0261.9384-4.079211,1.3132-6.1764.0221-.1176.0441-.2352.0637-.3553.0882-.4973.1887-.9922.2695-1.4944,13.9356,30.967999,26.0803,45.155889,32.661,51.187799ZM81.9549,163.222981c7.2251-5.8285,13.453-13.94541,18.2379-23.671899,5.461,9.9568,10.6134,17.6718,15.2536,23.671899h-33.4915ZM55.2475,163.222981h0c-1.6979,0-3.3737-.1593-5.0225-.44341-17.0275-2.94249-31.2238-20.65349-37.1724-44.692889l37.1724,37.171399,5.0225,5.02249,2.7954,2.79541c-.9261.0882-1.857.147-2.7954.147ZM99.394,77.840483c.3675,2.6117.6517,5.27.8257,7.9772.1519,2.3324.2303,4.6967.2303,7.0903,0,1.3549-.0319,2.6975-.0784,4.0327-.0172.4141-.0417.8257-.0613,1.2397-.0465.948189-.1004,1.8914-.169,2.8273-.0318.418889-.0661.8354-.1029,1.252-.0882,1.0363-.1935,2.0628-.3112,3.0845-.0293.2499-.0539.5022-.0857.7521-.0784.6297-.1789,1.252-.2695,1.8792-.8992,6.2794-2.3471,12.3627-4.3781,18.1766l-.7008,1.9967.027.0515c-2.0016,5.3361-4.4296,10.2336-7.23,14.56029l-16.7751-16.77509-7.1025,7.1025,17.6791,17.6792c-3.6088,3.8833-7.595,6.9703-11.8555,9.0993l-8.7661-8.7686-5.0225-5.0225-5.0225-5.0225L10.3699,101.198783c-.2066-2.722-.3249-5.4831-.3249-8.2908,0-5.7575.4572-11.3508,1.3002-16.709l33.8573,33.856499,5.0225-5.0224,2.0801-2.0801-2.0801-2.08L13.8988,64.546784c1.5448-5.4267,3.5185-10.4933,5.8541-15.0993l20.4271,20.427999,7.1026-7.1025-22.1897-22.189699c6.8306-9.5378,15.533-15.8858,25.1321-17.5444,1.6488-.2866,3.3246-.4459,5.0225-.4459h0c1.6979,0,3.3712.1593,5.0225.4459,19.3379,3.3418,35.0252,25.729899,39.124,54.801599ZM70.315,64.852984l-10.045-10.045-5.0225-5.0225-5.0225-5.0224-7.1025-7.1026,7.1025-7.1026,5.0225,5.025,5.0225,5.0201,17.1475,17.1475-7.1025,7.1025ZM70.315,80.782883l14.6363,14.6364-7.1026,7.1025-14.6362-14.6363,7.1025-7.1026Z"/>
  </g>
</svg>