<?xml version="1.0" encoding="UTF-8"?>
<svg id="Layer_2" data-name="Layer 2" xmlns="http://www.w3.org/2000/svg" viewBox="0 0 321.44 321.439992">
  <g id="_Layer_" data-name="&amp;lt;Layer&amp;gt;">
    <path d="M316.0157,146.830896c-4.4002-80.558398-46.7484-141.808396-100.048224-141.808396h-106.868997c-1.7444-2.9866-4.949-5.0225-8.648479-5.0225h-10.045c-5.431721,0-9.846521,4.3414-10.013221,9.7363C39.36658,25.516799,9.106681,79.409398,5.424281,146.830896c-3.2071,1.6808-5.424281,5.0029-5.424281,8.8666v10.045c0,3.866089,2.217181,7.1883,5.424281,8.8666,3.6824,67.421489,33.942299,121.314097,74.967498,137.094597.1667,5.394893,4.5815,9.7363,10.013221,9.7363h10.045c3.699479,0,6.904079-2.0335,8.648479-5.0225h106.868997c53.299824,0,95.648024-61.249998,100.048224-141.808396,3.207-1.6783,5.4243-5.000511,5.4243-8.8666v-10.045c0-3.8637-2.2173-7.1858-5.4243-8.8666ZM80.36,20.589799v37.524199c-25.80342,9.8882-45.724319,44.558199-49.548819,87.538498h-15.2856c3.704419-60.652198,29.608299-109.220997,64.834419-125.062697ZM90.405,10.045l10.045-.0073v50.232299h-10.045V10.045ZM305.9143,145.652496h-14.9915c-2.5382-50.908499-17.7821-94.699798-39.496525-119.344397,29.875325,19.989485,51.156025,64.795098,54.488025,119.344397ZM250.742775,145.652496c-2.9082-58.341912-22.498399-107.354097-49.394499-128.884697,30.985199,10.0866,56.026599,63.895998,59.424798,128.884697h-10.0303ZM270.8328,145.652496c-2.9082-58.341912-22.498325-107.354097-49.394524-128.884697,30.985199,10.0866,56.026624,63.895998,59.424824,128.884697h-10.0303ZM240.683075,145.652496h-10.0303c-2.9082-58.341912-22.498399-107.354097-49.394499-128.884697,30.985199,10.0866,56.026599,63.895998,59.424798,128.884697ZM195.777,165.742496h-40.079522v-10.045h40.179999v10.045h-.100477ZM100.45,251.124994h-9.136121c-15.6971-13.820409-27.461999-43.428699-30.352999-75.337498h10.0229c2.7759,31.465399,14.161,59.216499,31.217899,75.516398-.5708-.103-1.1515-.1789-1.751679-.1789ZM91.313879,70.314998h9.136121c.600179,0,1.180879-.076,1.751679-.176414-17.0569,16.299913-28.441999,44.051-31.217899,75.513912h-10.0229c2.891-31.906299,14.6559-61.516998,30.352999-75.337498ZM101.182479,145.652496c2.4059-25.374599,10.785-48.387499,23.463699-63.430498l1.060822-1.2617c1.364678,1.5508,2.682778,3.2046,3.956778,4.949l-1.9919,3.508287c-8.9498,15.778113-14.6485,35.343812-16.5056,56.234912h-9.9838ZM116.965379,75.746585c-14.1095,16.743313-23.367999,42.152312-25.859699,69.905912h-10.0303c2.8077-30.267299,13.9625-56.499499,30.541699-70.532998l3.8318-3.243913-.1397-.164086c1.0609.708,2.1022,1.47,3.1287,2.2859l-1.4725,1.749186ZM50.86928,145.652496h-9.9935c3.2217-34.922299,17.4489-63.570098,36.328599-75.001798-13.9846,17.3116-23.813999,45.097099-26.335099,75.001798ZM45.20248,175.787496h5.6668c2.5211,29.904699,12.3505,57.690199,26.335099,75.001798-18.8797-11.4292-33.106899-40.079499-36.328599-75.001798h4.3267ZM111.617079,246.320494c-16.5792-14.0336-27.733999-40.265699-30.541699-70.532998h10.0303c2.4917,27.755999,11.7502,53.164999,25.859699,69.905798l1.4725,1.749291c-1.0265.815909-2.0678,1.577809-3.1287,2.285909l.1397-.1617-3.8318-3.2463ZM125.707,240.479694l-1.060822-1.2617c-12.6787-15.0406-21.057799-38.053409-23.463699-63.430498h9.9838c1.8571,20.893599,7.5558,40.459299,16.5056,56.234799l1.9944,3.5085c-1.2765,1.7443-2.5946,3.3981-3.959278,4.9489ZM135.769178,225.818894c-7.7445-14.1095-12.708178-31.440799-14.4648-50.031399h14.3031v-10.045H45.20248v-10.045h90.404998v-10.045h-14.3031c1.756622-18.5881,6.7203-35.921912,14.4648-50.031399,7.568,13.9821,12.7327,31.881799,14.3521,51.729199-2.6926,1.8057-4.4688,4.8706-4.4688,8.3472v10.045c0,3.4765,1.7762,6.544,4.4688,8.3472-1.6194,19.847399-6.7841,37.747099-14.3521,51.729199ZM35.157481,155.697496v10.045H10.045v-10.045h25.112481ZM260.773075,175.787496c-3.3982,64.988698-28.439599,118.798089-59.424798,128.884697,26.896099-21.530608,46.486299-70.542798,49.394499-128.884697h10.0303ZM240.683075,175.787496c-3.3982,64.988698-28.439599,118.798089-59.424798,128.884697,26.896099-21.530608,46.486299-70.542798,49.394499-128.884697h10.0303ZM270.8328,175.787496h10.0303c-3.3982,64.988698-28.439625,118.798089-59.424824,128.884697,26.896199-21.530608,46.486324-70.542798,49.394524-128.884697ZM281.1963,165.742496h-75.273824v-10.045h105.472524l.0049,10.045h-30.2036ZM220.593076,145.652496h-15.1729c-2.9914-49.590399-20.690176-92.484998-49.673699-119.209597l-3.6946-3.4055-6.8061,7.384185,3.692222,3.408c26.969577,24.867514,43.492377,65.076913,46.422577,111.822912h-35.316799c-3.8244-42.980299-23.745399-77.650298-49.548777-87.538498V15.0675h40.18c35.662177,0,66.142576,58.398199,69.918076,130.584997ZM30.811181,175.787496c3.8245,42.980299,23.745399,77.650298,49.548819,87.538498v37.524199c-35.22612-15.8417-61.13-64.407998-64.836819-125.062697h15.288ZM100.45,311.394992h-10.045v-50.224999l4.248279-.0025h.8624l4.934321-.0048v50.232299ZM110.495,263.325993c25.803378-9.8882,45.724378-44.558199,49.548777-87.538498h35.316799c-2.9302,46.745999-19.453,86.957798-46.422577,111.825397l-3.692222,3.4055,6.8061,7.384192,3.6946-3.403c28.983522-26.727091,46.682299-69.62169,49.673699-119.212089h15.1729c-3.7755,72.189298-34.255899,130.584997-69.918076,130.584997h-40.18v-43.046499ZM251.426275,295.134293c21.714425-24.644499,36.960825-68.435798,39.496525-119.346797h14.9915c-3.332,54.551699-24.6127,99.354897-54.488025,119.346797Z"/>
  </g>
</svg>