<?xml version="1.0" encoding="UTF-8"?>
<svg id="Layer_2" data-name="Layer 2" xmlns="http://www.w3.org/2000/svg" viewBox="0 0 180.796981 325.0316">
  <g id="_Layer_" data-name="&amp;lt;Layer&amp;gt;">
    <path d="M177.494479,111.8792l.578275-.8183c4.4786-6.3137,3.3246-15.1018-2.6485-20.0214l-.5929-.4851c-1.229875-1.0143-2.6093-1.7959-4.071875-2.3496v-29.6082c4.062075-3.528,5.995175-5.9412,6.735-6.9874l.578275-.8183c4.4786-6.3136,3.3246-15.1018-2.6485-20.0214l-.5929-.4851c-1.229875-1.0143-2.6093-1.7983-4.071875-2.352V1.8742h-10.045v26.0117c-2.697524.9922-5.044524,2.7391-6.578324,4.9196-.112676.1274-10.165,11.4684-48.669199,28.491v-27.0676c18.6543-7.6783,34.486199-15.4032,47.086523-23.0349l4.29-2.6043-1.024124-1.693-4.1797-6.8967-4.2948,2.6019c-2.3569,1.4259-4.8755,2.8591-7.4652,4.2948-9.8441,5.4537-21.336999,10.9613-34.412699,16.4664V1.8742h-10.045v321.44h10.045v-12.6665c34.736099-14.4795,50.337699-24.7597,55.247523-29.2212.624676-.5684,1.082876-1.0461,1.376876-1.4209.7325-1.0339,1.8105-1.693,3.0282-1.8547.2058-.0245.4116-.0171.6174-.0122.9751.0171,1.9257.3356,2.7268.9898l.5929.4851c1.1907.9824,1.7787,2.4524,1.702825,3.9151v.0097c-.049.8796-.335725,1.7543-.877125,2.5186l-.5953.8355c-.103.1494-1.0609,1.47-3.5501,3.7804-1.2544,1.1637-2.9057,2.5822-5.022476,4.2238-5.990224,4.6476-15.775524,11.1156-31.357624,18.9017l-4.4908,2.2466,1.1221,2.2467,3.3687,6.7399,4.4933-2.2466c3.0871-1.5435,5.963324-3.0405,8.6437-4.4933,7.5117-4.0645,13.4823-7.7543,18.220624-10.9981v16.0206h10.045v-23.667c4.248275-3.6799,6.127475-6.0956,6.735-6.958l.578275-.8183c4.4786-6.3136,3.3246-15.1018-2.6485-20.0214l-.5929-.4876c-1.229875-1.0118-2.6093-1.7958-4.071875-2.3495v-29.6058c4.062075-3.528,5.995175-5.9413,6.735-6.9874l.578275-.8183c4.4786-6.3137,3.3246-15.1018-2.6485-20.0214l-.5929-.4851c-1.229875-1.0143-2.6093-1.7959-4.071875-2.3471v-29.6107c4.062075-3.528,5.995175-5.9412,6.735-6.9874l.578275-.8183c4.4786-6.3136,3.3246-15.1018-2.6485-20.0214l-.5929-.4851c-1.229875-1.0143-2.6093-1.7958-4.071875-2.3495v-29.6083c4.062075-3.528,5.995175-5.9413,6.735-6.9874ZM170.759479,162.9985c-.049.8795-.335725,1.7542-.877125,2.5185l-.5856.8257c-.1372.1911-1.1098,1.5141-3.5598,3.7877-1.2544,1.1638-2.9057,2.5823-5.022476,4.2238-8.604424,6.6762-25.066,17.1132-55.247523,29.819v-11.3729c37.372299-16.05,51.214799-27.7757,55.247523-31.8256.852576-.855,1.271476-1.3719,1.376876-1.5091.7325-1.0364,1.8105-1.693,3.0282-1.8547.1911-.0245.3822-.0392.5733-.0392.0147,0,.0294.0073.0441.0073.98.0123,1.9257.3504,2.7268,1.0095l.5929.4851c1.1907.9824,1.7787,2.4524,1.702825,3.9151v.0098ZM170.759479,223.2685c-.049.8795-.335725,1.7541-.877125,2.5186l-.5856.8256c-.1372.1911-1.1098,1.5141-3.5598,3.7877-1.2544,1.1637-2.9057,2.5823-5.022476,4.2238-8.604424,6.6763-25.066,17.1108-55.247523,29.8189v-11.3729c37.372299-16.0499,51.214799-27.7756,55.247523-31.8254.852576-.8551,1.271476-1.3721,1.376876-1.5093.7325-1.0363,1.8105-1.6929,3.0282-1.8546.1911-.0245.3822-.0392.5733-.0392.0147,0,.0294.0074.0441.0074.98.0122,1.9257.3503,2.7268,1.0093l.5929.4851c1.1907.9825,1.7787,2.4525,1.702825,3.9151v.0099ZM160.714479,268.9756c-2.560224.9506-4.841224,2.6093-6.524324,4.8217-1.3525,1.2372-12.0932,10.3904-48.723199,25.9553v-24.4266c27.202399-11.1916,44.447899-20.8862,55.247523-28.2681v21.9177ZM160.714479,208.6958c-2.697524.9923-5.044524,2.7391-6.578324,4.9196-.112676.1274-10.165,11.4685-48.669199,28.4911v-27.0504c27.202399-11.1916,44.447899-20.8863,55.247523-28.2681v21.9078ZM160.714479,148.4259c-2.697524.9897-5.044524,2.7391-6.578324,4.9196-.112676.1274-10.165,11.4684-48.669199,28.491v-27.0505c27.202399-11.1916,44.447899-20.8862,55.247523-28.2681v21.908ZM105.466956,132.5302c37.372299-16.0499,51.214799-27.7756,55.247523-31.8254.852576-.8551,1.271476-1.3721,1.376876-1.5093.7325-1.0339,1.8105-1.6929,3.0282-1.8546.1911-.0245.3822-.0392.5733-.0392.0147,0,.0294.0074.0441.0074.98.0122,1.9257.3503,2.7268,1.0093l.5929.4851c1.1907.9825,1.7787,2.4525,1.702825,3.9151v.0098c-.049.8796-.335725,1.7542-.877125,2.5187l-.5856.8256c-.1372.1911-1.1098,1.5141-3.5598,3.7877-1.2544,1.1638-2.9057,2.5823-5.022476,4.2238-8.604424,6.6763-25.066,17.1108-55.247523,29.8189v-11.3729ZM105.466956,94.5161c27.202399-11.1916,44.447899-20.8863,55.247523-28.2681v21.9078c-2.697524.9923-5.044524,2.7391-6.578324,4.9196-.112676.1274-10.165,11.4685-48.669199,28.4886v-27.0479ZM105.466956,72.2603c37.372299-16.05,51.214799-27.7757,55.247523-31.8256.852576-.855,1.271476-1.3719,1.376876-1.5091.7325-1.0364,1.8105-1.693,3.0282-1.8547.1911-.0245.3822-.0392.5733-.0392.0147,0,.0294.0074.0441.0074.98.0122,1.9257.3503,2.7268,1.0094l.5929.4851c1.1907.9824,1.7787,2.4524,1.702825,3.915v.0099c-.049.8795-.335725,1.7542-.877125,2.5185l-.5856.8257c-.1372.1911-1.1098,1.5141-3.5598,3.7877-1.2544,1.1637-2.9057,2.5823-5.022476,4.2238-8.604424,6.6762-25.066,17.1108-55.247523,29.819v-11.3729ZM75.331957,6.8967v6.4068c-25.908799,10.4737-43.428699,20.5555-55.247478,29.2652V1.8742h-10.045v48.9363c-2.58722,2.3912-4.72112,4.6207-6.46562,6.6542-3.0992,3.6162-4.2801,8.5652-3.158,13.2349,1.1245,4.6623,4.4149,8.5236,8.575,10.2263l.4802.2058c.1862.076.3797.1323.568421.2009v29.7479c-2.58972,2.3936-4.72362,4.6256-6.47052,6.6591-3.0943,3.6162-4.2752,8.5603-3.1531,13.23,1.1245,4.6624,4.4149,8.5235,8.9768,10.3978l.646821-1.4994v.1519l-.568421,1.3818c.1862.0759.3797.1323.568421.2009v29.7479c-2.58972,2.3937-4.72362,4.6256-6.47052,6.6591-3.0943,3.6162-4.2752,8.5603-3.1531,13.23,1.1245,4.6623,4.4149,8.5236,8.9768,10.3978l.646821-1.4994v.1519l-.568421,1.3818c.1862.076.3797.1323.568421.2009v29.7479c-2.58972,2.3936-4.72362,4.6256-6.47052,6.6591-3.0943,3.6162-4.2752,8.5603-3.1531,13.23,1.1245,4.6624,4.4149,8.5235,8.9768,10.3978l.646821-1.4994v.1519l-.568421,1.3818c.1862.0759.3797.1323.568421.2009v29.7479c-2.58972,2.3937-4.72362,4.6256-6.47052,6.6591-3.0943,3.6162-4.2752,8.5603-3.1531,13.23,1.1245,4.6623,4.4149,8.5236,8.9768,10.3978l.646821-1.4994v.1519l-.568421,1.3818c.1862.076.3797.1323.568421.2009v.9016h10.045v-.9482c2.099579-.7815,4.035179-2.0286,5.605579-3.7411.098-.1078.2083-.223.3111-.3332,5.794321-6.2034,19.3722-17.4955,49.330799-30.7377v35.7602h10.045V1.8742h-10.045v5.0225ZM75.331957,35.5298c-32.143999,13.7568-47.919599,26.0289-55.247478,33.3543-.663921.664-1.269121,1.2936-1.800821,1.8743-.828.909-1.972179,1.35-3.2217,1.3475-.6566-.0025-1.3328-.0882-2.0261-.3724-1.4357-.588-2.477-1.8252-2.8543-3.3835-.093079-.3895-.1397-.7766-.142079-1.1588v-.0319c-.002421-1.1563.396879-2.2613,1.156379-3.1555,1.1074-1.2912,2.3888-2.6681,3.8661-4.1258,1.467521-1.4455,3.136-2.9719,5.022521-4.5669,10.331679-8.7317,27.334679-19.5509,55.247478-31.1542v11.3729ZM75.331957,95.7999c-32.143999,13.7567-47.919599,26.0287-55.247478,33.3543-.663921.6639-1.269121,1.2936-1.800821,1.8742-.8501.9285-2.0163,1.3867-3.2217,1.3916-.590479.0049-1.1858-.0662-1.7664-.3087l-.2597-.1029c-1.4357-.5929-2.477-1.8252-2.8543-3.3883-.093079-.3872-.1397-.7767-.142079-1.1589v-.0318c-.002421-1.1565.396879-2.2614,1.156379-3.1557,1.1074-1.2911,2.3888-2.668,3.8661-4.1258,1.467521-1.4455,3.136-2.9718,5.022521-4.5667,10.331679-8.7318,27.334679-19.5511,55.247478-31.1542v11.3729ZM75.331957,156.0699c-32.143999,13.7567-47.919599,26.0288-55.247478,33.3542-.663921.664-1.269121,1.2936-1.800821,1.8743-.8501.931-2.0163,1.3867-3.2217,1.3916-.590479.0025-1.1858-.0686-1.7664-.3087l-.2597-.1029c-1.4357-.5929-2.477-1.8253-2.8543-3.3884-.093079-.3895-.1397-.7766-.142079-1.1588v-.0319c-.002421-1.1563.396879-2.2613,1.156379-3.1555,1.1074-1.2912,2.3888-2.6681,3.8661-4.1258,1.467521-1.4456,3.136-2.9719,5.022521-4.5669,10.331679-8.7318,27.334679-19.5509,55.247478-31.1542v11.373ZM75.331957,216.3398c-32.143999,13.7568-47.919599,26.0288-55.247478,33.3544-.663921.6639-1.269121,1.2936-1.800821,1.8742-.8501.9285-2.0163,1.3867-3.2217,1.3916-.590479.0049-1.1858-.0662-1.7664-.3087l-.2597-.1029c-1.4357-.5929-2.477-1.8252-2.8543-3.3883-.093079-.3896-.1397-.7767-.142079-1.1589v-.0318c-.002421-1.1565.396879-2.2614,1.156379-3.1557,1.1074-1.2911,2.3888-2.668,3.8661-4.1258,1.467521-1.4454,3.136-2.9718,5.022521-4.5667,10.331679-8.7318,27.334679-19.551,55.247478-31.1542v11.3728ZM75.331957,276.6099c-32.143999,13.7567-47.919599,26.0288-55.247478,33.3542-.663921.664-1.269121,1.2936-1.800821,1.8743-.8501.9286-2.0163,1.3842-3.2217,1.3892-.590479.0049-1.1858-.0662-1.7664-.3063l-.2597-.1029c-1.4357-.5929-2.477-1.8253-2.8543-3.3884-.093079-.3895-.1397-.7766-.142079-1.1588v-.0319c-.002421-1.1563.396879-2.2613,1.156379-3.1555,1.1074-1.2912,2.3888-2.6681,3.8661-4.1258,1.467521-1.4456,3.136-2.9719,5.022521-4.5669,10.331679-8.7318,27.334679-19.5509,55.247478-31.1542v11.373ZM75.331957,254.3835c-25.906299,10.4737-43.426299,20.5555-55.247478,29.2676v-21.555c2.099579-.7792,4.035179-2.0286,5.605579-3.7412,5.615421-6.1274,19.1467-17.5935,49.641899-31.0709v27.0995ZM75.331957,194.1134c-25.906299,10.4738-43.426299,20.5555-55.247478,29.2678v-21.5552c2.099579-.779,4.035179-2.0286,5.605579-3.7411,5.615421-6.1299,19.1467-17.5934,49.641899-31.0709v27.0994ZM75.331957,133.8435c-25.906299,10.4737-43.426299,20.5555-55.247478,29.2676v-21.555c2.099579-.7792,4.035179-2.0286,5.605579-3.7412,5.615421-6.1274,19.1467-17.591,49.641899-31.0709v27.0995ZM75.331957,73.5734c-25.906299,10.4738-43.426299,20.5555-55.247478,29.2678v-21.5552c2.099579-.779,4.035179-2.0286,5.605579-3.7411,5.615421-6.1299,19.1467-17.5934,49.641899-31.0709v27.0994Z"/>
  </g>
</svg>