<?xml version="1.0" encoding="UTF-8"?>
<svg id="Layer_2" data-name="Layer 2" xmlns="http://www.w3.org/2000/svg" viewBox="0 0 323.4416 180.814971">
  <g id="_Layer_" data-name="&amp;lt;Layer&amp;gt;">
    <path d="M320.5996,119.057771l2.7832-4.18215-6.9653-4.63785-1.3989-.92855-2.7833,4.1797c-16.3537,24.56865-22.6771,39.66545-25.1124,47.23355-.7767,2.4132-1.176,4.0915-1.3549,5.0225-.1103.5757-.1494.8918-.1519.9408-.0711,1.2618-.6248,2.3789-1.5557,3.1507-.8771.7252-1.9944,1.0388-3.136.8918l-.7595-.098c-2.3373-.3087-4.0597-2.4476-3.9495-4.8853,0-.0172-.0024-.0367-.0024-.0563l.0563-.9997c.0123-.2058.1078-1.4871.7106-3.9665,2.0187-8.3202,9.7779-30.233,39.4376-70.952,1.0903-1.4945,2.1952-3.0062,3.3442-4.5521l3.6799-4.9955-7.0241-5.1867-1.0559-.7791-3.6628,4.971c-35.5127,47.7922-43.3087,72.4686-45.0065,81.4944h-39.2784c3.604-9.604,13.1124-29.6205,37.6491-62.6391,28.0771-37.7815,37.6811-62.9112,40.5941-77.9909h15.7829v-10.044997h-15.9274c-.7522-2.1756-2.0017-4.1846-3.6922-5.8359-3.4226-3.3418-8.0483-4.7996-12.7792-3.9813l.6615,4.9809-.8036-4.9588-.0515.0098c-5.2846.9138-9.5745,4.753-11.194,9.7853h-42.456c-.7522-2.1756-2.0017-4.1846-3.6922-5.8359-3.4227-3.3418-8.0433-4.7996-12.7792-3.9813l.6615,4.9809-.8036-4.9588-.0515.0098c-5.2846.9138-9.5746,4.753-11.194,9.7853h-42.4561c-.7521-2.1756-2.0016-4.1846-3.6921-5.8359-3.4251-3.3443-8.0531-4.7971-12.7032-3.9959l.8575,4.9489-1.1271-4.9024c-5.2846.9163-9.5746,4.753-11.194,9.7853H50.225v.3479C22.1088,14.099774,0,48.561471,0,90.407471s22.1088,76.3077,50.225,80.0146v.3454h76.1141c1.769,5.1303,6.2769,9.0797,11.8826,9.8221l.7595.0979c.6418.0858,1.2764.1275,1.9061.1275,3.2609,0,6.3846-1.1197,8.9473-3.2389,2.183-1.8081,3.7559-4.241,4.5571-6.8086h42.2624c1.769,5.1303,6.277,9.0797,11.8826,9.8221l.7595.0979c.6418.0858,1.2764.1275,1.9061.1275,3.2609,0,6.3846-1.1197,8.9474-3.2389,2.1829-1.8081,3.7558-4.241,4.557-6.8086h42.2624c1.769,5.1303,6.277,9.0797,11.8826,9.8221l.7595.0979c.6419.0858,1.2764.1275,1.9061.1275,3.2634,0,6.3846-1.1197,8.9474-3.2389,2.1853-1.8081,3.7582-4.2459,4.5569-6.8086h26.4184v-10.045h-23.6964c2.4769-6.5881,7.7249-18.0614,18.6739-35.24325,1.3132-2.0629,2.6975-4.1944,4.1821-6.42145ZM215.3011,166.685771c-.0711,1.2618-.6248,2.3789-1.5557,3.1507-.8796.7252-1.9846,1.0388-3.136.8918l-.762-.098c-2.3348-.3087-4.0572-2.4476-3.9469-4.8853,0-.0172-.0025-.0367-.0025-.0563l.0563-.9997c.0123-.2058.1078-1.4871.7106-3.9665,2.0923-8.6265,10.3439-31.85,42.7818-75.5041,23.5005-31.6246,32.5777-52.8734,36.0738-65.1259.5391-1.8865.9482-3.5574,1.252-5.022497.1005-.4851.2083-.9775.2867-1.4161.3283-1.8105,1.7052-3.1825,3.501-3.4937l.2744-.0466c.2523-.044.5022-.0661.7546-.0661,1.176,0,2.3152.4728,3.2144,1.3524,1.0119.9849,1.5043,2.303,1.4504,3.6701-.0049.1789.0122.3577-.0147.5365-.2058,1.374497-.4973,2.888597-.8477,4.485997-3.109,14.1316-12.5268,37.1959-38.3915,71.9982-27.952,37.6123-37.2008,59.0964-40.2388,68.6318-.7742,2.4279-1.1417,4.0744-1.3156,5.0225-.0956.5121-.1348.8281-.1446.9408ZM144.9861,166.685771c-.071,1.2618-.6248,2.3789-1.5557,3.1507-.8772.7252-1.9895,1.0388-3.1361.8918l-.7595-.098c-2.3372-.3087-4.0596-2.4476-3.9493-4.8853,0-.0172-.0025-.0367-.0025-.0563l.0564-.9997c.0122-.2058.1077-1.4871.708-3.9665,2.0948-8.6265,10.3464-31.85,42.7844-75.5041,23.5004-31.6246,32.5776-52.8734,36.0737-65.1259.539-1.8865.9482-3.5574,1.252-5.022497.1005-.4851.2083-.9775.2867-1.4161.3283-1.8105,1.7052-3.1825,3.501-3.4937l.2744-.0466c.2523-.044.5022-.0661.7546-.0661,1.176,0,2.3152.4728,3.2144,1.3524,1.0119.9849,1.5043,2.303,1.4504,3.6701-.0049.1789.0123.3577-.0147.5365-.2058,1.374497-.4974,2.888597-.8477,4.485997-3.109,14.1316-12.5269,37.1959-38.3915,71.9982-27.952,37.6123-37.2008,59.0964-40.2388,68.6318-.7742,2.4279-1.1417,4.0744-1.3157,5.0225-.0955.5121-.1347.8281-.1445.9408ZM60.27,90.407471H10.045c0-3.4104.1641-6.762.4679-10.045h39.7121v-10.045H11.9339c5.1107-26.5996,20.0827-46.6333,38.2911-49.7791,1.6489-.2866,3.3247-.4459,5.0225-.4459h0c1.6978,0,3.3712.1593,5.0225.4459,22.5669,3.9004,40.18,33.7389,40.18,69.8691,0,19.66125-5.221,37.4531-13.6122,50.225h-41.6353v10.045h33.3004c-5.4414,5.0984-11.6252,8.4598-18.2329,9.6016-1.6513.2842-3.3247.4434-5.0225.4434h0c-1.6978,0-3.3736-.1592-5.0225-.4434-20.4379-3.533-36.8015-28.3392-39.7121-59.8266h74.8696v-10.045h-25.1125ZM110.495,90.407471c0-30.2257-11.537-56.5974-28.5376-70.315h52.4324c-2.3691,7.2986-6.8845,17.9903-15.533,32.3424-2.0971,3.4864-2.6998,7.7788-1.5851,12.0369,1.5068,5.8334,6.1838,9.9985,12.2035,10.8633.735.1054,1.4675.1568,2.1903.1568,5.2625,0,10.1773-2.722,12.9213-7.3083,10.9833-18.3652,17.7967-34.5009,20.3962-48.0911h39.739c-3.7411,11.635-12.6175,30.8259-33.6532,59.1356-35.5127,47.7922-43.3087,72.4686-45.0065,81.4944h-44.1049c17.0006-13.7175,28.5376-40.08935,28.5376-70.315ZM146.4292,13.653874c.3283-1.8105,1.7052-3.1825,3.4495-3.4839l.3553-.0613c1.4308-.2327,2.8567.2328,3.9396,1.2912,1.0119.9849,1.5043,2.303,1.4529,3.6701-.0074.1789.0098.3577-.0172.5365-.1985,1.337797-.4827,2.844497-.8477,4.485997-2.0482,9.2218-7.0413,23.2774-18.7988,42.9363-1.5803,2.6435-4.2655,2.4745-5.0544,2.3642-.9433-.1372-3.2169-.7424-3.991-3.724-.3626-1.3965-.1642-2.8714.5463-4.0523,10.067-16.709,15.0185-29.0203,17.4366-37.5242.5244-1.8498.9384-3.528,1.2496-5.022497.1029-.4876.1984-.9653.2793-1.4161ZM194.7505,98.083371c28.0746-37.7815,37.681-62.9112,40.5916-77.9909h39.6949c-3.7411,11.635-12.6175,30.8259-33.6532,59.1356-35.5127,47.7922-43.3087,72.4686-45.0065,81.4944h-39.2784c3.604-9.604,13.1124-29.6205,37.6516-62.6391ZM60.27,35.159971h5.0225v10.045h-20.09v-10.045h15.0675ZM60.27,110.497471h20.09v10.045h-45.2025v-10.045h25.1125Z"/>
  </g>
</svg>