<?xml version="1.0" encoding="UTF-8"?>
<svg id="Layer_2" data-name="Layer 2" xmlns="http://www.w3.org/2000/svg" viewBox="0 0 175.679766 321.44">
  <g id="_Layer_" data-name="&amp;lt;Layer&amp;gt;">
    <path d="M72.772298,5.0225v15.5208L18.9679,6.1274l-.0099-.0049c-.4777-.1274-.9554-.2253-1.43319-.3013V0H7.47981v7.7518c-3.32471,1.9527-5.92161,5.1279-6.96541,9.0184-.3429,1.274-.5144,2.5897-.5144,3.9127,0,5.4366,2.9522,10.3072,7.47981,12.9605v34.376c-3.32471,1.9526-5.92161,5.1302-6.96541,9.0209-.3429,1.274-.5144,2.5896-.5144,3.9126,0,5.4365,2.9522,10.3047,7.47981,12.9605v34.3808c-3.32471,1.9503-5.92161,5.1255-6.96541,9.016-.3429,1.274-.5144,2.5897-.5144,3.9127,0,5.4366,2.9522,10.3072,7.47981,12.9605v34.3784c-3.32471,1.9526-5.92161,5.1278-6.96541,9.0185-.3429,1.274-.5144,2.5896-.5144,3.9126,0,5.4365,2.9522,10.3047,7.47981,12.9605v34.3759c-3.32471,1.9527-5.92161,5.1304-6.96541,9.021-.3429,1.2739-.5144,2.5896-.5144,3.9126,0,5.4366,2.9522,10.3072,7.47981,12.9605v46.7166h10.045v-43.4189l55.247488,14.8053v28.6136h10.045V0h-10.045v5.0225ZM13.7665,25.5339c-.45569-.1225-.8746-.316-1.2642-.5513-1.4896-.8917-2.4573-2.5038-2.4573-4.2997,0-.441.0587-.8771.1714-1.2985.3479-1.2961,1.1908-2.3496,2.2859-3.0037.75951-.4557,1.6366-.7252,2.5652-.7252.4262,0,.8672.0588,1.2985.1715l1.15881.3112,55.247488,14.8078v10.3978l-55.247488-14.8029-3.75831-1.007ZM13.7665,85.8039c-.45569-.1225-.8746-.3161-1.2642-.5512-1.4896-.8919-2.4573-2.504-2.4573-4.2998,0-.441.0587-.8771.1714-1.2985.3479-1.296,1.1908-2.3495,2.2859-3.0037.75951-.4557,1.6366-.7252,2.5652-.7252.4262,0,.8672.0588,1.2985.1715l1.15881.3111,55.247488,14.8078v10.3978l-55.247488-14.8029-3.75831-1.0069ZM13.7665,146.0739c-.45569-.1225-.8746-.316-1.2642-.5513-1.4896-.8917-2.4573-2.5038-2.4573-4.2997,0-.441.0587-.8771.1714-1.2985.3479-1.2961,1.1908-2.3496,2.2859-3.0037.75951-.4557,1.6366-.7252,2.5652-.7252.4262,0,.8672.0588,1.2985.1715l1.15881.3112,55.247488,14.8078v10.3978l-55.247488-14.8029-3.75831-1.007ZM13.7665,206.3439c-.45569-.1225-.8746-.3161-1.2642-.5512-1.4896-.8919-2.4573-2.504-2.4573-4.2998,0-.441.0587-.8771.1714-1.2985.3479-1.296,1.1908-2.3496,2.2859-3.0037.75951-.4557,1.6366-.7252,2.5652-.7252.4262,0,.8672.0588,1.2985.1715l1.15881.3111,55.247488,14.8078v10.3978l-55.247488-14.8029-3.75831-1.0069ZM12.5023,266.0626c-1.4896-.8917-2.4573-2.5038-2.4573-4.2997,0-.441.0587-.8771.1714-1.2985.3479-1.2961,1.1908-2.3495,2.2859-3.0037.75951-.4557,1.6366-.7252,2.5652-.7252.4262,0,.8672.0588,1.2985.174l1.15881.3087,55.247488,14.8078v10.3978l-55.247488-14.8029-3.75831-1.007c-.45569-.1225-.8746-.316-1.2642-.5513ZM72.772298,261.6233l-53.804399-14.4159-.0099-.0049c-.4777-.1274-.9554-.2254-1.43319-.3013v-29.1501l55.247488,14.8053v29.0669ZM72.772298,201.3532l-53.804399-14.4157-.0099-.0049c-.4777-.1274-.9554-.2255-1.43319-.3014v-29.1501l55.247488,14.8054v29.0667ZM72.772298,141.0833l-53.804399-14.4159-.0099-.0049c-.4777-.1274-.9554-.2253-1.43319-.3013v-29.1501l55.247488,14.8053v29.0669ZM72.772298,80.8132l-53.804399-14.4157-.0099-.0049c-.4777-.1274-.9554-.2255-1.43319-.3014v-29.1501l55.247488,14.8054v29.0667ZM175.165096,123.85c1.7959-6.6959-1.247-13.5559-6.965286-16.9002v-34.3073c3.302586-1.9355,5.897186-5.0837,6.965286-9.0626,1.7959-6.6958-1.247-13.5558-6.965286-16.9V0h-10.045v43.4213l-55.247512-14.8077V0h-10.045v321.44h10.045v-20.5433l53.804512,14.4183c.482586.1274.962786.2058,1.443.2867v5.8383h10.045v-7.7175c3.302586-1.9355,5.897186-5.0837,6.965286-9.0626,1.7959-6.6958-1.247-13.5558-6.965286-16.9001v-34.3073c3.302586-1.9355,5.897186-5.0838,6.965286-9.0625,1.7959-6.6959-1.247-13.5559-6.965286-16.9001v-34.3074c3.302586-1.9355,5.897186-5.0837,6.965286-9.0626,1.7959-6.6958-1.247-13.5558-6.965286-16.9001v-34.3073c3.302586-1.9355,5.897186-5.0838,6.965286-9.0625ZM163.177296,55.3871c1.8742,1.1221,2.8788,3.3786,2.2859,5.5934-.3553,1.3132-1.203,2.3545-2.2859,2.9988-1.124486.6689-2.5039.9089-3.8661.5537l-1.156386-.3112-55.247512-14.8053v-10.3978l55.247512,14.8004,3.755886,1.007c.463.1225.877.3259,1.2666.561ZM159.311196,124.803l-1.156386-.3111-55.247512-14.8054v-10.3978l55.247512,14.8005,3.755886,1.0069c.463.125.877.3258,1.2666.5611,1.8742,1.1221,2.8788,3.3785,2.2859,5.5933-.3553,1.3132-1.203,2.3544-2.2859,2.9988-1.124486.6688-2.5039.909-3.8661.5537ZM102.907297,59.8192l53.804512,14.4158c.482586.1274.962786.2058,1.443.2867v29.1697l-55.247512-14.8078v-29.0644ZM102.907297,120.0892l53.804512,14.4158c.482586.1274.962786.2058,1.443.2866v29.1697l-55.247512-14.8078v-29.0643ZM159.311196,185.073l-1.156386-.3112-55.247512-14.8053v-10.3978l55.247512,14.8004,3.755886,1.007c.463.1225.877.3259,1.2666.561,1.8742,1.1221,2.8788,3.3786,2.2859,5.5934-.3553,1.3132-1.203,2.3569-2.2859,3.0012-1.124486.6689-2.5039.909-3.8661.5513ZM102.907297,180.3567l53.804512,14.4183c.482586.1274.962786.2058,1.443.2867v29.1697l-55.247512-14.8078v-29.0669ZM159.311196,245.343l-1.156386-.3111-55.247512-14.8054v-10.3978l55.247512,14.8005,3.755886,1.0069c.463.125.877.3258,1.2666.5611,1.8742,1.1221,2.8788,3.3785,2.2859,5.5933-.3553,1.3132-1.203,2.3569-2.2859,3.0037-1.124486.6688-2.5039.9089-3.8661.5488ZM102.907297,240.6292l53.804512,14.4158c.482586.1274.962786.2058,1.443.2866v29.1697l-55.247512-14.8078v-29.0643ZM102.907297,280.0987l55.247512,14.8004,3.755886,1.007c.463.1225.877.3259,1.2666.561,1.8742,1.1221,2.8788,3.3786,2.2859,5.5934-.3553,1.3132-1.203,2.3569-2.2859,3.0037-1.124486.6689-2.5039.909-3.8661.5488l-1.156386-.3112-55.247512-14.8053v-10.3978Z"/>
  </g>
</svg>