<?xml version="1.0" encoding="UTF-8"?>
<svg id="Layer_2" data-name="Layer 2" xmlns="http://www.w3.org/2000/svg" viewBox="0 0 321.44 321.439995">
  <g id="_Layer_" data-name="&amp;lt;Layer&amp;gt;">
    <path d="M316.4175,55.247499h5.0225v-10.045h-25.1125v-5.0225h-10.045v5.0225h-10.045v-10.045h5.0225v-10.045h-5.0225V0h-10.045v25.112499h-10.045V0h-10.045v25.112499h-5.0225v10.045h5.0225v10.045h-10.045v-5.0225h-10.045v5.0225h-30.135v-5.0225h-10.045v5.0225h-10.045v-10.045h5.0225v-10.045h-5.0225V0h-10.045v25.112499h-10.045V0h-10.045v25.112499h-5.0225v10.045h5.0225v10.045h-10.045v-5.0225h-10.045v5.0225h-30.135v-5.0225h-10.045v5.0225h-10.045v-10.045h5.0225v-10.045h-5.0225V0h-10.045v25.112499h-10.045V0h-10.045v25.112499h-5.0225v10.045h5.0225v10.045h-10.045v-5.0225h-10.045v5.0225H0v10.045h25.1125v10.045H0v10.045h25.1125v5.0225h10.045v-5.0225h10.045v10.045h-5.0225v10.044997h5.0225v30.135h-5.0225v10.045h5.0225v10.045h-10.045v-5.0225h-10.045v5.0225H0v10.045h25.1125v10.045H0v10.045h25.1125v5.0225h10.045v-5.0225h10.045v10.045h-5.0225v10.045h5.0225v30.135h-5.0225v10.045h5.0225v10.045h-10.045v-5.0225h-10.045v5.0225H0v10.045h25.1125v10.045H0v10.045h25.1125v5.0225h10.045v-5.0225h10.045v10.045h-5.0225v10.045h5.0225v25.1125h10.045v-25.1125h10.045v25.1125h10.045v-25.1125h5.0225v-10.045h-5.0225v-10.045h10.045v5.0225h10.045v-5.0225h30.135v5.0225h10.045v-5.0225h10.045v10.045h-5.0225v10.045h5.0225v25.1125h10.045v-25.1125h10.045v25.1125h10.045v-25.1125h5.0225v-10.045h-5.0225v-10.045h10.045v5.0225h10.045v-5.0225h30.135v5.0225h10.045v-5.0225h10.045v10.045h-5.0225v10.045h5.0225v25.1125h10.045v-25.1125h10.045v25.1125h10.045v-25.1125h5.0225v-10.045h-5.0225v-10.045h10.045v5.0225h10.045v-5.0225h25.1125v-10.045h-25.1125v-10.045h25.1125v-10.045h-25.1125v-5.0225h-10.045v5.0225h-10.045v-10.045h5.0225v-10.045h-5.0225v-30.135h5.0225v-10.045h-5.0225v-10.045h10.045v5.0225h10.045v-5.0225h25.1125v-10.045h-25.1125v-10.045h25.1125v-10.045h-25.1125v-5.0225h-10.045v5.0225h-10.045v-10.045h5.0225v-10.045h-5.0225v-30.135h5.0225v-10.044997h-5.0225v-10.045h10.045v5.0225h10.045v-5.0225h25.1125v-10.045h-25.1125v-10.045h20.09ZM266.1925,35.157499v50.224999h-10.045v-50.224999h10.045ZM266.1925,145.652495v40.18h-10.045v-50.225h10.045v10.045ZM266.1925,226.012495h-10.045v-30.135h10.045v30.135ZM55.2475,195.877495h10.045v30.135h-10.045v-30.135ZM55.2475,175.787495v-40.18h10.045v50.225h-10.045v-10.045ZM55.2475,95.427495h10.045v30.135h-10.045v-30.135ZM246.1025,226.012495h-5.0225v10.045h5.0225v10.045h-10.045v-5.0225h-10.045v5.0225h-30.135v-5.0225h-10.045v5.0225h-10.045v-10.045h5.0225v-10.045h-5.0225v-30.135h5.0225v-10.045h-5.0225v-10.045h10.045v5.0225h10.045v-5.0225h30.135v5.0225h10.045v-5.0225h10.045v10.045h-5.0225v10.045h5.0225v30.135ZM145.6525,226.012495h-5.0225v10.045h5.0225v10.045h-10.045v-5.0225h-10.045v5.0225h-30.135v-5.0225h-10.045v5.0225h-10.045v-10.045h5.0225v-10.045h-5.0225v-30.135h5.0225v-10.045h-5.0225v-10.045h10.045v5.0225h10.045v-5.0225h30.135v5.0225h10.045v-5.0225h10.045v10.045h-5.0225v10.045h5.0225v30.135ZM75.3375,125.562495v-30.135h5.0225v-10.044997h-5.0225v-10.045h10.045v5.0225h10.045v-5.0225h30.135v5.0225h10.045v-5.0225h10.045v10.045h-5.0225v10.044997h5.0225v30.135h-5.0225v10.045h5.0225v10.045h-10.045v-5.0225h-10.045v5.0225h-30.135v-5.0225h-10.045v5.0225h-10.045v-10.045h5.0225v-10.045h-5.0225ZM246.1025,165.742495h-10.045v-10.045h10.045v10.045ZM185.8325,165.742495h-10.045v-10.045h10.045v10.045ZM226.0125,165.742495h-30.135v-10.045h30.135v10.045ZM75.3375,155.697495h10.045v10.045h-10.045v-10.045ZM145.6525,165.742495h-10.045v-10.045h10.045v10.045ZM95.4275,155.697495h30.135v10.045h-30.135v-10.045ZM155.6975,175.787495v-40.18h10.045v50.225h-10.045v-10.045ZM246.1025,135.607495v10.045h-10.045v-5.0225h-10.045v5.0225h-30.135v-5.0225h-10.045v5.0225h-10.045v-10.045h5.0225v-10.045h-5.0225v-30.135h5.0225v-10.044997h-5.0225v-10.045h10.045v5.0225h10.045v-5.0225h30.135v5.0225h10.045v-5.0225h10.045v10.045h-5.0225v10.044997h5.0225v30.135h-5.0225v10.045h5.0225ZM246.1025,65.292498h-10.045v-10.045h10.045v10.045ZM226.0125,65.292498h-30.135v-10.045h30.135v10.045ZM185.8325,65.292498h-10.045v-10.045h10.045v10.045ZM165.7425,125.562495h-10.045v-30.135h10.045v30.135ZM145.6525,65.292498h-10.045v-10.045h10.045v10.045ZM125.5625,65.292498h-30.135v-10.045h30.135v10.045ZM85.3825,65.292498h-10.045v-10.045h10.045v10.045ZM75.3375,256.147495h10.045v10.045h-10.045v-10.045ZM95.4275,256.147495h30.135v10.045h-30.135v-10.045ZM135.6075,256.147495h10.045v10.045h-10.045v-10.045ZM155.6975,195.877495h10.045v30.135h-10.045v-30.135ZM175.7875,256.147495h10.045v10.045h-10.045v-10.045ZM195.8775,256.147495h30.135v10.045h-30.135v-10.045ZM236.0575,256.147495h10.045v10.045h-10.045v-10.045ZM266.1925,125.562495h-10.045v-30.135h10.045v30.135ZM165.7425,35.157499v50.224999h-10.045v-50.224999h10.045ZM65.2925,35.157499v50.224999h-10.045v-50.224999h10.045ZM35.1575,55.247499h10.045v10.045h-10.045v-10.045ZM35.1575,155.697495h10.045v10.045h-10.045v-10.045ZM35.1575,256.147495h10.045v10.045h-10.045v-10.045ZM55.2475,286.282495v-50.225h10.045v50.225h-10.045ZM155.6975,286.282495v-50.225h10.045v50.225h-10.045ZM256.1475,286.282495v-50.225h10.045v50.225h-10.045ZM286.2825,266.192495h-10.045v-10.045h10.045v10.045ZM286.2825,165.742495h-10.045v-10.045h10.045v10.045ZM286.2825,65.292498h-10.045v-10.045h10.045v10.045Z"/>
  </g>
</svg>